<svg xmlns="http://www.w3.org/2000/svg" viewBox="0 0 676.48 602.56" xmlns:xlink="http://www.w3.org/1999/xlink"><defs><style>.cls-1,.cls-2{fill:none;}.cls-1{clip-rule:evenodd;}.cls-27,.cls-3{fill-rule:evenodd;}.cls-3{fill:url(#linear-gradient);}.cls-4{clip-path:url(#clip-path);}.cls-5{opacity:0.05;}.cls-6{fill:#fff;}.cls-7{opacity:0.75;}.cls-8{fill:#00afad;}.cls-9{clip-path:url(#clip-path-2);}.cls-10{clip-path:url(#clip-path-3);}.cls-11{clip-path:url(#clip-path-4);}.cls-12{clip-path:url(#clip-path-5);}.cls-13{clip-path:url(#clip-path-6);}.cls-14{clip-path:url(#clip-path-7);}.cls-15{clip-path:url(#clip-path-8);}.cls-16{clip-path:url(#clip-path-9);}.cls-17{clip-path:url(#clip-path-10);}.cls-18{clip-path:url(#clip-path-11);}.cls-19{clip-path:url(#clip-path-12);}.cls-20{clip-path:url(#clip-path-13);}.cls-21{clip-path:url(#clip-path-14);}.cls-22{clip-path:url(#clip-path-15);}.cls-23{clip-path:url(#clip-path-16);}.cls-24{clip-path:url(#clip-path-17);}.cls-25{clip-path:url(#clip-path-18);}.cls-26{clip-path:url(#clip-path-19);}.cls-27{fill:url(#linear-gradient-2);}</style><linearGradient id="linear-gradient" x1="402.04" y1="4.5" x2="266.09" y2="584.13" gradientUnits="userSpaceOnUse"><stop offset="0" stop-color="#1e88d8"/><stop offset="0.87" stop-color="#1749ad"/></linearGradient><clipPath id="clip-path"><path class="cls-1" d="M374.66,595.84c233.5-19.06,294-132,294-294.87S537,6.11,374.66,6.11s-528,185-294,294.86S141.16,614.89,374.66,595.84Z"/></clipPath><clipPath id="clip-path-2"><path class="cls-1" d="M752.13-681.19h72a18.53,18.53,0,0,1,18.5,18.56,18.53,18.53,0,0,1-18.5,18.55h-72a18.53,18.53,0,0,1-18.5-18.55A18.53,18.53,0,0,1,752.13-681.19Z"/></clipPath><clipPath id="clip-path-3"><ellipse class="cls-2" cx="-18.37" cy="-313.11" rx="75" ry="75.22"/></clipPath><clipPath id="clip-path-4"><path class="cls-1" d="M-54-676.16a6.61,6.61,0,0,0-4.81-2h-6.07a1.44,1.44,0,0,0-1,.41,1.45,1.45,0,0,0-.42,1v19.81a1.41,1.41,0,0,0,.42,1,1.4,1.4,0,0,0,1,.42,1.47,1.47,0,0,0,1-.4,1.35,1.35,0,0,0,.45-1v-7.66l4.6-.06a6.61,6.61,0,0,0,4.81-2,6.53,6.53,0,0,0,2-4.78A6.49,6.49,0,0,0-54-676.16Zm-9.41.91h4.6a3.77,3.77,0,0,1,2.77,1.14,3.7,3.7,0,0,1,1.15,2.75,3.7,3.7,0,0,1-1.15,2.74,3.89,3.89,0,0,1-2.77,1.18h-4.6Z"/></clipPath><clipPath id="clip-path-5"><path class="cls-1" d="M-33.28-677.73a1.44,1.44,0,0,0-1-.41H-48.71a1.42,1.42,0,0,0-1,.41,1.4,1.4,0,0,0-.42,1,1.46,1.46,0,0,0,.4,1,1.4,1.4,0,0,0,1,.46h5.76v18.35a1.45,1.45,0,0,0,.42,1,1.44,1.44,0,0,0,1,.41,1.44,1.44,0,0,0,1-.41,1.4,1.4,0,0,0,.42-1v-18.35h5.77a1.37,1.37,0,0,0,1-.46,1.42,1.42,0,0,0,.41-1,1.45,1.45,0,0,0-.42-1"/></clipPath><clipPath id="clip-path-6"><path class="cls-1" d="M-26-677.74a1.5,1.5,0,0,0-2,0,1.45,1.45,0,0,0-.42,1v19.81a1.45,1.45,0,0,0,.42,1,1.44,1.44,0,0,0,1,.41,1.49,1.49,0,0,0,1-.4,1.35,1.35,0,0,0,.45-1v-19.81a1.35,1.35,0,0,0-.45-1"/></clipPath><clipPath id="clip-path-7"><path class="cls-1" d="M-.39-677.73l-.13-.1a1.56,1.56,0,0,0-1-.2,1.32,1.32,0,0,0-.95.57l-7,9.7-7.06-9.71a1.4,1.4,0,0,0-2-.35l-.13.12a1.36,1.36,0,0,0-.56,1.11v19.69a1.36,1.36,0,0,0,.46,1,1.51,1.51,0,0,0,2,0,1.45,1.45,0,0,0,.42-1v-15.31l5.56,7.63a1.46,1.46,0,0,0,1.3.66,1.37,1.37,0,0,0,1.19-.62l5.59-7.7v15.34a1.37,1.37,0,0,0,.42,1,1.39,1.39,0,0,0,1,.42,1.39,1.39,0,0,0,1-.42,1.37,1.37,0,0,0,.42-1v-19.69a1.61,1.61,0,0,0-.54-1.14"/></clipPath><clipPath id="clip-path-8"><path class="cls-1" d="M23-657.42l-7.44-19.7a1.36,1.36,0,0,0-1.37-.93,1.48,1.48,0,0,0-1.43.91L5.3-657.45a1.3,1.3,0,0,0,0,1.14,1.54,1.54,0,0,0,.76.75l.57.09A1.38,1.38,0,0,0,8-656.41L9.74-661h8.81l1.72,4.56a1.42,1.42,0,0,0,1.43.94h0l.27,0,.21-.06a1.42,1.42,0,0,0,.76-.78A1.31,1.31,0,0,0,23-657.42Zm-12.15-6.32,3.34-8.84,3.31,8.84Z"/></clipPath><clipPath id="clip-path-9"><path class="cls-1" d="M42.66-657.77l-6.63-9,6.59-8.93a1.34,1.34,0,0,0,.31-1.15,1.35,1.35,0,0,0-.58-.91,1.38,1.38,0,0,0-2,.28l-6.08,8.28-6.06-8.24a1.32,1.32,0,0,0-1-.61,1.34,1.34,0,0,0-1.09.3,1.33,1.33,0,0,0-.57.94,1.29,1.29,0,0,0,.3,1.06l6.59,9-6.56,9a1.45,1.45,0,0,0-.38,1.07,1.46,1.46,0,0,0,.62,1l.05,0a1.63,1.63,0,0,0,.93.26,1.21,1.21,0,0,0,1.08-.65l6.06-8.22,6.08,8.25a1.33,1.33,0,0,0,1.09.62,1.55,1.55,0,0,0,.92-.29,1.4,1.4,0,0,0,.6-.91,1.31,1.31,0,0,0-.27-1.1"/></clipPath><clipPath id="clip-path-10"><path class="cls-1" d="M-12.95-647.73a3.63,3.63,0,0,0-2.6-1,3.54,3.54,0,0,0-2.64,1.14,3.8,3.8,0,0,0-1.11,2.73,3.78,3.78,0,0,0,1.11,2.72A3.63,3.63,0,0,0-15.51-641a3.7,3.7,0,0,0,1.81-.47,3.91,3.91,0,0,0,1.34-1.28.47.47,0,0,0-.16-.68.44.44,0,0,0-.65.16,2.61,2.61,0,0,1-1,1,2.67,2.67,0,0,1-1.35.35,2.67,2.67,0,0,1-1.94-.79,2.83,2.83,0,0,1-.87-1.86h6.08a.52.52,0,0,0,.34-.12.44.44,0,0,0,.14-.33v-.07a3.89,3.89,0,0,0-1.19-2.56m.14,2.14h-5.45a2.88,2.88,0,0,1,1-1.56,2.67,2.67,0,0,1,1.79-.65,2.66,2.66,0,0,1,1.79.66,2.73,2.73,0,0,1,.92,1.55"/></clipPath><clipPath id="clip-path-11"><path class="cls-1" d="M-4.42-648.76h-.12a.11.11,0,0,0-.07,0h0s-.19.06-.22.17l0,0a.32.32,0,0,0-.06.23v4.07a2.16,2.16,0,0,1-.66,1.56A2.14,2.14,0,0,1-7.2-642a2.12,2.12,0,0,1-1.56-.64,2.11,2.11,0,0,1-.65-1.56v-4.07a.45.45,0,0,0-.14-.33.52.52,0,0,0-.68,0,.42.42,0,0,0-.14.33v4.07A3,3,0,0,0-9.45-642a3.18,3.18,0,0,0,2.3.94h0A3,3,0,0,0-5-642v.21a2.63,2.63,0,0,1-.82,1.9,2.66,2.66,0,0,1-1.93.78,2.72,2.72,0,0,1-1.2-.29.49.49,0,0,0-.62.25.45.45,0,0,0,.22.63,3.94,3.94,0,0,0,1.6.36,3.61,3.61,0,0,0,2.63-1.06A3.45,3.45,0,0,0-4-641.75v-6.55a.46.46,0,0,0-.41-.46"/></clipPath><clipPath id="clip-path-12"><path class="cls-1" d="M4.76-647.73a3.66,3.66,0,0,0-2.61-1,3.56,3.56,0,0,0-2.64,1.14,3.79,3.79,0,0,0-1.1,2.73,3.77,3.77,0,0,0,1.1,2.72A3.64,3.64,0,0,0,2.19-641,3.65,3.65,0,0,0,4-641.51a3.91,3.91,0,0,0,1.34-1.28.46.46,0,0,0-.16-.68.43.43,0,0,0-.64.16,2.63,2.63,0,0,1-1,1,2.64,2.64,0,0,1-1.35.35,2.67,2.67,0,0,1-1.94-.79,2.83,2.83,0,0,1-.87-1.86H5.46a.5.5,0,0,0,.34-.12A.41.41,0,0,0,6-645.1v-.07A4,4,0,0,0,4.76-647.73Zm-5.32,2.14a3,3,0,0,1,1-1.56,2.64,2.64,0,0,1,1.78-.65,2.66,2.66,0,0,1,1.79.66,2.8,2.8,0,0,1,.93,1.55Z"/></clipPath><clipPath id="clip-path-13"><path class="cls-1" d="M18-648.66a.47.47,0,0,0-.37,0,.49.49,0,0,0-.27.26L15-642.74l-1.64-3.88a.48.48,0,0,0-.46-.29.48.48,0,0,0-.47.3l-1.64,3.87-2.41-5.65a.44.44,0,0,0-.25-.27.43.43,0,0,0-.62.26.45.45,0,0,0,0,.36l2.84,6.7a.38.38,0,0,0,.19.22.41.41,0,0,0,.27.08.41.41,0,0,0,.42-.3l1.66-3.92,1.66,3.91v0a.43.43,0,0,0,.4.29H15a.4.4,0,0,0,.25-.1.58.58,0,0,0,.18-.23L18.28-648a.41.41,0,0,0,0-.36.53.53,0,0,0-.25-.26"/></clipPath><clipPath id="clip-path-14"><path class="cls-1" d="M26.67-647.73a3.62,3.62,0,0,0-2.6-1,3.54,3.54,0,0,0-2.64,1.14,3.79,3.79,0,0,0-1.1,2.73,3.77,3.77,0,0,0,1.1,2.72A3.63,3.63,0,0,0,24.11-641a3.67,3.67,0,0,0,1.81-.47,3.91,3.91,0,0,0,1.34-1.28.46.46,0,0,0-.16-.68.49.49,0,0,0-.36-.07.53.53,0,0,0-.29.23,2.61,2.61,0,0,1-1,1,2.64,2.64,0,0,1-1.35.35,2.67,2.67,0,0,1-1.94-.79,2.83,2.83,0,0,1-.87-1.86h6.08a.52.52,0,0,0,.34-.12.44.44,0,0,0,.14-.33v-.07a3.89,3.89,0,0,0-1.19-2.56m.15,2.14H21.36a3,3,0,0,1,1-1.56,2.64,2.64,0,0,1,1.78-.65,2.66,2.66,0,0,1,1.79.66,2.8,2.8,0,0,1,.93,1.55"/></clipPath><clipPath id="clip-path-15"><path class="cls-1" d="M35.62-648.62a.48.48,0,0,0-.14.34v.78a3.77,3.77,0,0,0-1.08-.85,3.51,3.51,0,0,0-1.65-.41,3.48,3.48,0,0,0-2.61,1.14,3.81,3.81,0,0,0-1.08,2.72,3.81,3.81,0,0,0,1.08,2.72A3.48,3.48,0,0,0,32.75-641a3.48,3.48,0,0,0,1.65-.41,3.63,3.63,0,0,0,1.08-.86v.79a.48.48,0,0,0,.14.34A.48.48,0,0,0,36-641a.46.46,0,0,0,.34-.14.45.45,0,0,0,.15-.34v-6.76a.45.45,0,0,0-.15-.34.48.48,0,0,0-.68,0m-.14,3.72a2.91,2.91,0,0,1-.8,2.06,2.56,2.56,0,0,1-1.92.84,2.56,2.56,0,0,1-1.92-.84A2.89,2.89,0,0,1,30-644.9a2.93,2.93,0,0,1,.82-2.07,2.57,2.57,0,0,1,1.92-.85,2.57,2.57,0,0,1,1.92.85,3,3,0,0,1,.8,2.07"/></clipPath><clipPath id="clip-path-16"><path class="cls-1" d="M43.37-648.61a.45.45,0,0,0-.34-.13A3.55,3.55,0,0,0,40-647v-1.27a.49.49,0,0,0-.14-.34.49.49,0,0,0-.68,0,.45.45,0,0,0-.14.33v6.75a.48.48,0,0,0,.14.34.48.48,0,0,0,.34.14.48.48,0,0,0,.34-.14.48.48,0,0,0,.14-.34v-3.29a.16.16,0,0,1,0-.08,6.34,6.34,0,0,1,.89-1.72,2.67,2.67,0,0,1,2.1-1.18.46.46,0,0,0,.34-.14.44.44,0,0,0,.14-.34.45.45,0,0,0-.14-.34"/></clipPath><clipPath id="clip-path-17"><rect class="cls-2" x="-93.37" y="-678.45" width="22.04" height="22.98"/></clipPath><clipPath id="clip-path-18"><path class="cls-1" d="M-73.36-671.69c-3.26,2.43-6.94-1.22-4.49-4.45l.07-.07c3.26-2.42,6.93,1.22,4.49,4.45l-.07.07"/></clipPath><clipPath id="clip-path-19"><ellipse class="cls-2" cx="-516.67" rx="75" ry="75.22"/></clipPath><linearGradient id="linear-gradient-2" x1="663.3" y1="-1036.16" x2="527.36" y2="-456.54" gradientTransform="translate(-257.13 -905.51) rotate(144.76)" gradientUnits="userSpaceOnUse"><stop offset="0" stop-color="#1162ad"/><stop offset="0.87" stop-color="#1647bc"/></linearGradient></defs><g id="Layer_2" data-name="Layer 2"><path class="cls-3" d="M374.66,595.84c233.5-19.06,294-132,294-294.87S537,6.11,374.66,6.11s-528,185-294,294.86S141.16,614.89,374.66,595.84Z"/><g xmlns="http://www.w3.org/2000/svg" class="cls-5"><path class="cls-6" d="M28.32,291.7l3-2.59,2.89-2.47C36.12,285,38,283.4,40,281.82c3.89-3.17,7.78-6.31,11.73-9.36l5.92-4.59,6-4.49c4-3,8-6,12.07-8.84s8.12-5.79,12.22-8.63l12.41-8.4c8.29-5.57,16.74-10.93,25.27-16.21q25.64-15.78,52.75-29.78A589.15,589.15,0,0,1,234.92,166c9.85-3.81,20-7.31,30.51-10.47a297.2,297.2,0,0,1,33.12-7.94c5.83-1,11.82-1.9,18.12-2.44a173.33,173.33,0,0,1,19.78-.71,135.76,135.76,0,0,1,22.13,2.35,103.4,103.4,0,0,1,24.82,8.06,93.51,93.51,0,0,1,12.79,7.37c2.09,1.47,4.16,3,6.15,4.68,1,.81,2,1.68,3,2.56l1.44,1.33,1,1a134.85,134.85,0,0,1,14.59,16.77,114,114,0,0,1,12.3,21.25A102.92,102.92,0,0,1,442,234.86a105.38,105.38,0,0,1,.88,25.6,118.61,118.61,0,0,1-4.35,23A144.67,144.67,0,0,1,431.22,303c-2.75,6-5.71,11.59-8.77,16.84a285.2,285.2,0,0,1-19.08,28.29c-6.47,8.57-12.92,16.52-19.12,24.05S372.14,386.91,367,393.59c-2.57,3.32-4.94,6.53-6.94,9.46a84.6,84.6,0,0,0-4.64,7.52l-1.06,2.07c-.2.36-.24.36-.25-.21a12.4,12.4,0,0,0,0-1.26,15.54,15.54,0,0,0-.26-2.07A18.05,18.05,0,0,0,352,404l-.16-.28v0l0,0s0,0-.05.07a.37.37,0,0,0-.08.18,1,1,0,0,0,.14.67,10.14,10.14,0,0,0,3,2.94,40,40,0,0,0,7,4,93.13,93.13,0,0,0,10,3.86c3.69,1.22,7.66,2.35,11.81,3.42s8.49,2.16,12.94,3.17c8.92,2,18.33,3.91,28,5.92s19.65,4.28,29.82,6.89a290.48,290.48,0,0,1,31.09,9.73c5.25,2,10.54,4.21,15.82,6.76a157.71,157.71,0,0,1,15.67,8.77,127.06,127.06,0,0,1,15,11.2,107.73,107.73,0,0,1,13.29,14,98.12,98.12,0,0,1,10.46,16.35c1.44,2.87,2.71,5.8,3.87,8.74s2.13,5.92,3,8.89a116.3,116.3,0,0,1,4.13,34.92,158.55,158.55,0,0,1-4.33,32.18l-32-3.45a158.59,158.59,0,0,0-2.89-25.91,101.6,101.6,0,0,0-3.16-11.62,74.68,74.68,0,0,0-4.45-10.24,53.89,53.89,0,0,0-5.71-8.57,51.4,51.4,0,0,0-6.86-7c-1.25-1-2.54-2-3.89-3s-2.77-1.81-4.22-2.67a75,75,0,0,0-9.38-4.61,103.27,103.27,0,0,0-10.62-3.65c-3.71-1.09-7.59-2.06-11.61-2.9-8-1.69-16.59-2.83-25.45-3.88s-18.08-1.76-27.6-2.48S395.22,495,385,493.92c-5.12-.53-10.34-1.12-15.71-1.88s-10.87-1.74-16.57-3a173.31,173.31,0,0,1-17.81-4.72,122.82,122.82,0,0,1-19.39-8.11,93.16,93.16,0,0,1-20.29-14.41,85.43,85.43,0,0,1-9.32-10.36c-1.43-1.89-2.8-3.86-4.08-5.89-.62-1-1.27-2-1.84-3.09l-.87-1.57-.43-.79-.54-1.1a64.79,64.79,0,0,1-5.89-19,70.47,70.47,0,0,1-.71-9.32,74.83,74.83,0,0,1,.45-8.52,83.42,83.42,0,0,1,2.92-14.38,107.35,107.35,0,0,1,4.14-11.51,153.78,153.78,0,0,1,9.26-18c3.14-5.29,6.27-10.08,9.37-14.62,6.19-9.05,12.25-17.13,18-24.91s11.16-15.14,16-22.3A219.78,219.78,0,0,0,344.3,276a99.81,99.81,0,0,0,4.29-9.14,58.17,58.17,0,0,0,2.52-7.74,26,26,0,0,0,.82-5.61,12.39,12.39,0,0,0-.35-3.39,13.84,13.84,0,0,0-1.05-2.69,23.47,23.47,0,0,0-2.48-3.73,43.15,43.15,0,0,0-4.71-5l-.17-.17-.09-.08-.05,0a.52.52,0,0,0,.1.11,1.75,1.75,0,0,1,.19.2c.15.11.24.23.35.3s.25.22.15.2-.36-.12-.86-.24a19.11,19.11,0,0,0-2-.44,42.35,42.35,0,0,0-6.78-.58,112.9,112.9,0,0,0-20,1.68c-7.46,1.21-15.43,3-23.55,5.12s-16.45,4.66-24.85,7.38c-16.79,5.51-33.85,12-51,18.86s-34.31,14.24-51.53,21.81l-25.89,11.5-25.94,11.74-26,11.83-13,5.9-6.52,2.91-3.24,1.44c-1.06.46-2.2,1-3.14,1.35Z"/></g>
<g xmlns="http://www.w3.org/2000/svg" class="cls-4" id="stars"><g class="cls-7"><circle class="cls-6" cx="199.55" cy="197.67" r="2.28"/><circle class="cls-6" cx="430.14" cy="481.05" r="2.28"/><circle class="cls-6" cx="137.42" cy="271.57" r="2.28"/><circle class="cls-6" cx="377.07" cy="214.72" r="1.04"/><circle class="cls-6" cx="275.45" cy="227.72" r="1.04"/><circle class="cls-6" cx="102.28" cy="291.11" r="1.04"/><path class="cls-8" d="M272.33,288a1,1,0,1,1-1,1A1,1,0,0,1,272.33,288Z"/><circle class="cls-8" cx="164.4" cy="310.69" r="1.04"/><path class="cls-8" d="M35.54,245.4a1,1,0,1,1-.86-1.2A1,1,0,0,1,35.54,245.4Z"/><path class="cls-8" d="M167.93,237.72a1,1,0,1,1-.86-1.2A1,1,0,0,1,167.93,237.72Z"/><path class="cls-8" d="M225.08,191.8a1,1,0,1,1-2.06-.34,1,1,0,0,1,2.06.34Z"/><circle class="cls-6" cx="320.87" cy="335.18" r="1.04"/><circle class="cls-8" cx="309.39" cy="530.32" r="1.04"/><path class="cls-8" d="M466.19,493.38a1,1,0,1,1,1.37.53A1,1,0,0,1,466.19,493.38Z"/><circle class="cls-6" cx="501.04" cy="311.1" r="2.28"/><circle class="cls-6" cx="384.62" cy="274.59" r="1.04"/><circle class="cls-6" cx="503.31" cy="468.43" r="2.28"/><circle class="cls-6" cx="341.31" cy="574.52" r="1.04"/><circle class="cls-6" cx="536.66" cy="543" r="1.04"/><circle class="cls-6" cx="524.18" cy="512.17" r="1.04"/><circle class="cls-6" cx="466.1" cy="379.32" r="1.04"/><path class="cls-8" d="M554.51,262.78a1,1,0,1,0,1,1.05A1,1,0,0,0,554.51,262.78Z"/><path class="cls-8" d="M460.79,532.6a1,1,0,1,0,1,1A1,1,0,0,0,460.79,532.6Z"/><path class="cls-8" d="M550.27,518.17a1,1,0,1,0,1,1.05A1,1,0,0,0,550.27,518.17Z"/><circle class="cls-6" cx="401.36" cy="438.07" r="1.04"/><circle class="cls-6" cx="417.99" cy="228.76" r="1.04"/><circle class="cls-6" cx="331.82" cy="226.67" r="1.04"/><path class="cls-8" d="M406.12,450.78a1,1,0,1,0,1,1A1,1,0,0,0,406.12,450.78Z"/><path class="cls-8" d="M468.81,244.51a1,1,0,1,0,1,1.05A1,1,0,0,0,468.81,244.51Z"/><circle class="cls-8" cx="408.29" cy="197.41" r="1.04"/><path class="cls-8" d="M5.74,247.11a1,1,0,1,1-1,1A1,1,0,0,1,5.74,247.11Z"/><path class="cls-8" d="M105.58,264.51a1,1,0,1,0,1,1.05A1,1,0,0,0,105.58,264.51Z"/><path class="cls-8" d="M543.09,434.72a1,1,0,1,0,1,1A1,1,0,0,0,543.09,434.72Z"/><circle class="cls-6" cx="289.14" cy="315.6" r="2.28"/><circle class="cls-6" cx="287.98" cy="210.71" r="2.28"/><path class="cls-8" d="M223.22,246.75a1,1,0,0,0,.19,1.46,1,1,0,1,0,1.27-1.66A1,1,0,0,0,223.22,246.75Z"/><path class="cls-8" d="M300.85,183.84a1,1,0,1,0,1.47-.19A1,1,0,0,0,300.85,183.84Z"/><path class="cls-8" d="M529.79,350a1,1,0,1,0,1,1A1,1,0,0,0,529.79,350Z"/><circle class="cls-6" cx="341.03" cy="464.9" r="1.04"/></g><g class="cls-7"><circle class="cls-6" cx="412.06" cy="26.36" r="2.28"/><circle class="cls-6" cx="642.64" cy="309.74" r="2.28"/><circle class="cls-6" cx="349.92" cy="100.26" r="2.28"/><circle class="cls-6" cx="589.57" cy="43.41" r="1.04"/><circle class="cls-6" cx="487.95" cy="56.41" r="1.04"/><circle class="cls-6" cx="314.78" cy="119.81" r="1.04"/><path class="cls-8" d="M484.83,116.68a1,1,0,1,1-1,1A1,1,0,0,1,484.83,116.68Z"/><circle class="cls-8" cx="376.9" cy="139.39" r="1.04"/><path class="cls-8" d="M248,74.09a1,1,0,0,1-2.06-.34,1,1,0,0,1,2.06.34Z"/><path class="cls-8" d="M380.43,66.41a1,1,0,1,1-.85-1.2A1,1,0,0,1,380.43,66.41Z"/><path class="cls-8" d="M437.58,20.49a1,1,0,1,1-2.06-.34,1,1,0,1,1,2.06.34Z"/><circle class="cls-6" cx="533.37" cy="163.88" r="1.04"/><circle class="cls-8" cx="521.9" cy="359.02" r="1.04"/><circle class="cls-6" cx="597.12" cy="103.29" r="1.04"/><circle class="cls-6" cx="553.81" cy="403.22" r="1.04"/><path class="cls-8" d="M673.29,361.29a1,1,0,1,0,1.05,1A1,1,0,0,0,673.29,361.29Z"/><circle class="cls-6" cx="613.86" cy="266.77" r="1.04"/><circle class="cls-6" cx="630.5" cy="57.45" r="1.04"/><circle class="cls-6" cx="544.32" cy="55.37" r="1.04"/><path class="cls-8" d="M618.62,279.47a1,1,0,1,0,1,1A1,1,0,0,0,618.62,279.47Z"/><circle class="cls-8" cx="620.79" cy="26.11" r="1.04"/><path class="cls-8" d="M218.24,75.8a1,1,0,1,1-1,1A1,1,0,0,1,218.24,75.8Z"/><path class="cls-8" d="M318.08,93.21a1,1,0,1,0,1.05,1A1,1,0,0,0,318.08,93.21Z"/><circle class="cls-6" cx="501.64" cy="144.29" r="2.28"/><circle class="cls-6" cx="500.49" cy="39.4" r="2.28"/><path class="cls-8" d="M435.72,75.44a1,1,0,1,0,1.47-.19A1,1,0,0,0,435.72,75.44Z"/><path class="cls-8" d="M513.36,12.54a1,1,0,0,0,.19,1.46,1,1,0,1,0-.19-1.46Z"/><circle class="cls-6" cx="553.53" cy="293.59" r="1.04"/></g><g class="cls-7"><circle class="cls-6" cx="68.45" cy="115.04" r="2.28"/><path class="cls-8" d="M104.5,127.37a1,1,0,1,1,1.37.53A1,1,0,0,1,104.5,127.37Z"/><circle class="cls-6" cx="141.62" cy="102.43" r="2.28"/><circle class="cls-6" cx="174.97" cy="177" r="1.04"/><circle class="cls-6" cx="162.49" cy="146.17" r="1.04"/><circle class="cls-6" cx="104.41" cy="13.31" r="1.04"/><path class="cls-8" d="M99.1,166.59a1,1,0,1,0,1,1A1,1,0,0,0,99.1,166.59Z"/><path class="cls-8" d="M188.58,152.17a1,1,0,1,0,1,1A1,1,0,0,0,188.58,152.17Z"/><circle class="cls-6" cx="39.67" cy="72.07" r="1.04"/><path class="cls-8" d="M44.43,84.77a1,1,0,1,0,1,1A1,1,0,0,0,44.43,84.77Z"/><path class="cls-8" d="M181.4,68.71a1,1,0,1,0,1,1A1,1,0,0,0,181.4,68.71Z"/></g><g class="cls-7"><circle class="cls-6" cx="657.35" cy="416.74" r="2.28"/><circle class="cls-6" cx="622.2" cy="436.29" r="1.04"/><path class="cls-8" d="M555.47,390.58a1,1,0,0,1-2.06-.34,1,1,0,0,1,1.2-.86A1.05,1.05,0,0,1,555.47,390.58Z"/><path class="cls-8" d="M525.66,392.29a1,1,0,1,1-1,1A1,1,0,0,1,525.66,392.29Z"/><path class="cls-8" d="M625.51,409.69a1,1,0,1,0,1,1.05A1,1,0,0,0,625.51,409.69Z"/></g></g><g xmlns="http://www.w3.org/2000/svg" class="cls-26"><path class="cls-27" d="M-519.88-175.28c-179.72,150.29-164,277.46-70,410.47s277.63,164.89,410.26,71.21,324.49-455.78,70-410.47S-340.16-325.56-519.88-175.28Z"/></g></g></svg>
