<svg xmlns="http://www.w3.org/2000/svg" width="23" height="24"><g fill="none" fill-rule="evenodd"><path d="M-16-16h55v55h-55z"/><g stroke="#B1BDC5" stroke-linecap="round" stroke-linejoin="round" stroke-width=".87"><path d="M18.935 9.4351c1.936 0 3.5-1.567 3.5-3.5 0-1.932-1.564-3.5-3.5-3.5-1.934 0-3.5 1.568-3.5 3.5 0 1.933 1.566 3.5 3.5 3.5zM18.5629 9.4351c-.396.566-.628 1.257-.628 2 0 .743.232 1.433.627 2"/><path d="M18.935 20.4351c1.936 0 3.5-1.567 3.5-3.5 0-1.932-1.564-3.5-3.5-3.5-1.934 0-3.5 1.568-3.5 3.5 0 1.933 1.566 3.5 3.5 3.5zM11.4398 23.4254c-6-8-6-16.479 0-22.979M1.935 17.4351h10.499M1.7211 6.4351h10.713M.4984 11.4351h11.936"/><path d="M12.435.4596c-.165-.007-.328-.024-.495-.024C5.573.4356.435 5.3096.435 11.6846c0 6.377 5.1 11.751 11.468 11.751.179 0 .354-.019.532-.027V.4596z"/></g></g></svg>