<?xml version="1.0" encoding="UTF-8"?>
<svg width="23px" height="24px" viewBox="0 0 23 24" version="1.1" xmlns="http://www.w3.org/2000/svg" xmlns:xlink="http://www.w3.org/1999/xlink">
    <!-- Generator: Sketch 55 (78076) - https://sketchapp.com -->
    <title>Group 5</title>
    <desc>Created with Sketch.</desc>
    <g id="symbol" stroke="none" stroke-width="1" fill="none" fill-rule="evenodd">
        <g id="Group-5" transform="translate(-16.000000, -16.000000)">
            <rect id="Rectangle" x="0" y="0" width="55" height="55"></rect>
            <g id="Group-17" transform="translate(16.000000, 16.000000)" stroke="#B1BDC5" stroke-linecap="round" stroke-linejoin="round" stroke-width="0.87">
                <path d="M18.935,9.4351 C20.871,9.4351 22.435,7.8681 22.435,5.9351 C22.435,4.0031 20.871,2.4351 18.935,2.4351 C17.001,2.4351 15.435,4.0031 15.435,5.9351 C15.435,7.8681 17.001,9.4351 18.935,9.4351 Z" id="Stroke-1"></path>
                <path d="M18.5629,9.4351 C18.1669,10.0011 17.9349,10.6921 17.9349,11.4351 C17.9349,12.1781 18.1669,12.8681 18.5619,13.4351" id="Stroke-3"></path>
                <path d="M18.935,20.4351 C20.871,20.4351 22.435,18.8681 22.435,16.9351 C22.435,15.0031 20.871,13.4351 18.935,13.4351 C17.001,13.4351 15.435,15.0031 15.435,16.9351 C15.435,18.8681 17.001,20.4351 18.935,20.4351 Z" id="Stroke-5"></path>
                <path d="M11.4398,23.4254 C5.4398,15.4254 5.4398,6.9464 11.4398,0.4464" id="Stroke-7"></path>
                <path d="M1.935,17.4351 L12.434,17.4351" id="Stroke-9"></path>
                <path d="M1.7211,6.4351 L12.4341,6.4351" id="Stroke-11"></path>
                <path d="M0.4984,11.4351 L12.4344,11.4351" id="Stroke-13"></path>
                <path d="M12.435,0.4596 C12.27,0.4526 12.107,0.4356 11.94,0.4356 C5.573,0.4356 0.435,5.3096 0.435,11.6846 C0.435,18.0616 5.535,23.4356 11.903,23.4356 C12.082,23.4356 12.257,23.4166 12.435,23.4086 L12.435,0.4596 Z" id="Stroke-15"></path>
            </g>
        </g>
    </g>
</svg>