<?xml version="1.0" encoding="UTF-8"?>
<svg width="152px" height="152px" viewBox="0 0 152 152" version="1.1" xmlns="http://www.w3.org/2000/svg" xmlns:xlink="http://www.w3.org/1999/xlink">
    <!-- Generator: sketchtool 56.2 (101010) - https://sketch.com -->
    <title>509BC4FE-2569-43D3-987D-D0E485E6CC7B</title>
    <desc>Created with sketchtool.</desc>
    <defs>
        <circle id="path-1" cx="67" cy="67" r="67"></circle>
        <filter x="-10.8%" y="-9.3%" width="121.6%" height="121.6%" filterUnits="objectBoundingBox" id="filter-2">
            <feMorphology radius="0.5" operator="dilate" in="SourceAlpha" result="shadowSpreadOuter1"></feMorphology>
            <feOffset dx="0" dy="2" in="shadowSpreadOuter1" result="shadowOffsetOuter1"></feOffset>
            <feGaussianBlur stdDeviation="4" in="shadowOffsetOuter1" result="shadowBlurOuter1"></feGaussianBlur>
            <feColorMatrix values="0 0 0 0 0   0 0 0 0 0   0 0 0 0 0  0 0 0 0.1 0" type="matrix" in="shadowBlurOuter1"></feColorMatrix>
        </filter>
        <polygon id="path-3" points="1.63854664e-05 0.0849560942 71.6853752 0.0849560942 71.6853752 24.534 1.63854664e-05 24.534"></polygon>
    </defs>
    <g id="career_pahe" stroke="none" stroke-width="1" fill="none" fill-rule="evenodd">
        <g id="about_us_glassesusa_h1" transform="translate(-101.000000, -1307.000000)">
            <g id="logo" transform="translate(110.000000, 1109.000000)">
                <g id="amelis-e" transform="translate(0.000000, 205.000000)">
                    <g>
                        <g id="Oval">
                            <use fill="black" fill-opacity="1" filter="url(#filter-2)" xlink:href="#path-1"></use>
                            <use fill="#FFFFFF" fill-rule="evenodd" xlink:href="#path-1"></use>
                        </g>
                        <g id="Group-8" transform="translate(20.000000, 54.000000)">
                            <g id="Group-3" transform="translate(0.000000, 0.197033)">
                                <mask id="mask-4" fill="white">
                                    <use xlink:href="#path-3"></use>
                                </mask>
                                <g id="Clip-2"></g>
                                <path d="M70.9768902,17.303379 C70.9861962,17.020251 70.8076902,16.763913 70.5366882,16.675365 C70.2685062,16.586817 69.9718422,16.687491 69.8122302,16.923807 C69.6297762,17.191989 69.0406782,17.963541 68.5147482,18.297711 C67.0390422,19.219287 65.8636662,19.566711 65.2866942,19.247487 C64.8532602,19.006095 64.7647122,18.374133 64.7486382,18.049551 C66.0793962,15.085449 67.1462022,14.539497 67.6667742,14.483097 C68.2022922,14.426697 68.7575502,14.791605 69.3291642,15.572463 C69.5372802,15.857001 69.9357462,15.918759 70.2200022,15.710925 C70.5045402,15.502809 70.5662982,15.104343 70.3584642,14.819805 C69.2877102,13.355943 68.2316202,13.138521 67.5285942,13.214943 C66.0847542,13.372017 64.7754282,14.825163 63.5250402,17.658981 C63.0473322,18.741861 61.5685242,19.811205 60.4509582,19.513131 C59.8539642,19.353519 59.4151722,18.764703 59.1520662,18.298839 C58.3940502,16.955955 58.1808582,15.042585 58.4529882,14.092527 L58.4558082,14.087169 C58.5536622,13.749051 58.3590822,13.394859 58.0212462,13.297005 C57.6842562,13.199151 57.3300642,13.392321 57.2308002,13.730439 C57.0522942,14.347737 56.9504922,15.000849 56.8537662,15.631683 C56.6484702,16.958493 56.4553002,18.211701 55.5887142,19.074339 C54.5165502,20.139735 52.9319922,19.837995 51.9134082,19.107897 C51.4399302,18.768651 50.9918322,18.290943 50.5798302,17.724687 C51.7041642,15.371397 52.7266962,11.482899 51.8412162,8.979303 C51.0079062,6.629961 49.7789502,6.444687 48.8974182,6.703845 C46.4338662,7.422945 46.9369542,11.570037 47.0026602,12.039849 C47.2578702,13.871157 48.0009402,16.066245 49.0973562,17.815773 L49.0770522,17.852151 C48.5564802,18.756525 47.3193462,19.960101 46.2139062,19.340265 C45.7697562,19.091823 45.4369962,18.694767 45.1016982,18.015711 C45.0035622,17.818593 44.8118022,17.685771 44.5943802,17.664339 C44.3744202,17.640087 44.1609462,17.732583 44.0269962,17.907141 C43.3654242,18.757935 42.4314402,19.278507 41.3970642,19.373541 C40.4726682,19.460961 39.5615262,19.204623 38.7820782,18.651903 C39.0584382,18.532335 39.3362082,18.425175 39.6218742,18.336627 C40.8161442,17.967489 43.3022562,17.197347 43.1319282,15.135363 C43.0822962,14.532729 42.7816842,14.013285 42.2611122,13.632303 C41.5727502,13.126395 40.5276582,12.919971 39.6593802,13.115679 C38.1836742,13.449849 36.9451302,14.637351 36.5776842,16.070193 C36.3816942,16.831029 36.4474002,17.575791 36.7519602,18.230595 L36.6808962,18.268101 C36.3924102,18.419535 36.1053342,18.570123 35.8143102,18.713379 C35.6690802,18.786135 35.4933942,18.891885 35.3002242,19.008633 C35.0438862,19.165707 34.3597542,19.578837 34.1773002,19.545561 C34.0645002,19.422045 34.0430682,18.948285 34.1141322,18.137817 C34.1262582,17.994279 34.1369742,17.868225 34.1409222,17.766423 L34.1519202,17.546181 C34.2012702,16.584279 34.2779742,15.129723 33.4178742,14.422749 C33.1279782,14.183895 32.6113542,13.941093 31.7958102,14.146389 C30.8014782,14.394549 29.8110942,15.773811 28.7648742,17.234853 C28.2093342,18.010353 27.3049602,19.271739 26.8647582,19.512003 C26.7065562,19.141737 26.6969682,17.974257 26.6930202,17.255157 C26.6808942,15.655653 26.6701782,14.144979 25.8946782,13.525143 C25.6840242,13.355943 25.3230642,13.177719 24.8024922,13.291647 C23.8769682,13.492995 23.2058082,14.666961 22.1875062,16.563975 C21.6147642,17.632191 20.4244422,19.858017 19.8810282,19.650183 C19.4396982,19.424583 19.4490042,16.969209 19.4518242,16.046223 C19.4571822,14.830521 19.4504142,14.122137 19.2761382,13.680807 C19.1754642,13.425879 18.9741162,13.239195 18.7098822,13.153467 C18.1075302,12.960297 17.2150002,13.311669 15.5218722,14.403855 C15.4522182,14.449539 15.3983562,14.484507 15.3676182,14.503119 C14.8577622,14.810499 14.4122022,15.050763 13.9787682,15.218271 C13.8944502,14.280339 13.8594822,13.306311 13.8727362,12.294777 C13.9037562,10.030035 14.2311582,7.732863 14.5475622,5.510985 C14.7692142,3.963933 14.9959422,2.365839 15.1259442,0.774513 C15.1516062,0.471363 14.9584362,0.192183 14.6645922,0.109275 C14.3718762,0.025803 14.0619582,0.162855 13.9223682,0.433857 C13.1604042,1.931277 12.4116942,3.466203 11.6872362,4.951497 C10.5761562,7.231185 9.4264422,9.587013 8.2053822,11.847807 C7.9718862,12.278703 7.7412102,12.768255 7.4969982,13.287699 C7.3599462,13.580133 7.2178182,13.883283 7.0675122,14.187843 C5.4400902,13.741155 3.6609522,13.390911 1.9314462,14.086041 C0.1215702,14.813037 -0.1911678,16.240521 0.0905502,17.241621 C0.4354362,18.470859 1.8214662,19.605909 3.7119942,19.290351 C5.5918062,18.975075 6.7990482,17.400105 7.7251362,15.699927 C7.9490442,15.763095 8.1704142,15.826263 8.3906562,15.883791 C8.6923962,15.965571 8.9901882,16.052991 9.2882622,16.138719 C10.1145222,16.380393 10.9692642,16.629963 11.8911222,16.733175 C12.2399562,16.772091 12.5684862,16.778859 12.8786862,16.758555 C13.3025322,19.616625 14.1961902,22.121349 15.5540202,24.240297 C15.6747162,24.430647 15.8800122,24.534141 16.0906662,24.534141 C16.2088242,24.534141 16.3281102,24.501711 16.4341422,24.433467 C16.7308062,24.244245 16.8165342,23.849727 16.6273122,23.553063 C15.3594402,21.574269 14.5247202,19.218159 14.1316122,16.517163 C14.8146162,16.297203 15.4237362,15.957675 16.0249602,15.595305 C16.0624662,15.572463 16.1270442,15.531009 16.2127722,15.476019 C17.3089062,14.768763 17.8669842,14.513835 18.1408062,14.424159 C18.1825422,14.822625 18.1797222,15.506757 18.1771842,16.040865 C18.1704162,18.167427 18.1608282,20.366463 19.4315202,20.842761 C21.0203082,21.439755 22.1849682,19.267791 23.3118402,17.166609 C23.8191582,16.219371 24.6696702,14.631993 25.0734942,14.536677 L25.1098722,14.530191 C25.4008962,14.799783 25.4116122,16.460763 25.4169702,17.264463 C25.4290962,18.869325 25.4612442,19.879449 25.9524882,20.431041 C26.1924702,20.700633 26.5119762,20.838813 26.8540422,20.820201 C27.7530582,20.771697 28.5592962,19.709121 29.8003782,17.978487 C30.5451402,16.939599 31.5648522,15.517473 32.1043182,15.382113 C32.2706982,15.341787 32.4934782,15.312177 32.6074062,15.406083 C32.9711862,15.705285 32.9066082,16.949187 32.8784082,17.480475 L32.8676922,17.713971 C32.8637442,17.798571 32.8541562,17.905731 32.8434402,18.026427 C32.7670182,18.900063 32.6395542,20.359695 33.7410462,20.738421 C34.4911662,20.993067 35.3069922,20.496747 35.9643342,20.096871 C36.1199982,20.002965 36.2609982,19.915827 36.3788742,19.856607 C36.6794862,19.709121 36.9761502,19.553457 37.2725322,19.396383 C37.3557222,19.353519 37.4375022,19.310655 37.5192822,19.267791 L37.5677862,19.312065 C38.6839422,20.302167 40.0849182,20.774517 41.5152222,20.644233 C42.6031782,20.543559 43.6054062,20.095461 44.4119262,19.361697 C44.6936442,19.764111 45.0692682,20.159757 45.5901222,20.452473 C47.1357642,21.317649 48.8745762,20.361105 49.8971082,18.930801 C50.2913442,19.405971 50.7166002,19.819101 51.1703382,20.143683 C52.9319922,21.407889 55.1174922,21.339363 56.4860382,19.978713 C57.0565242,19.412457 57.4039482,18.759063 57.6360342,18.067035 C57.7553202,18.367365 57.8895522,18.655851 58.0412682,18.924315 C58.5914502,19.898343 59.3105502,20.528895 60.1221462,20.744907 C61.4249862,21.092613 62.8473942,20.438937 63.8081682,19.448835 C64.0120542,19.844763 64.3016682,20.158629 64.6693962,20.362515 C65.7212562,20.944845 67.1997822,20.622801 69.1949322,19.376361 C69.4202502,19.232823 69.6390822,19.050369 69.8390202,18.859737 C69.9557682,19.439529 70.1717802,20.063313 70.5609402,20.524947 C70.6869942,20.673843 70.8680382,20.750265 71.0479542,20.750265 C71.1943122,20.750265 71.3403882,20.700633 71.4599562,20.599959 C71.7284202,20.371821 71.7616962,19.970817 71.5349682,19.702353 C71.0304702,19.105359 70.9608162,17.768961 70.9768902,17.303379 M3.5013402,18.033195 C2.3459862,18.227775 1.5126762,17.591865 1.3169682,16.897017 C1.1291562,16.227549 1.5355182,15.618147 2.4063342,15.267903 C2.9418522,15.053301 3.4971102,14.967291 4.0619562,14.967291 C4.8481722,14.967291 5.6575122,15.133953 6.4612122,15.344607 C5.7043242,16.671417 4.7692122,17.821413 3.5013402,18.033195 M13.2864582,5.331069 C12.9630042,7.593273 12.6305262,9.931899 12.5980962,12.277293 C12.5834322,13.389501 12.6251682,14.461665 12.7244322,15.492093 C12.5056002,15.501399 12.2760522,15.493503 12.0332502,15.466431 C11.2202442,15.375345 10.4554602,15.151437 9.6449922,14.915121 C9.3390222,14.825163 9.0305142,14.735487 8.7180582,14.652297 C8.5838262,14.617329 8.4495942,14.579541 8.3142342,14.542035 C8.4295722,14.300643 8.5406802,14.063199 8.6506602,13.831113 C8.8869762,13.327743 9.1111662,12.854265 9.3268962,12.454389 C10.5600822,10.170753 11.7165642,7.801389 12.8330022,5.509575 C13.0315302,5.101521 13.2328782,4.691211 13.4353542,4.276671 C13.3857222,4.630863 13.3360902,4.982235 13.2864582,5.331069 M37.8119982,16.388289 C38.0643882,15.404955 38.9188482,14.590257 39.9399702,14.359581 C40.0674342,14.330253 40.2056142,14.316717 40.3437942,14.316717 C40.7651022,14.316717 41.2106622,14.441361 41.5070442,14.660193 C41.7270042,14.821215 41.8426242,15.010437 41.8612362,15.239985 C41.9483742,16.282257 40.1895402,16.827081 39.2451222,17.119515 C38.7753102,17.264463 38.3272122,17.450865 37.8923682,17.655033 C37.6791762,17.161251 37.7355762,16.683543 37.8119982,16.388289 M49.7668242,16.405773 C49.0045782,14.964753 48.4611642,13.278111 48.2654562,11.863881 C48.0762342,10.508871 48.1780362,8.241309 49.2541482,7.927443 C49.3051902,7.912779 49.3762542,7.891347 49.4622642,7.891347 C49.7400342,7.891347 50.1774162,8.104539 50.6387682,9.404559 C51.2842662,11.228253 50.6387682,14.244243 49.7668242,16.405773" id="Fill-1" fill="#4A4A4A" mask="url(#mask-4)"></path>
                            </g>
                            <path d="M90.4549968,17.455941 C88.9804188,18.678129 87.5343228,19.451091 85.7698488,19.962357 C81.9777948,21.031701 79.5802308,19.424301 78.8825628,17.356677 C78.1566948,15.205863 79.1467968,12.192411 83.0364228,10.656075 C83.2888128,10.556811 83.4512448,10.308651 83.4419388,10.037367 C83.4312228,9.765237 83.2513068,9.529203 82.9910208,9.448551 C81.7135608,9.050085 80.7945228,7.975383 80.5945848,6.644343 C80.3853408,5.254083 81.0012288,3.919377 82.2380808,3.072531 C83.4740868,2.227377 85.6260288,2.329179 86.5022028,3.273879 C87.3972708,4.237191 86.4793608,5.694285 85.8544488,6.477963 C85.6327968,6.754323 85.6773528,7.157019 85.9534308,7.378107 C86.2300728,7.599759 86.6336148,7.554075 86.8549848,7.277433 C88.9914168,4.606329 87.9781908,2.977497 87.4426728,2.401653 C86.1212208,0.978117 83.2967088,0.794535 81.5150328,2.013903 C79.8622308,3.146415 79.0435848,4.946985 79.3267128,6.834693 C79.5280608,8.168553 80.2550568,9.313191 81.3179148,10.045545 C77.6964708,12.017853 76.8420108,15.319791 77.6682708,17.767269 C78.3540948,19.797387 80.3946468,21.580473 83.5008768,21.580473 C84.3042948,21.580473 85.1807508,21.461187 86.1226308,21.195261 C88.0681488,20.631825 89.6566548,19.782441 91.2733608,18.442095 C91.5457728,18.216777 91.5835608,17.812953 91.3579608,17.540541 C91.1323608,17.268129 90.7288188,17.230623 90.4549968,17.455941" id="Fill-4" fill="#4A4A4A"></path>
                            <path d="M93.867084,18.8232744 C92.497128,18.8232744 92.497128,20.9487084 93.867084,20.9487084 C95.236758,20.9487084 95.236758,18.8232744 93.867084,18.8232744" id="Fill-6" fill="#4A4A4A"></path>
                        </g>
                    </g>
                </g>
            </g>
        </g>
    </g>
</svg>