<?xml version="1.0" encoding="UTF-8"?>
<svg width="24px" height="18px" viewBox="0 0 24 18" version="1.1" xmlns="http://www.w3.org/2000/svg" xmlns:xlink="http://www.w3.org/1999/xlink">
    <!-- Generator: Sketch 55 (78076) - https://sketchapp.com -->
    <title>Group</title>
    <desc>Created with Sketch.</desc>
    <g id="symbol" stroke="none" stroke-width="1" fill="none" fill-rule="evenodd">
        <g id="Group" transform="translate(-15.000000, -18.000000)">
            <rect id="Rectangle-Copy-4" x="0" y="0" width="55" height="55"></rect>
            <g id="Group-9" transform="translate(16.000000, 19.000000)">
                <path d="M3.22092,2.02776 C2.81842,2.02776 2.49182,2.34849333 2.49182,2.74629333 C2.49182,3.14296 2.81842,3.46482667 3.22092,3.46482667 C3.62457,3.46482667 3.95002,3.14296 3.95002,2.74629333 C3.95002,2.34849333 3.62457,2.02776 3.22092,2.02776" id="Fill-1" fill="#B1BDC5"></path>
                <path d="M0.49979,5.02599333 L22.34979,5.02599333" id="Stroke-3" stroke="#B1BDC5" stroke-width="1.00919997" stroke-linecap="round" stroke-linejoin="round"></path>
                <path d="M16.595305,16.07826 L16.595305,5.33652667" id="Stroke-5" stroke="#B1BDC5" stroke-width="1.00919997" stroke-linecap="round" stroke-linejoin="round"></path>
                <path d="M22.34979,14.09266 C22.34979,15.34386 21.32054,16.3593267 20.04979,16.3593267 L2.79979,16.3593267 C1.53019,16.3593267 0.49979,15.34386 0.49979,14.09266 L0.49979,2.75932667 C0.49979,1.50812667 1.53019,0.49266 2.79979,0.49266 L20.04979,0.49266 C21.32054,0.49266 22.34979,1.50812667 22.34979,2.75932667 L22.34979,14.09266 Z" id="Stroke-7" stroke="#B1BDC5" stroke-width="1.00919997" stroke-linecap="round" stroke-linejoin="round"></path>
            </g>
        </g>
    </g>
</svg>