<svg id="Layer_1" data-name="Layer 1" xmlns="http://www.w3.org/2000/svg" xmlns:xlink="http://www.w3.org/1999/xlink" viewBox="0 0 25 21"><defs><style>.cls-1{fill:#fff;fill-rule:evenodd;}.cls-2,.cls-4{fill:none;}.cls-3{mask:url(#mask);}.cls-4{stroke:#b1bdc5;stroke-linecap:round;stroke-linejoin:round;stroke-width:0.87px;}.cls-5{mask:url(#mask-4);}</style><mask id="mask" x="1" y="0" width="23.87" height="20.87" maskUnits="userSpaceOnUse"><g id="mask-2"><polygon id="path-1" class="cls-1" points="1 20.87 24.87 20.87 24.87 0 1 0 1 20.87"/></g></mask><mask id="mask-4" x="1" y="0" width="23.87" height="20.87" maskUnits="userSpaceOnUse"><g id="mask-2-5" data-name="mask-2"><polygon id="path-1-4" data-name="path-1" class="cls-1" points="1 20.87 24.87 20.87 24.87 0 1 0 1 20.87"/></g></mask></defs><title>Artboard 1</title><g id="symbol"><g id="Group-3"><rect id="Rectangle-Copy-2" class="cls-2" x="-15" y="-17" width="55" height="55"/><g id="careers-icon"><g class="cls-3"><polygon id="Stroke-3" class="cls-4" points="10.44 15.44 15.44 15.44 15.44 12.44 10.44 12.44 10.44 15.44"/></g><g class="cls-3"><path id="Stroke-5" class="cls-4" d="M17.43,4.44h-9v-1a3,3,0,0,1,3-3h3a3,3,0,0,1,3,3Z"/></g><g class="cls-3"><path id="Stroke-6" class="cls-4" d="M22.29,14.44h2.14v-8a2,2,0,0,0-2-2h-19a2,2,0,0,0-2,2v8h9"/></g><g class="cls-5"><path id="Stroke-6-2" data-name="Stroke-6" class="cls-4" d="M2.43,14.44v6h21v-6h-8"/></g></g></g></g></svg>