<?xml version="1.0" encoding="UTF-8"?>
<svg width="25px" height="21px" viewBox="0 0 25 21" version="1.1" xmlns="http://www.w3.org/2000/svg" xmlns:xlink="http://www.w3.org/1999/xlink">
    <!-- Generator: Sketch 55 (78076) - https://sketchapp.com -->
    <title>Group 3</title>
    <desc>Created with Sketch.</desc>
    <defs>
        <polygon id="path-1" points="0 20.8696 23.87 20.8696 23.87 -0.0004 0 -0.0004"></polygon>
    </defs>
    <g id="symbol" stroke="none" stroke-width="1" fill="none" fill-rule="evenodd">
        <g id="Group-3" transform="translate(-15.000000, -17.000000)">
            <rect id="Rectangle-Copy-2" x="0" y="0" width="55" height="55"></rect>
            <g id="careers-icon" transform="translate(16.000000, 17.000000)">
                <path d="M1.4348,14.4351 L1.4348,20.4351 L22.4348,20.4351 L22.4348,14.4351 L23.4348,14.4351 L23.4348,6.4351 C23.4348,5.3311 22.5388,4.4351 21.4348,4.4351 L2.4348,4.4351 C1.3308,4.4351 0.4348,5.3311 0.4348,6.4351 L0.4348,14.4351 L1.4348,14.4351 Z" id="Stroke-1" stroke="#B1BDC5" stroke-width="0.87" stroke-linecap="round" stroke-linejoin="round"></path>
                <mask id="mask-2" fill="white">
                    <use xlink:href="#path-1"></use>
                </mask>
                <g id="Clip-4"></g>
                <polygon id="Stroke-3" stroke="#B1BDC5" stroke-width="0.87" stroke-linecap="round" stroke-linejoin="round" mask="url(#mask-2)" points="9.435 15.4356 14.435 15.4356 14.435 12.4356 9.435 12.4356"></polygon>
                <path d="M16.4348,4.4351 L7.4348,4.4351 L7.4348,3.4351 C7.4348,1.7791 8.7788,0.4351 10.4348,0.4351 L13.4348,0.4351 C15.0918,0.4351 16.4348,1.7791 16.4348,3.4351 L16.4348,4.4351 Z" id="Stroke-5" stroke="#B1BDC5" stroke-width="0.87" stroke-linecap="round" stroke-linejoin="round" mask="url(#mask-2)"></path>
                <path d="M1.4348,14.4351 L9.4348,14.4351" id="Stroke-6" stroke="#B1BDC5" stroke-width="0.87" stroke-linecap="round" stroke-linejoin="round" mask="url(#mask-2)"></path>
                <path d="M14.4348,14.4351 L22.4348,14.4351" id="Stroke-7" stroke="#B1BDC5" stroke-width="0.87" stroke-linecap="round" stroke-linejoin="round" mask="url(#mask-2)"></path>
            </g>
        </g>
    </g>
</svg>