<?xml version="1.0" encoding="UTF-8"?>
<svg width="42px" height="64px" viewBox="0 0 42 64" version="1.1" xmlns="http://www.w3.org/2000/svg" xmlns:xlink="http://www.w3.org/1999/xlink">
    <g id="desktop-" stroke="none" stroke-width="1" fill="none" fill-rule="evenodd">
        <g id="main_pagez" transform="translate(-284.000000, -3768.000000)">
            <g id="benefits-&amp;-perks-comp" transform="translate(252.000000, 3563.000000)">
                <g id="get-comfottablr-card-1" transform="translate(28.000000, 206.000000)">
                    <g id="get-comfottablr-icon" transform="translate(5.000000, 0.000000)">
                        <path d="M25.7817485,23.7180057 C25.7817485,26.9485057 23.1666587,29.5673503 19.9407904,29.5673503 C16.7149222,29.5673503 14.0995928,26.9485057 14.0995928,23.7180057 C14.0995928,20.4875057 16.7149222,17.8686611 19.9407904,17.8686611 C23.1666587,17.8686611 25.7817485,20.4875057 25.7817485,23.7180057 Z" id="Stroke-1" stroke="#008BFF" stroke-width="0.964128014"></path>
                        <path d="M27.1450778,11.6094115 C24.8289102,12.561675 22.3259162,13.0821818 19.7175329,13.0821818 C17.2792096,13.0821818 14.9342994,12.6288372 12.7474731,11.7917088 L12.6756168,11.762925 C15.2887904,5.02032365 18.2396886,0.302181757 19.9426826,0.242215541 C21.6313054,0.304580405 24.5510659,4.95076284 27.1450778,11.6094115" id="Fill-3" fill="#CBE2EC"></path>
                        <path d="M19.9427305,0.2422875 C21.6313533,0.304652365 24.5511138,4.9508348 27.1451257,11.6094834 C30.0121916,18.9613416 32.4864431,28.7670172 32.4864431,37.5700578 C32.4864431,54.3653956 31.502012,57.8434361 19.9762635,57.857828" id="Stroke-5" stroke="#008BFF" stroke-width="0.964128014"></path>
                        <path d="M19.9427305,0.2422875 C19.9547066,0.239888851 19.9642874,0.239888851 19.9762635,0.239888851 L19.9068024,0.239888851 C19.9187784,0.239888851 19.9307545,0.239888851 19.9427305,0.2422875 Z" id="Stroke-7" stroke="#008BFF" stroke-width="0.964128014"></path>
                        <path d="M19.9761677,57.8577561 L19.9426347,57.8577561 L19.9067066,57.8577561 C8.37856287,57.8433642 7.39413174,54.3653236 7.39413174,37.5699858 C7.39413174,28.8293101 9.8348503,19.0955939 12.6755689,11.762925 C15.2887425,5.02032365 18.2396407,0.302181757 19.9426347,0.242215541" id="Stroke-9" stroke="#008BFF" stroke-width="0.964128014"></path>
                        <path d="M27.1953533,11.5878476 C27.1785868,11.5950436 27.1618204,11.6022395 27.1450539,11.6094355 C24.8288862,12.561699 22.3258922,13.0822057 19.717509,13.0822057 C17.2791856,13.0822057 14.9342754,12.6288611 12.7474491,11.7917328" id="Stroke-11" stroke="#008BFF" stroke-width="0.964128014"></path>
                        <path d="M29.6049581,55.3034591 L29.6049581,61.1465672 C29.6049581,61.5296314 29.295018,61.8397767 28.912503,61.8397767 L10.9687904,61.8397767 C10.586515,61.8397767 10.2763353,61.5296314 10.2763353,61.1465672 L10.2763353,55.3034591" id="Stroke-13" stroke="#008BFF" stroke-width="0.964128014"></path>
                        <g id="Group-18" transform="translate(10.059880, 55.125983)">
                            <path d="M9.91592814,2.73143716 C5.13341317,2.73143716 2.15568862,2.14256892 0.30754491,0.268744595 L0.216526946,0.177595946 L0.216526946,6.02070405 C0.216526946,6.40352838 0.526467066,6.71391351 0.908982036,6.71391351 L18.8526946,6.71391351 C19.2352096,6.71391351 19.5451497,6.40352838 19.5451497,6.02070405 L19.5451497,0.177595946 L19.5437126,0.176156757 C17.702515,2.12313986 14.7063473,2.73143716 9.8457485,2.73143716" id="Fill-15" fill="#BFDEEE"></path>
                            <path d="M9.91592814,2.73143716 C5.13341317,2.73143716 2.15568862,2.14256892 0.30754491,0.268744595 L0.216526946,0.177595946 L0.216526946,6.02070405 C0.216526946,6.40352838 0.526467066,6.71391351 0.908982036,6.71391351 L18.8526946,6.71391351 C19.2352096,6.71391351 19.5451497,6.40352838 19.5451497,6.02070405 L19.5451497,0.177595946 L19.5437126,0.176156757 C17.702515,2.12313986 14.7063473,2.73143716 9.8457485,2.73143716" id="Stroke-17" stroke="#008BFF" stroke-width="0.964128014"></path>
                        </g>
                        <path d="M32.3366467,39.1097743 L35.8099401,41.2057135 C38.8559281,42.9142709 40.3950898,46.4165378 39.5835928,49.7938351 L36.6341317,62.0686797 C36.6300599,62.0864297 36.6046707,62.0866696 36.6005988,62.0689196 C36.4135329,61.2593757 34.6118563,53.8600243 31.1958084,53.2951426" id="Stroke-19" stroke="#008BFF" stroke-width="0.964128014"></path>
                        <path d="M7.44378443,39.2549885 L3.98821557,41.2058095 C0.942227545,42.914127 -0.596694611,46.4166338 0.214562874,49.7939311 L3.16378443,62.0685358 C3.16809581,62.0862858 3.19348503,62.0867655 3.19755689,62.0690155 C3.38486228,61.2592318 5.42582036,53.8598804 8.84186826,53.2949986" id="Stroke-21" stroke="#008BFF" stroke-width="0.964128014"></path>
                    </g>
                </g>
            </g>
        </g>
    </g>
</svg>