<svg xmlns="http://www.w3.org/2000/svg" width="36" height="37"><g fill="none" fill-rule="evenodd"><path d="M-2.5-1.75h40.9897507v40.9897507H-2.5z"/><path fill="#3A4850" d="M19.2134276 36.5952506H2.11490737C1.02636257 36.5952506.1445 35.7128408.1445 34.62472V2.86489208C.1445 1.77649426 1.0265011.8945 2.11490737.8945H33.8749817c1.0881293 0 1.9702689.88199426 1.9702689 1.97039208V34.62472c0 1.0882593-.8822782 1.9705306-1.9702689 1.9705306h-9.0974805V22.7699525h4.6405144l.6948512-5.387964h-5.3353656v-3.4398746c0-1.5599399.4331738-2.6229875 2.670107-2.6229875l2.8531011-.0012468V6.49884142c-.493433-.06566126-2.1870635-.21236017-4.1574709-.21236017-4.1135578 0-6.9298108 2.51092005-6.9298108 7.12203095v3.9734763h-4.6524277v5.387964h4.6524277v13.8252981z"/></g></svg>