<svg xmlns="http://www.w3.org/2000/svg" width="24" height="24"><g fill="none" fill-rule="evenodd"><path fill="#E8E8E8" d="M-979-18H461v58H-979z"/><path d="M-1-1h26.6600004v26.6600004H-1z"/><path fill="#B1BDC5" d="M13.1225546 23.9400004H2.00156577C1.29356916 23.9400004.72 23.3660753.72 22.6583545V2.00155582C.72 1.2936548 1.29365926.72 2.00156577.72H22.6585247c.7077263 0 1.2814757.5736548 1.2814757 1.28155582V22.6583545c0 .7078109-.5738395 1.2816459-1.2814757 1.2816459h-5.9170605v-8.9920638h3.0182207l.4519358-3.5043669h-3.4701565V9.20625292c0-1.01459506.281739-1.70600812 1.736655-1.70600812l1.8556755-.00081089v-3.1343338c-.3209321-.04270651-1.4224804-.13812043-2.7040461-.13812043-2.6754848 0-4.507194 1.63311873-4.507194 4.63221524v2.58437478h-3.02596928v3.5043669h3.02596928v8.9920638z"/></g></svg>
