<?xml version="1.0" encoding="UTF-8"?>
<svg width="34px" height="77px" viewBox="0 0 34 77" version="1.1" xmlns="http://www.w3.org/2000/svg" xmlns:xlink="http://www.w3.org/1999/xlink">
    <g id="desktop-" stroke="none" stroke-width="1" fill="none" fill-rule="evenodd">
        <g id="main_pagez" transform="translate(-920.000000, -3755.000000)">
            <g id="benefits-&amp;-perks-comp" transform="translate(252.000000, 3563.000000)">
                <g id="food-&amp;-drinks-card-3" transform="translate(667.000000, 193.000000)">
                    <g id="food-&amp;-drinks-icon" transform="translate(2.000000, 0.000000)">
                        <path d="M30.6987034,38.122062 L1.07387586,38.122062 C0.861737931,38.122062 0.684082759,37.9887591 0.662013793,37.8133029 L0.00242758621,32.5400365 C-0.0232275862,32.3369343 0.168496552,32.1601095 0.414013793,32.1601095 L31.3585655,32.1601095 C31.6040828,32.1601095 31.7958069,32.3369343 31.7704276,32.5400365 L31.1105655,37.8133029 C31.0887724,37.9887591 30.9108414,38.122062 30.6987034,38.122062 Z" id="Stroke-1" stroke="#008BFF" stroke-width="1.09560002"></path>
                        <path d="M1.72093793,28.5913412 L30.0516966,28.5913412 C30.2544552,28.5913412 30.4243862,28.7246442 30.4453517,28.9001004 L31.0765241,31.6882391 C31.1008,31.8913412 30.9173517,32.0684398 30.6825931,32.0684398 L1.09004138,32.0684398 C0.855006897,32.0684398 0.671834483,31.8913412 0.696110345,31.6882391 L1.3270069,28.9001004 C1.34797241,28.7246442 1.51817931,28.5913412 1.72093793,28.5913412 Z" id="Stroke-3" stroke="#008BFF" stroke-width="1.09560002"></path>
                        <polygon id="Fill-5" fill="#BFDEEE" points="28.6068414 48.4004015 27.7599448 59.1686496 27.7489103 59.1686496 4.16270345 59.1686496 3.23856552 48.4004015"></polygon>
                        <path d="M27.7598621,59.1687591 L26.5626207,74.4068978 C26.5350345,74.6231387 26.3502069,74.784635 26.1295172,74.784635 L5.90606897,74.784635 C5.68537931,74.784635 5.50055172,74.6231387 5.4702069,74.4068978 L4.16262069,59.1687591 L3.23848276,48.4005109 L2.36675862,38.2371898 L29.4067586,38.2371898 L28.6067586,48.4005109 L27.7598621,59.1687591 Z" id="Stroke-7" stroke="#008BFF" stroke-width="1.09560002"></path>
                        <polyline id="Stroke-9" stroke="#008BFF" stroke-width="1.09560002" points="28.6481931 48.4004015 28.6068138 48.4004015 3.23853793 48.4004015 3.12267586 48.4004015"></polyline>
                        <polyline id="Stroke-11" stroke="#008BFF" stroke-width="1.09560002" points="4.05511724 59.1687591 4.16270345 59.1687591 27.7489103 59.1687591"></polyline>
                        <path d="M10.1329931,24.5746533 L11.2960276,21.6439051 C11.8712,20.1939964 11.7829241,18.5675365 11.0538207,17.187427 L10.1622345,15.5002007 C9.48995862,14.2276642 9.36030345,12.7405292 9.80223448,11.3721898 L10.4353379,9.4115146 C10.9401655,7.84910584 10.6963034,6.14354015 9.77409655,4.78149635" id="Stroke-13" stroke="#008BFF" stroke-width="1.09560002" stroke-linecap="round"></path>
                        <path d="M21.0894621,24.5746533 L22.2524966,21.6439051 C22.827669,20.1939964 22.7393931,18.5675365 22.0102897,17.187427 L21.1187034,15.5002007 C20.4464276,14.2276642 20.3167724,12.7405292 20.7587034,11.3721898 L21.3918069,9.4115146 C21.8966345,7.84910584 21.6527724,6.14354015 20.7305655,4.78149635" id="Stroke-15" stroke="#008BFF" stroke-width="1.09560002" stroke-linecap="round"></path>
                        <path d="M15.2639172,23.5475091 L16.6476414,20.0608303 C17.3320552,18.3358303 17.2269517,16.400885 16.3593655,14.7590967 L15.2986759,12.7518887 C14.4989517,11.2376551 14.344469,9.46858577 14.8702621,7.84048358 L15.6236414,5.50809307 C16.2239172,3.6492427 15.9342621,1.62013686 14.8368828,-2.73722628e-05" id="Stroke-17" stroke="#008BFF" stroke-width="1.09560002" stroke-linecap="round"></path>
                    </g>
                </g>
            </g>
        </g>
    </g>
</svg>