<?xml version="1.0" encoding="UTF-8"?>
<svg width="152px" height="152px" viewBox="0 0 152 152" version="1.1" xmlns="http://www.w3.org/2000/svg" xmlns:xlink="http://www.w3.org/1999/xlink">
    <!-- Generator: sketchtool 56.2 (101010) - https://sketch.com -->
    <title>1A5DE4F3-3E1D-4DC5-A7E2-56FE997CF0AC</title>
    <desc>Created with sketchtool.</desc>
    <defs>
        <circle id="path-1" cx="67" cy="67" r="67"></circle>
        <filter x="-10.8%" y="-9.3%" width="121.6%" height="121.6%" filterUnits="objectBoundingBox" id="filter-2">
            <feMorphology radius="0.5" operator="dilate" in="SourceAlpha" result="shadowSpreadOuter1"></feMorphology>
            <feOffset dx="0" dy="2" in="shadowSpreadOuter1" result="shadowOffsetOuter1"></feOffset>
            <feGaussianBlur stdDeviation="4" in="shadowOffsetOuter1" result="shadowBlurOuter1"></feGaussianBlur>
            <feColorMatrix values="0 0 0 0 0   0 0 0 0 0   0 0 0 0 0  0 0 0 0.1 0" type="matrix" in="shadowBlurOuter1"></feColorMatrix>
        </filter>
        <polygon id="path-3" points="0.231075 0.64875 41.821325 0.64875 41.821325 25.64875 0.231075 25.64875"></polygon>
        <polygon id="path-5" points="0 0.039625 11.301475 0.039625 11.301475 13.284375 0 13.284375"></polygon>
    </defs>
    <g id="career_pahe" stroke="none" stroke-width="1" fill="none" fill-rule="evenodd">
        <g id="about_us_glassesusa_h1" transform="translate(-318.000000, -1472.000000)">
            <g id="logo" transform="translate(110.000000, 1109.000000)">
                <g id="gamespex" transform="translate(217.000000, 370.000000)">
                    <g>
                        <g id="Oval-Copy-4">
                            <use fill="black" fill-opacity="1" filter="url(#filter-2)" xlink:href="#path-1"></use>
                            <use fill="#FFFFFF" fill-rule="evenodd" xlink:href="#path-1"></use>
                        </g>
                        <g id="Group-23" transform="translate(16.000000, 42.000000)">
                            <g id="Group-3" transform="translate(29.500000, 0.200750)">
                                <mask id="mask-4" fill="white">
                                    <use xlink:href="#path-3"></use>
                                </mask>
                                <g id="Clip-2"></g>
                                <path d="M10.030075,5.69575 C13.422825,5.69575 16.183325,8.45625 16.183325,11.849 C16.183325,15.242 13.422825,18.00225 10.030075,18.00225 C6.637075,18.00225 3.876825,15.242 3.876825,11.849 C3.876825,8.45625 6.637075,5.69575 10.030075,5.69575 M27.575825,7.183 C28.154075,6.60475 29.092075,6.60475 29.670825,7.183 L32.303575,9.81575 L34.884825,7.23425 C35.463325,6.656 36.401325,6.656 36.979825,7.23425 C37.558325,7.813 37.558325,8.75075 36.979825,9.32925 L34.398575,11.91075 L36.928575,14.441 C37.507075,15.0195 37.507075,15.9575 36.928575,16.536 C36.639575,16.82525 36.260325,16.97 35.881075,16.97 C35.502075,16.97 35.122825,16.82525 34.833575,16.536 L32.303575,14.00575 L29.722075,16.58725 C29.432825,16.8765 29.053825,17.02125 28.674575,17.02125 C28.295575,17.02125 27.916325,16.8765 27.627075,16.58725 C27.048575,16.00875 27.048575,15.07075 27.627075,14.4925 L30.208575,11.91075 L27.575825,9.278 C26.997075,8.6995 26.997075,7.7615 27.575825,7.183 M3.170075,18.786 C5.036075,20.632 7.513075,21.64875 10.144325,21.64875 C10.965325,21.64875 11.781575,21.548 12.570075,21.3495 C13.475075,21.12175 14.384075,20.69975 15.271575,20.096 C16.955325,18.95 18.925825,18.34425 20.969825,18.34425 C23.011575,18.34425 24.980325,18.94875 26.663075,20.0925 C27.160075,20.43025 27.615325,20.685 28.055325,20.87075 C29.229075,21.367 30.474075,21.62825 31.756575,21.6475 C31.806325,21.64825 31.857325,21.64875 31.907075,21.64875 C37.295075,21.64875 41.738075,17.274 41.821325,11.892 L41.820325,11.85025 C41.791325,9.22125 40.747825,6.75725 38.882325,4.912 C37.016075,3.066 34.539325,2.04925 31.908075,2.04925 L31.907825,2.04925 C31.087075,2.0495 30.270825,2.15 29.482325,2.3485 C28.577075,2.57625 27.668325,2.99825 26.780825,3.602 C25.097075,4.748 23.126575,5.35375 21.082825,5.35375 C19.040825,5.35375 17.072075,4.74925 15.389325,3.6055 C14.892575,3.26775 14.437075,3.01325 13.997075,2.82725 C12.823575,2.33125 11.578075,2.06975 10.295575,2.0505 C10.245825,2.04975 10.195075,2.0495 10.145325,2.04925 C4.757325,2.049 0.314575,6.42375 0.231075,11.80625 L0.232075,11.84775 C0.261325,14.47675 1.304825,16.94075 3.170075,18.786" id="Fill-1" fill="#4A4A4A" mask="url(#mask-4)"></path>
                            </g>
                            <path d="M39.530075,15.240375 C41.289325,15.240375 42.720825,13.809125 42.720825,12.049625 C42.720825,10.290375 41.289325,8.859125 39.530075,8.859125 C37.770825,8.859125 36.339325,10.290375 36.339325,12.049625 C36.339325,13.809125 37.770825,15.240375 39.530075,15.240375" id="Fill-4" fill="#4A4A4A"></path>
                            <path d="M84.0689,35.364275 C86.0834,35.364275 87.76265,36.826025 88.1019,38.744525 L80.0359,38.744525 C80.37515,36.826025 82.0544,35.364275 84.0689,35.364275 M84.0689,43.555275 C82.0544,43.555275 80.37515,42.093525 80.0359,40.174775 L89.59465,40.174775 L89.59465,39.459775 C89.59465,36.412775 87.1159,33.934025 84.0689,33.934025 C81.0219,33.934025 78.54315,36.412775 78.54315,39.459775 C78.54315,42.506525 81.0219,44.985275 84.0689,44.985275 C86.08865,44.985275 87.9469,43.883775 88.9179,42.110775 L87.66365,41.423775 C86.9434,42.738525 85.56615,43.555275 84.0689,43.555275" id="Fill-6" fill="#4A4A4A"></path>
                            <path d="M18.211725,43.5552 C15.953475,43.5552 14.116225,41.71795 14.116225,39.4597 C14.116225,37.20145 15.953475,35.3642 18.211725,35.3642 C20.469725,35.3642 22.307225,37.20145 22.307225,39.4597 C22.307225,41.71795 20.469725,43.5552 18.211725,43.5552 L18.211725,43.5552 Z M22.436975,35.90445 C21.422725,34.7007 19.905225,33.9342 18.211725,33.9342 C15.164725,33.9342 12.685975,36.41295 12.685975,39.4597 C12.685975,42.50645 15.164725,44.9852 18.211725,44.9852 C19.905225,44.9852 21.422725,44.2187 22.436975,43.01495 L22.436975,44.9852 L23.867225,44.9852 L23.867225,33.99895 L22.436975,33.99895 L22.436975,35.90445 Z" id="Fill-8" fill="#4A4A4A"></path>
                            <path d="M71.4776,43.5552 C69.21935,43.5552 67.3821,41.71795 67.3821,39.4597 C67.3821,37.20145 69.21935,35.3642 71.4776,35.3642 C73.7356,35.3642 75.5731,37.20145 75.5731,39.4597 C75.5731,41.71795 73.7356,43.5552 71.4776,43.5552 M71.4776,33.9342 C69.78385,33.9342 68.26635,34.7007 67.2521,35.90445 L67.2521,34.38895 L65.82185,34.38895 L65.82185,48.9507 L67.2521,48.9507 L67.2521,43.01495 C68.26635,44.2187 69.78385,44.9852 71.4776,44.9852 C74.52435,44.9852 77.00335,42.50645 77.00335,39.4597 C77.00335,36.41295 74.52435,33.9342 71.4776,33.9342" id="Fill-10" fill="#4A4A4A"></path>
                            <g id="Group-14" transform="translate(0.000000, 31.700750)">
                                <mask id="mask-6" fill="white">
                                    <use xlink:href="#path-5"></use>
                                </mask>
                                <g id="Clip-13"></g>
                                <path d="M11.294475,11.331125 L11.294475,6.967125 L7.670975,6.967125 L7.670975,8.397375 L9.864225,8.397375 L9.864225,10.709375 C8.946225,11.450875 7.812475,11.854375 6.616225,11.854375 C3.756725,11.854375 1.430225,9.525125 1.430225,6.662125 C1.430225,3.799125 3.756725,1.469875 6.616225,1.469875 C8.001225,1.469875 9.303725,2.009875 10.283225,2.990375 L11.294975,1.979375 C10.045225,0.728625 8.383475,0.039625 6.616225,0.039625 C2.967975,0.039625 -2.5e-05,3.010375 -2.5e-05,6.662125 C-2.5e-05,10.313875 2.967975,13.284375 6.616225,13.284375 C7.773475,13.284375 8.883975,12.987625 9.864225,12.432875 L9.864225,13.236125 L11.294475,13.236125 L11.294475,11.344875 C11.296725,11.342375 11.299225,11.340375 11.301475,11.338125 L11.294475,11.331125 Z" id="Fill-12" fill="#4A4A4A" mask="url(#mask-6)"></path>
                            </g>
                            <path d="M36.78375,33.9341 C35.3815,33.9341 34.142,34.6566 33.4035,35.75535 C32.66475,34.6566 31.42525,33.9341 30.023,33.9341 C29.00575,33.9341 28.0745,34.31485 27.35775,34.9431 L27.35775,33.9341 L25.9275,33.9341 L25.9275,38.1091 L25.9275,44.96835 L27.35775,44.9926 L27.35775,38.1091 C27.35775,36.6111 28.55325,35.3921 30.023,35.3921 C31.4925,35.3921 32.68825,36.6111 32.68825,38.1091 L32.68825,44.9621 L34.1185,44.9866 L34.1185,38.1091 C34.1185,36.6111 35.314,35.3921 36.78375,35.3921 C38.25325,35.3921 39.449,36.6111 39.449,38.1091 L39.449,44.98535 L40.87925,44.98535 L40.87925,38.1091 C40.87925,35.8071 39.04175,33.9341 36.78375,33.9341" id="Fill-15" fill="#4A4A4A"></path>
                            <path d="M59.3211,33.02395 C61.0831,33.02395 62.5716,34.0657 62.5716,35.2992 L64.00185,35.2992 C64.00185,33.25595 61.90185,31.5937 59.3211,31.5937 C56.74035,31.5937 54.6406,33.25595 54.6406,35.2992 C54.6406,38.1722 57.1656,38.62745 59.19435,38.9932 C61.5426,39.4167 62.5716,39.76095 62.5716,41.27995 C62.5716,42.5132 61.0831,43.5552 59.3211,43.5552 C57.5591,43.5552 56.07085,42.5132 56.07085,41.27995 L54.6406,41.27995 C54.6406,43.32295 56.74035,44.9852 59.3211,44.9852 C61.90185,44.9852 64.00185,43.32295 64.00185,41.27995 C64.00185,38.40695 61.47685,37.9517 59.4481,37.5857 C57.09985,37.16245 56.07085,36.8182 56.07085,35.2992 C56.07085,34.0657 57.5591,33.02395 59.3211,33.02395" id="Fill-17" fill="#4A4A4A"></path>
                            <path d="M43.911925,38.74465 C44.250925,36.8259 45.930425,35.3644 47.944925,35.3644 C49.959175,35.3644 51.638675,36.8259 51.977925,38.74465 L43.911925,38.74465 Z M47.944925,33.93415 C44.897925,33.93415 42.419175,36.4129 42.419175,39.45965 C42.419175,42.5064 44.897925,44.98515 47.944925,44.98515 C49.964925,44.98515 51.822925,43.8839 52.793925,42.1109 L51.539675,41.42365 C50.819675,42.73865 49.442175,43.55515 47.944925,43.55515 C45.930425,43.55515 44.250925,42.0934 43.911925,40.17465 L53.470425,40.17465 L53.470425,39.45965 C53.470425,36.4129 50.991675,33.93415 47.944925,33.93415 L47.944925,33.93415 Z" id="Fill-19" fill="#4A4A4A"></path>
                            <polygon id="Fill-21" fill="#4A4A4A" points="96.213425 38.2245 100.990175 31.5505 99.187425 31.5505 95.312175 36.96475 91.436925 31.5505 89.633675 31.5505 94.410425 38.2245 89.571925 44.98525 91.374925 44.98525 95.312175 39.48425 99.249425 44.98525 101.052175 44.98525"></polygon>
                        </g>
                    </g>
                </g>
            </g>
        </g>
    </g>
</svg>