<svg width="191px" height="48px" viewBox="0 0 191 48" version="1.1" xmlns="http://www.w3.org/2000/svg">
    <defs>
        <path d="M0,0.143008023 L1.17654585,0.143008023 L1.27417765,0.939086015 L1.32464832,0.939086015 C1.83183721,0.416312244 2.42590186,0 3.18047979,0 C4.06992198,0 4.57711087,0.390888595 4.86173237,1.04554754 C5.44338619,0.45126976 6.04986166,0 6.81602302,0 C8.10261149,0 8.69750352,0.842952845 8.69750352,2.31593548 L8.69750352,5.97535188 L7.2619852,5.97535188 L7.2619852,2.49469551 C7.2619852,1.53256931 6.96495287,1.17663823 6.33365577,1.17663823 C5.95057509,1.17663823 5.53108933,1.41419045 5.06030551,1.90121221 L5.06030551,5.97535188 L3.63719801,5.97535188 L3.63719801,2.49469551 C3.63719801,1.53256931 3.34016569,1.17663823 2.69728515,1.17663823 C2.32661529,1.17663823 1.89306393,1.41419045 1.42393489,1.90121221 L1.42393489,5.97535188 L0,5.97535188 L0,0.143008023 Z" id="path-1"></path>
        <path d="M2.83005021,0 C4.32386833,0 5.6722849,1.15777779 5.6722849,3.17976577 C5.6722849,5.19020896 4.32386833,6.34881137 2.83005021,6.34881137 C1.34760428,6.34881137 0,5.19020896 0,3.17976577 C0,1.15777779 1.34760428,0 2.83005021,0 M2.83005021,5.19020896 C3.70408408,5.19020896 4.23857692,4.38784586 4.23857692,3.17976577 C4.23857692,1.96014088 3.70408408,1.15777779 2.83005021,1.15777779 C1.95520403,1.15777779 1.43289568,1.96014088 1.43289568,3.17976577 C1.43289568,4.38784586 1.95520403,5.19020896 2.83005021,5.19020896" id="path-3"></path>
        <path d="M3.03830875,0 C3.81647265,0 4.40959546,0.30923552 4.81685109,0.7025831 L4.13781634,1.60142768 C3.81647265,1.31858026 3.49595504,1.15777779 3.11348169,1.15777779 C2.13705947,1.15777779 1.45719865,1.96014088 1.45719865,3.17976577 C1.45719865,4.38784586 2.1254944,5.19020896 3.07548218,5.19020896 C3.5703019,5.19020896 3.9891226,4.94364517 4.32368352,4.67316717 L4.91598025,5.57283638 C4.34763973,6.07833337 3.61904041,6.34881137 2.92761452,6.34881137 C1.27215755,6.34881137 0,5.19020896 0,3.17976577 C0,1.15777779 1.42085129,0 3.03830875,0" id="path-5"></path>
        <path d="M0.951748447,0 C1.48493134,0 1.89076163,0.394928206 1.89076163,0.933248196 C1.89076163,1.47236926 1.48493134,1.86729746 0.951748447,1.86729746 C0.418565553,1.86729746 0,1.47236926 0,0.933248196 C0,0.394928206 0.418565553,0 0.951748447,0" id="path-7"></path>
        <path d="M12.3184121,0 L8.48078117,0 L0,24.6483265 L3.64848065,24.6483265 L6.01448978,17.2624895 L14.6721917,17.2624895 L17.0365702,24.6483265 L20.798378,24.6483265 L12.3184121,0 Z M13.7492688,14.3650922 L6.93904331,14.3650922 L8.05193183,10.9472379 C8.82973083,8.51736972 9.56757999,6.05943373 10.3616851,3.24864558 C11.1590513,6.0674531 11.8952699,8.52619103 12.6714383,10.9472379 L13.7492688,14.3650922 Z" id="path-9"></path>
        <path d="M12.2310035,11.8682849 L8.72625091,10.3775668 L8.64122341,10.3403393 C6.7479444,9.52538104 4.79069231,8.6837161 4.79069231,6.51238243 C4.79069231,4.4672985 6.50743804,3.14653199 9.16434498,3.14653199 C11.1782821,3.14653199 12.9986804,3.90483972 14.5729038,5.39879498 L14.7405294,5.55741645 L16.6459552,3.22098696 L16.5155797,3.08421641 C14.6360671,1.12491756 11.9564861,0 9.16434498,0 C4.64169174,0 1.23168408,2.88027452 1.23168408,6.69851987 C1.23168408,9.60954753 2.89579373,11.7339422 6.31956775,13.1922886 L9.8210812,14.7194248 L9.88748363,14.7493687 C12.1581228,15.7723153 13.7979389,16.5120093 13.7979389,18.8476295 C13.7979389,21.1751567 11.9224751,22.6213637 8.9027842,22.6213637 C6.53497075,22.6213637 4.13071695,21.5312458 2.3078893,19.630216 L2.14512237,19.4610737 L0,21.948841 L0.134424429,22.0888488 C2.42935716,24.4625057 5.51707011,25.768705 8.82828391,25.768705 C13.8716294,25.768705 17.395007,22.8147848 17.395007,18.5854185 C17.395007,14.6401141 14.7850677,12.9762073 12.2310035,11.8682849" id="path-11"></path>
        <path d="M14.7172136,14.4625587 C14.7172136,19.405499 12.8191651,21.9109564 9.07524819,21.9109564 C5.43161472,21.9109564 3.58330031,19.405499 3.58330031,14.4625587 L3.58330031,0 L0,0 L0,14.3881867 C0,19.2399613 1.57436926,25.021786 9.07524819,25.021786 C16.5769424,25.021786 18.1513117,19.2399613 18.1513117,14.3881867 L18.1513117,0 L14.7172136,0 L14.7172136,14.4625587 Z" id="path-13"></path>
        <path d="M8.25881552,8.04614079 L7.97626855,7.94052319 C6.0357879,7.21240185 4.35918015,6.58509732 4.35918015,5.14725772 C4.35918015,4.00306706 5.17678016,2.7796632 7.47206835,2.7796632 C8.82634521,2.7796632 10.0661418,3.25574253 11.4918674,4.32232026 L11.6631818,4.44954146 L13.3755138,2.20196693 L13.2147544,2.07314546 C12.2461379,1.29941653 10.2057915,0 7.43390827,0 C3.57162106,0 0.976735654,2.12835466 0.976735654,5.29608252 C0.976735654,8.40620079 3.84686079,9.69121492 6.53674044,10.6505748 C8.41713925,11.3506914 10.5484203,12.1420233 10.5484203,13.8431068 C10.5484203,15.4401729 9.25503717,16.4323382 7.17328304,16.4323382 C4.88854977,16.4323382 3.25659743,15.3761622 1.96077856,14.3431901 L1.78784032,14.204767 L0,16.5683609 L0.156699901,16.6971824 C2.09230904,18.2718448 4.67339187,19.2136017 7.06042664,19.2136017 C11.8060791,19.2136017 13.929241,16.4235368 13.929241,13.6590761 C13.929241,10.1224868 10.9154066,9.01830278 8.25881552,8.04614079" id="path-15"></path>
        <path d="M8.25833415,8.04614079 L7.97661552,7.94052319 C6.03543611,7.21240185 4.35892608,6.58509732 4.35892608,5.14725772 C4.35892608,4.00306706 5.17647843,2.7796632 7.47163283,2.7796632 C8.82583077,2.7796632 10.0655551,3.25574253 11.4920094,4.32232026 L11.6633138,4.44954146 L13.3747343,2.20196693 L13.214796,2.07314546 C12.2454241,1.29941653 10.2060085,0 7.43428685,0 C3.57141289,0 0.976678724,2.12835466 0.976678724,5.29608252 C0.976678724,8.40620079 3.84744844,9.69121492 6.53635944,10.6505748 C8.41664866,11.3506914 10.5478055,12.1420233 10.5478055,13.8431068 C10.5478055,15.4401729 9.25449774,16.4323382 7.17286495,16.4323382 C4.88826484,16.4323382 3.25640762,15.3761622 1.96066427,14.3431901 L1.78773612,14.204767 L0,16.5683609 L0.157502637,16.6971824 C2.09218709,18.2718448 4.67311948,19.2136017 7.06082699,19.2136017 C11.805391,19.2136017 13.929241,16.4235368 13.929241,13.6590761 C13.929241,10.1224868 10.9155823,9.01830278 8.25833415,8.04614079" id="path-17"></path>
        <path d="M23.3121717,0 C19.272894,0 14.9805044,3.37990395 14.9805044,9.64440868 C14.9805044,15.2783821 18.6364753,19.2136017 23.8709587,19.2136017 C25.9718683,19.2136017 27.9579476,18.600674 29.9440269,17.3380111 L30.1098031,17.2331892 L28.8280703,14.8694969 L28.6339909,14.9919224 C27.1589874,15.9257169 25.7640416,16.3602074 24.2429443,16.3602074 C20.9379336,16.3602074 18.7302804,14.1141396 18.4391612,10.4805828 L30.6063229,10.4805828 L30.6354348,10.3045462 C30.7090232,9.86605485 30.7494565,9.26512969 30.7494565,8.61139353 C30.7494565,3.21987062 27.9692689,0 23.3121717,0 M27.6393339,8.06888054 L18.4124753,8.06888054 C18.8184248,4.96503409 20.8384679,2.81738679 23.3865689,2.81738679 C26.0753773,2.81738679 27.5803014,4.67937459 27.6393339,8.06888054" id="path-19"></path>
        <path d="M8.25833415,8.04614079 L7.97661552,7.94052319 C6.03543611,7.21240185 4.35892608,6.58509732 4.35892608,5.14725772 C4.35892608,4.00306706 5.17647843,2.7796632 7.47163283,2.7796632 C8.82583077,2.7796632 10.0655551,3.25574253 11.4920094,4.32232026 L11.6633138,4.44954146 L13.3747343,2.20196693 L13.214796,2.07314546 C12.2454241,1.29941653 10.2060085,0 7.43428685,0 C3.57141289,0 0.976678724,2.12835466 0.976678724,5.29608252 C0.976678724,8.40620079 3.84744844,9.69121492 6.53635944,10.6505748 C8.41583679,11.3506914 10.5478055,12.1420233 10.5478055,13.8431068 C10.5478055,15.4401729 9.25449774,16.4323382 7.17286495,16.4323382 C4.88826484,16.4323382 3.25640762,15.3761622 1.96066427,14.3431901 L1.78773612,14.204767 L0,16.5683609 L0.157502637,16.6971824 C2.09218709,18.2718448 4.67311948,19.2136017 7.06082699,19.2136017 C11.805391,19.2136017 13.929241,16.4235368 13.929241,13.6590761 C13.929241,10.1224868 10.9155823,9.01830278 8.25833415,8.04614079" id="path-21"></path>
        <path d="M8.16509216,0 C5.80335595,0 3.35366542,0.792164988 0.885243884,2.3540903 L0.713407214,2.46291296 L2.16953975,4.93462776 L2.36092182,4.80660109 C4.24216687,3.54233778 5.98089336,2.92700962 7.67727147,2.92700962 C9.97059877,2.92700962 11.1587964,4.3048966 11.2109175,7.02226256 C3.3552942,7.90804704 0,9.97567768 0,13.9180988 C0,17.0859586 2.24120623,19.2136017 5.57776942,19.2136017 C7.46471521,19.2136017 9.35817614,18.4366399 11.5163144,16.7706929 L11.7622607,18.7711095 L14.7176886,18.7711095 L14.7176886,7.57917855 C14.7176886,2.62054579 12.4520506,0 8.16509216,0 M11.2133607,9.44036619 L11.2133607,14.0797324 C9.33130121,15.7200741 7.98755475,16.3602074 6.44021033,16.3602074 C5.33019431,16.3602074 3.46686588,16.0137353 3.46686588,13.6964526 C3.46686588,11.4007745 5.78706811,10.1229083 11.2133607,9.44036619" id="path-23"></path>
        <path d="M4.81468515,24.2495602 C4.49731449,24.3179822 4.36528174,24.3179822 4.18158399,24.3179822 C3.7666239,24.3179822 3.52880092,23.9074503 3.52880092,23.1950565 L3.52880092,0 L0,0 L0,22.9720813 C0,25.8594896 1.14565068,27.262543 3.50173831,27.262543 C4.30049548,27.262543 4.87537102,27.1659472 5.36577839,26.9478018 L5.51913321,26.8793798 L5.03446639,24.2004574 L4.81468515,24.2495602 Z" id="path-25"></path>
        <path d="M10.8228313,16.6323815 L16.1197196,16.6323815 L16.1197196,22.7479893 C15.1535999,23.5799571 13.5109509,24.0942937 11.8004037,24.0942937 C6.73338806,24.0942937 3.70823085,20.3971967 3.70823085,14.2050027 C3.70823085,8.19822787 6.80946692,4.46565941 11.8004037,4.46565941 C13.8839828,4.46565941 15.469368,5.15090416 16.941044,6.68988325 L17.1013823,6.85756667 L19.2234098,4.54547027 L19.0818868,4.4035843 C17.0416645,2.34220686 14.5793272,1.29821633 11.7627733,1.29821633 C4.7267059,1.29821633 0,6.51575047 0,14.2799766 C0,22.1651282 4.49765127,27.262543 11.4576398,27.262543 C14.5245177,27.262543 17.4875029,26.1726007 19.38293,24.346625 L19.4483742,24.2837437 L19.4483742,13.6148861 L10.8228313,13.6148861 L10.8228313,16.6323815 Z" id="path-27"></path>
        <path d="M37.217752,47.6586532 L62.4813527,47.6586532 L63.8830761,47.6586532 L64.0019904,47.6586532 L65.0485997,47.6586532 C65.1756589,47.6586532 65.2986457,47.6352974 65.4159311,47.602277 C66.9512295,47.4919409 69.3335892,47.1689861 71.1523273,46.2122024 C73.0696178,45.2046801 75.8054626,43.3579586 77.4376844,38.9702837 C78.1267361,37.1171193 79.0096346,34.084888 79.7597724,31.3780276 L79.7614014,31.3796383 C79.7630304,31.37239 79.7744331,31.3280944 79.7923517,31.2596377 C80.5498199,28.5189516 81.2918129,25.600278 81.9295523,22.9940893 C82.7195998,19.9803816 83.5487424,16.8837205 84.0765267,15.0748515 C85.6883864,9.56287521 83.0608677,8.46112424 79.0853814,6.79077957 L78.7441135,6.64903384 C77.7748799,6.24070946 76.4399441,5.79614328 74.9535145,5.35399322 L74.9494421,5.34755024 C74.863107,5.32338903 74.7759575,5.29922783 74.6904369,5.27587199 C73.8042805,5.01332023 72.8700697,4.75398996 71.9277141,4.50190805 C69.0705115,3.71908499 66.2116799,3.01196704 63.3365587,2.3990778 C62.9358336,2.30726522 62.6743849,2.24927833 62.5978236,2.23156011 L62.5864208,2.23961384 C57.6987147,1.22806471 52.7572528,0.510476909 47.6781435,0.294636807 C38.388977,-0.0999962147 29.0411679,0.855982147 20.0395135,3.16176652 C18.2965222,3.60874882 16.5665626,4.09036218 14.8504491,4.6372108 C11.4874532,5.7075522 8.19694619,7.00661968 4.97811359,8.45145976 C4.14652753,8.82595844 3.27991875,9.21253773 2.44996166,9.62166748 C2.01014141,9.8399237 1.57439358,10.0646229 1.14679056,10.3038188 C0.812852971,10.4906655 0.247602508,10.687982 0.106697133,11.0673129 C0.0342082413,11.261408 0.0513123619,11.4812749 0.15556605,11.6592625 L0.214208749,11.7599342 C0.494390534,12.2391314 0.985523141,12.111077 1.38787722,11.9032906 C1.98000558,11.5964433 2.58109325,11.3016766 3.18543885,11.0165744 C5.4285221,9.95831361 7.74653768,9.02891257 10.0694402,8.15427693 C11.9215721,7.45682347 13.7981385,6.81977302 15.6950669,6.25279007 C17.9788742,5.5706387 20.2920029,4.9867429 22.6246792,4.50271342 C25.3442344,3.93734121 28.0914819,3.51049325 30.8533902,3.21169968 C34.0135801,2.87263743 37.194132,2.70511974 40.3722405,2.69626063 C43.982839,2.68820689 47.5909939,2.88471803 51.1804158,3.26485433 C55.2430517,3.69733991 59.2788097,4.3633838 63.2681422,5.23077108 C67.7860735,6.21413214 72.2461766,7.45440735 76.6329763,8.90488505 C76.8463705,8.97656329 77.3098108,9.14488636 77.6991331,9.28743747 L77.9654687,9.40018976 C81.9067468,11.0536216 82.2300961,11.1905351 81.3235777,14.2880016 C81.1256586,14.9669315 80.8218569,16.0920383 80.4716296,17.4225153 L80.45534,17.4354013 C80.4528965,17.4418443 80.4146159,17.6085566 80.3470139,17.8968803 C79.1749744,22.3731463 77.5761464,28.7476777 77.5394947,28.895061 C76.6794017,31.9989706 75.6173173,35.6513395 74.7474506,37.9909495 C73.4695284,41.4315052 71.4365815,42.8537948 69.8084321,43.7107122 C67.5946702,44.8736716 63.9189133,44.9598465 63.8830761,44.9598465 L62.4813527,44.9598465 L37.217752,44.9598465 L37.217752,47.6586532 Z" id="path-29"></path>
        <polygon id="path-31" points="0.0625464296 0.208461841 84.5582553 0.208461841 84.5582553 47.6586532 0.0625464296 47.6586532"></polygon>
    </defs>
    <g id="-mobile" stroke="none" stroke-width="1" fill="none" fill-rule="evenodd">
        <g id="glassesusa-logo-copy" transform="translate(5.000000, 13.000000)">
            <g id="gusa_logo/regular">
                <g id="Page-1" transform="translate(-5.007663, -13.215349)">
                    <g id="colors/logo/0A2240-Copy-3" transform="translate(119.117983, 41.454004)">
                        <mask id="mask-2" fill="white">
                            <use xlink:href="#path-1"></use>
                        </mask>
                        <use id="Mask" fill="#050302" xlink:href="#path-1"></use>
                        <g id="colors/logo/0A2240" mask="url(#mask-2)" fill="#0A2240" stroke="#979797" stroke-width="1.0176">
                            <g transform="translate(-72.479196, -2.597979)">
                                <rect x="0.5088" y="0.5088" width="87.9599158" height="85.9604211"></rect>
                            </g>
                        </g>
                    </g>
                    <g id="colors/logo/0A2240-Copy-2" transform="translate(112.311241, 41.454004)">
                        <mask id="mask-4" fill="white">
                            <use xlink:href="#path-3"></use>
                        </mask>
                        <use id="Mask" fill="#050302" xlink:href="#path-3"></use>
                        <g id="colors/logo/0A2240" mask="url(#mask-4)" fill="#0A2240" stroke="#979797" stroke-width="1.0176">
                            <g transform="translate(-40.995150, -1.587203)">
                                <rect x="0.5088" y="0.5088" width="85.9604211" height="87.9599158"></rect>
                            </g>
                        </g>
                    </g>
                    <g id="colors/logo/0A2240-Copy" transform="translate(107.017108, 41.454004)">
                        <mask id="mask-6" fill="white">
                            <use xlink:href="#path-5"></use>
                        </mask>
                        <use id="Mask" fill="#050302" xlink:href="#path-5"></use>
                        <g id="colors/logo/0A2240" mask="url(#mask-6)" fill="#0A2240" stroke="#979797" stroke-width="1.0176">
                            <g transform="translate(-17.752151, -2.116270)">
                                <rect x="0.5088" y="0.5088" width="90.959158" height="87.9599158"></rect>
                            </g>
                        </g>
                    </g>
                    <g id="colors/logo/0A2240" transform="translate(104.370042, 45.935518)">
                        <mask id="mask-8" fill="white">
                            <use xlink:href="#path-7"></use>
                        </mask>
                        <use id="Mask" fill="#050302" xlink:href="#path-7"></use>
                        <g mask="url(#mask-8)" fill="#0A2240" stroke="#979797" stroke-width="1.0176">
                            <g transform="translate(-39.976103, -5.601892)">
                                <rect x="0.5088" y="0.5088" width="89.9594106" height="9.97962106"></rect>
                            </g>
                        </g>
                    </g>
                    <g id="colors/logo/3CB4E5-Copy" transform="translate(144.832341, 11.950704)">
                        <mask id="mask-10" fill="white">
                            <use xlink:href="#path-9"></use>
                        </mask>
                        <use id="Mask" fill="#030100" xlink:href="#path-9"></use>
                        <g id="colors/logo/3CB4E5" mask="url(#mask-10)" fill="#3CB4E5" stroke="#979797" stroke-width="1.0176">
                            <g transform="translate(-49.494874, -21.275398)">
                                <rect x="0.5088" y="0.5088" width="86.9601685" height="85.9604211"></rect>
                            </g>
                        </g>
                    </g>
                    <g id="colors/logo/3CB4E5-Copy" transform="translate(127.059182, 11.577244)">
                        <mask id="mask-12" fill="white">
                            <use xlink:href="#path-11"></use>
                        </mask>
                        <use id="Mask" fill="#030100" xlink:href="#path-11"></use>
                        <g id="colors/logo/3CB4E5" mask="url(#mask-12)" fill="#3CB4E5" stroke="#979797" stroke-width="1.0176">
                            <g transform="translate(-31.890846, -29.152474)">
                                <rect x="0.5088" y="0.5088" width="87.9599158" height="85.9604211"></rect>
                            </g>
                        </g>
                    </g>
                    <g id="colors/logo/3CB4E5" transform="translate(107.773413, 11.950704)">
                        <mask id="mask-14" fill="white">
                            <use xlink:href="#path-13"></use>
                        </mask>
                        <use id="Mask" fill="#030100" xlink:href="#path-13"></use>
                        <g mask="url(#mask-14)" fill="#3CB4E5" stroke="#979797" stroke-width="1.0176">
                            <g transform="translate(-15.520687, -14.445567)">
                                <rect x="0.5088" y="0.5088" width="86.9601685" height="85.9604211"></rect>
                            </g>
                        </g>
                    </g>
                    <g id="Group" transform="translate(0.000000, 9.709947)">
                        <g id="colors/logo/0A2240" transform="translate(91.197106, 8.048941)">
                            <mask id="mask-16" fill="white">
                                <use xlink:href="#path-15"></use>
                            </mask>
                            <use id="Mask" fill="#050302" xlink:href="#path-15"></use>
                            <g mask="url(#mask-16)" fill="#0A2240" stroke="#979797" stroke-width="1.0176">
                                <g transform="translate(-57.556675, -7.789298)">
                                    <rect x="0.5088" y="0.5088" width="86.9601685" height="85.9604211"></rect>
                                </g>
                            </g>
                        </g>
                        <g id="colors/logo/0A2240">
                            <g id="colors/logo/0A2240-+-colors/logo/0A2240-Mask" transform="translate(22.864980, 0.000000)">
                                <g id="colors/logo/0A2240-+-colors/logo/0A2240-+-colors/logo/0A2240-Mask" transform="translate(7.096028, 8.048941)">
                                    <g id="colors/logo/0A2240-+-colors/logo/0A2240-+-colors/logo/0A2240-+-colors/logo/0A2240-Mask" transform="translate(15.768952, 0.000000)">
                                        <g id="colors/logo/0A2240-+-colors/logo/0A2240-+-colors/logo/0A2240-+-colors/logo/0A2240-+-colors/logo/0A2240-Mask" transform="translate(14.192057, 0.000000)">
                                            <g id="colors/logo/0A2240-+-colors/logo/0A2240-+-colors/logo/0A2240-+-colors/logo/0A2240-+-colors/logo/0A2240-+-colors/logo/0A2240-Mask">
                                                <g id="colors/logo/0A2240-+-colors/logo/0A2240-+-colors/logo/0A2240-+-colors/logo/0A2240-+-colors/logo/0A2240-+-colors/logo/0A2240-+-colors/logo/0A2240-Mask">
                                                    <g id="colors/logo/0A2240-+-colors/logo/0A2240-+-colors/logo/0A2240-+-colors/logo/0A2240-+-colors/logo/0A2240-+-colors/logo/0A2240-+-colors/logo/0A2240-+-colors/logo/0A2240-Mask">
                                                        <g id="colors/logo/0A2240-+-colors/logo/0A2240-+-colors/logo/0A2240-+-colors/logo/0A2240-+-colors/logo/0A2240-+-colors/logo/0A2240-+-colors/logo/0A2240-+-colors/logo/0A2240-+-colors/logo/0A2240-Mask">
                                                            <g id="colors/logo/0A2240-+-colors/logo/0A2240-+-colors/logo/0A2240-+-colors/logo/0A2240-+-colors/logo/0A2240-+-colors/logo/0A2240-+-colors/logo/0A2240-+-colors/logo/0A2240-+-colors/logo/0A2240-+-Mask-+-colors/logo/0A2240-Mask">
                                                                <mask id="mask-18" fill="white">
                                                                    <use xlink:href="#path-17"></use>
                                                                </mask>
                                                                <use id="Mask" fill="#050302" xlink:href="#path-17"></use>
                                                                <g id="colors/logo/0A2240" mask="url(#mask-18)" fill="#0A2240" stroke="#979797" stroke-width="1.0176">
                                                                    <g transform="translate(-76.479417, -28.301116)">
                                                                        <rect x="0.5088" y="0.5088" width="126.950063" height="74.9632"></rect>
                                                                    </g>
                                                                </g>
                                                                <g id="colors/logo/0A2240" mask="url(#mask-18)" fill="#0A2240" stroke="#979797" stroke-width="1.0176">
                                                                    <g transform="translate(-73.325627, -17.915385)">
                                                                        <rect x="0.5088" y="0.5088" width="126.950063" height="74.9632"></rect>
                                                                    </g>
                                                                </g>
                                                                <g id="colors/logo/0A2240" mask="url(#mask-18)" fill="#0A2240" stroke="#979797" stroke-width="1.0176">
                                                                    <g transform="translate(-70.960284, -17.915385)">
                                                                        <rect x="0.5088" y="0.5088" width="126.950063" height="74.9632"></rect>
                                                                    </g>
                                                                </g>
                                                                <g id="colors/logo/0A2240" mask="url(#mask-18)" fill="#0A2240" stroke="#979797" stroke-width="1.0176">
                                                                    <g transform="translate(-68.594941, -24.666110)">
                                                                        <rect x="0.5088" y="0.5088" width="126.950063" height="74.9632"></rect>
                                                                    </g>
                                                                </g>
                                                                <g id="colors/logo/0A2240" mask="url(#mask-18)" fill="#0A2240" stroke="#979797" stroke-width="1.0176">
                                                                    <g transform="translate(-70.960284, -8.048941)">
                                                                        <rect x="0.5088" y="0.5088" width="126.950063" height="74.9632"></rect>
                                                                    </g>
                                                                </g>
                                                                <g id="colors/logo/0A2240" mask="url(#mask-18)" fill="#0A2240" stroke="#979797" stroke-width="1.0176">
                                                                    <g transform="translate(-73.325627, -8.048941)">
                                                                        <rect x="0.5088" y="0.5088" width="126.950063" height="74.9632"></rect>
                                                                    </g>
                                                                </g>
                                                                <g id="colors/logo/0A2240" mask="url(#mask-18)" fill="#0A2240" stroke="#979797" stroke-width="1.0176">
                                                                    <g transform="translate(-71.485916, -8.048941)">
                                                                        <rect x="0.5088" y="0.5088" width="126.950063" height="74.9632"></rect>
                                                                    </g>
                                                                </g>
                                                                <g id="colors/logo/0A2240" mask="url(#mask-18)" fill="#0A2240" stroke="#979797" stroke-width="1.0176">
                                                                    <g transform="translate(-59.922018, -17.915385)">
                                                                        <rect x="0.5088" y="0.5088" width="126.950063" height="74.9632"></rect>
                                                                    </g>
                                                                </g>
                                                                <g id="colors/logo/0A2240" mask="url(#mask-18)" fill="#0A2240" stroke="#979797" stroke-width="1.0176">
                                                                    <g transform="translate(-68.332125, -10.645374)">
                                                                        <rect x="0.5088" y="0.5088" width="126.950063" height="74.9632"></rect>
                                                                    </g>
                                                                </g>
                                                                <mask id="mask-20" fill="white">
                                                                    <use xlink:href="#path-19"></use>
                                                                </mask>
                                                                <use id="Mask" fill="#050302" xlink:href="#path-19"></use>
                                                                <g id="colors/logo/0A2240" mask="url(#mask-20)" fill="#0A2240" stroke="#979797" stroke-width="1.0176">
                                                                    <g transform="translate(-72.537179, -0.778930)">
                                                                        <rect x="0.5088" y="0.5088" width="126.950063" height="74.9632"></rect>
                                                                    </g>
                                                                </g>
                                                            </g>
                                                        </g>
                                                    </g>
                                                </g>
                                            </g>
                                        </g>
                                        <mask id="mask-22" fill="white">
                                            <use xlink:href="#path-21"></use>
                                        </mask>
                                        <use id="Mask" fill="#1C2742" xlink:href="#path-21"></use>
                                    </g>
                                    <mask id="mask-24" fill="white">
                                        <use xlink:href="#path-23"></use>
                                    </mask>
                                    <use id="Mask" fill="#1C2742" xlink:href="#path-23"></use>
                                </g>
                                <mask id="mask-26" fill="white">
                                    <use xlink:href="#path-25"></use>
                                </mask>
                                <use id="Mask" fill="#1C2742" xlink:href="#path-25"></use>
                            </g>
                            <mask id="mask-28" fill="white">
                                <use xlink:href="#path-27"></use>
                            </mask>
                            <use id="Mask" fill="#1C2742" xlink:href="#path-27"></use>
                        </g>
                    </g>
                    <g id="Group-31" transform="translate(94.538082, 0.000000)">
                        <g id="colors/logo/EA6852">
                            <mask id="mask-30" fill="white">
                                <use xlink:href="#path-29"></use>
                            </mask>
                            <use id="Mask" fill="#060100" xlink:href="#path-29"></use>
                            <g mask="url(#mask-30)" fill="#EA6852" stroke="#979797" stroke-width="1.0176">
                                <g transform="translate(-15.520687, -11.431108)">
                                    <rect x="0.5088" y="0.5088" width="118.952084" height="116.95259"></rect>
                                </g>
                            </g>
                        </g>
                        <mask id="mask-32" fill="white">
                            <use xlink:href="#path-31"></use>
                        </mask>
                        <g id="Clip-30"></g>
                    </g>
                    <polygon id="Fill-32" fill="#C5C5C5" points="181.134965 2.88550861 181.134965 1.86729746 184.916488 1.86729746 184.916488 2.88550861 183.581272 2.88550861 183.581272 6.72227087 182.45667 6.72227087 182.45667 2.88550861"></polygon>
                    <path d="M186.884564,1.86729746 L187.465224,3.99203832 C187.487782,4.06931706 187.513682,4.17037388 187.542089,4.29435956 C187.571331,4.41919445 187.601408,4.53978326 187.633156,4.65782442 C187.667411,4.79794522 187.703337,4.94570897 187.739263,5.09941724 L187.75263,5.09941724 C187.783543,4.94570897 187.816962,4.79794522 187.852888,4.65782442 C187.879624,4.53978326 187.908866,4.41919445 187.939778,4.29435956 C187.971527,4.17037388 187.997427,4.06931706 188.019985,3.99203832 L188.608165,1.86729746 L190.21062,1.86729746 L190.21062,6.72227087 L189.129506,6.72227087 L189.129506,4.27737522 L189.129506,4.04384055 C189.129506,3.93768843 189.131177,3.82983787 189.135354,3.7211381 C189.139532,3.59460477 189.144544,3.45618241 189.148722,3.30672022 L189.135354,3.30672022 C189.099428,3.44684102 189.068516,3.575922 189.04178,3.69396316 C189.020058,3.79756763 188.995829,3.89862445 188.9716,3.99543518 C188.947371,4.09309513 188.928154,4.16442936 188.915622,4.20943786 L188.226349,6.72227087 L187.251341,6.72227087 L186.570422,4.21708081 C186.557055,4.1712231 186.537003,4.09903965 186.510267,3.99968127 C186.484368,3.89947367 186.459303,3.79756763 186.436745,3.69396316 C186.410845,3.575922 186.380768,3.44684102 186.349855,3.30672022 L186.336487,3.30672022 C186.336487,3.45618241 186.338994,3.59460477 186.344006,3.7211381 C186.347348,3.82983787 186.35069,3.93768843 186.353197,4.0463882 C186.355703,4.15508797 186.356539,4.23491437 186.356539,4.28416895 L186.356539,6.72227087 L185.29464,6.72227087 L185.29464,1.86729746 L186.884564,1.86729746 Z" id="Fill-34" fill="#C5C5C5"></path>
                </g>
            </g>
        </g>
    </g>
</svg>