<svg xmlns="http://www.w3.org/2000/svg" xmlns:xlink="http://www.w3.org/1999/xlink" width="191" height="48">
<defs>
<path id="a" d="M0 .14300802h1.17654585l.0976318.796078h.05047067C1.83183721.41631224 2.42590186 0 3.18047979 0c.88944219 0 1.39663108.3908886 1.68125258 1.04554754C5.44338619.45126976 6.04986166 0 6.81602302 0c1.28658847 0 1.8814805.84295285 1.8814805 2.31593548v3.6594164H7.2619852V2.49469551c0-.9621262-.29703233-1.31805728-.92832943-1.31805728-.38308068 0-.80256644.23755222-1.27335026.72457398v4.07413967h-1.4231075V2.49469551c0-.9621262-.29703232-1.31805728-.93991286-1.31805728-.37066986 0-.80422122.23755222-1.27335026.72457398v4.07413967H0V.14300802z"/>
<path id="c" d="M2.83005021 0C4.32386833 0 5.6722849 1.15777779 5.6722849 3.17976577c0 2.01044319-1.34841657 3.1690456-2.84223469 3.1690456C1.34760428 6.34881137 0 5.19020896 0 3.17976577 0 1.15777779 1.34760428 0 2.83005021 0m0 5.19020896c.87403387 0 1.40852671-.8023631 1.40852671-2.01044319 0-1.21962489-.53449284-2.02198798-1.40852671-2.02198798-.87484618 0-1.39715453.80236309-1.39715453 2.02198798 0 1.20808009.52230835 2.01044319 1.39715453 2.01044319"/>
<path id="e" d="M3.03830875 0c.7781639 0 1.37128671.30923552 1.77854234.7025831l-.67903475.89884458c-.32134369-.28284742-.6418613-.44364989-1.02433465-.44364989-.97642222 0-1.65628304.80236309-1.65628304 2.02198798 0 1.20808009.66829575 2.01044319 1.61828353 2.01044319.49481972 0 .91364042-.24656379 1.24820134-.51704179l.59229673.89966921c-.56834052.50549699-1.29693984.77597499-1.98836573.77597499C1.27215755 6.34881137 0 5.19020896 0 3.17976577 0 1.15777779 1.42085129 0 3.03830875 0"/><path id="g" d="M.95174845 0c.53318289 0 .93901318.3949282.93901318.9332482 0 .53912106-.40583029.93404926-.93901318.93404926C.41856555 1.86729746 0 1.47236926 0 .9332482 0 .3949282.41856555 0 .95174845 0"/><path id="i" d="M12.3184121 0H8.48078117L0 24.6483265h3.64848065l2.36600913-7.385837h8.65770192l2.3643785 7.385837h3.7618078L12.3184121 0zm1.4308567 14.3650922H6.93904331l1.11288852-3.4178543c.777799-2.42986818 1.51564816-4.88780417 2.30975327-7.69859232.7973662 2.81880752 1.5335848 5.27754545 2.3097532 7.69859232l1.0778305 3.4178543z"/><path id="k" d="M12.2310035 11.8682849l-3.50475259-1.4907181-.0850275-.0372275c-1.89327901-.81495826-3.8505311-1.6566232-3.8505311-3.82795687 0-2.04508393 1.71674573-3.36585044 4.37365267-3.36585044 2.01393712 0 3.83433542.75830773 5.40855882 2.25226299l.1676256.15862147 1.9054258-2.33642949-.1303755-.13677055C14.6360671 1.12491756 11.9564861 0 9.16434498 0c-4.52265324 0-7.9326609 2.88027452-7.9326609 6.69851987 0 2.91102766 1.66410965 5.03542233 5.08788367 6.49376873l3.50151345 1.5271362.06640243.0299439c2.27063917 1.0229466 3.91045527 1.7626406 3.91045527 4.0982608 0 2.3275272-1.8754638 3.7737342-4.8951547 3.7737342-2.36781345 0-4.77206725-1.0901179-6.5948949-2.9911477l-.16276693-.1691423L0 21.948841l.13442443.1400078C2.42935716 24.4625057 5.5170701 25.768705 8.8282839 25.768705c5.04334549 0 8.56672309-2.9539202 8.56672309-7.1832865 0-3.9453044-2.6099393-5.6092112-5.1640035-6.7171336"/>

<path id="m" d="M14.7172136 14.4625587c0 4.9429403-1.8980485 7.4483977-5.64196541 7.4483977-3.64363347 0-5.49194788-2.5054574-5.49194788-7.4483977V0H0v14.3881867C0 19.2399613 1.57436926 25.021786 9.07524819 25.021786c7.50169421 0 9.07606351-5.7818247 9.07606351-10.6335993V0h-3.4340981v14.4625587z"/>
<path id="o" d="M8.25881552 8.04614079l-.28254697-.1056176c-1.94048065-.72812134-3.6170884-1.35542587-3.6170884-2.79326547 0-1.14419066.81760001-2.36759452 3.1128882-2.36759452 1.35427686 0 2.59407345.47607933 4.01979905 1.54265706l.1713144.1272212 1.712332-2.24757453-.1607594-.12882147C12.2461379 1.29941653 10.2057915 0 7.43390827 0 3.57162106 0 .97673565 2.12835466.97673565 5.29608252c0 3.11011827 2.87012514 4.3951324 5.56000479 5.35449228 1.88039881.7001166 4.01167986 1.4914485 4.01167986 3.192532 0 1.5970661-1.29338313 2.5892314-3.37513726 2.5892314-2.28473327 0-3.91668561-1.056176-5.21250448-2.0891481l-.17293824-.1384231L0 16.5683609l.1566999.1288215c1.93560914 1.5746624 4.51669197 2.5164193 6.90372674 2.5164193 4.74565246 0 6.86881436-2.7900649 6.86881436-5.5545256 0-3.5365893-3.0138344-4.64077332-5.67042548-5.61293531"/><path id="q" d="M8.25833415 8.04614079l-.28171863-.1056176c-1.94117941-.72812134-3.61768944-1.35542587-3.61768944-2.79326547 0-1.14419066.81755235-2.36759452 3.11270675-2.36759452 1.35419794 0 2.59392227.47607933 4.02037657 1.54265706l.1713044.1272212 1.7114205-2.24757453-.1599383-.12882147C12.2454241 1.29941653 10.2060085 0 7.43428685 0 3.57141289 0 .97667872 2.12835466.97667872 5.29608252c0 3.11011827 2.87076972 4.3951324 5.55968072 5.35449228 1.88028922.7001166 4.01144606 1.4914485 4.01144606 3.192532 0 1.5970661-1.29330776 2.5892314-3.37494055 2.5892314-2.28460011 0-3.91645733-1.056176-5.21220068-2.0891481l-.17292815-.1384231L0 16.5683609l.15750264.1288215c1.93468445 1.5746624 4.51561684 2.5164193 6.90332435 2.5164193 4.74456401 0 6.86841401-2.7900649 6.86841401-5.5545256 0-3.5365893-3.0136587-4.64077332-5.67090685-5.61293531"/>
<path id="s" d="M23.3121717 0c-4.0392777 0-8.3316673 3.37990395-8.3316673 9.64440868 0 5.63397342 3.6559709 9.56919302 8.8904543 9.56919302 2.1009096 0 4.0869889-.6129277 6.0730682-1.8755906l.1657762-.1048219-1.2817328-2.3636923-.1940794.1224255c-1.4750035.9337945-2.8699493 1.368285-4.3910466 1.368285-3.3050107 0-5.5126639-2.2460678-5.8037831-5.8796246h12.1671617l.0291119-.1760366c.0735884-.43849135.1140217-1.03941651.1140217-1.69315267C30.7494565 3.21987062 27.9692689 0 23.3121717 0m4.3271622 8.06888054h-9.2268586c.4059495-3.10384645 2.4259926-5.25149375 4.9740936-5.25149375 2.6888084 0 4.1937325 1.8619878 4.252765 5.25149375"/>
<path id="u" d="M8.25833415 8.04614079l-.28171863-.1056176c-1.94117941-.72812134-3.61768944-1.35542587-3.61768944-2.79326547 0-1.14419066.81755235-2.36759452 3.11270675-2.36759452 1.35419794 0 2.59392227.47607933 4.02037657 1.54265706l.1713044.1272212 1.7114205-2.24757453-.1599383-.12882147C12.2454241 1.29941653 10.2060085 0 7.43428685 0 3.57141289 0 .97667872 2.12835466.97667872 5.29608252c0 3.11011827 2.87076972 4.3951324 5.55968072 5.35449228 1.87947735.7001166 4.01144606 1.4914485 4.01144606 3.192532 0 1.5970661-1.29330776 2.5892314-3.37494055 2.5892314-2.28460011 0-3.91645733-1.056176-5.21220068-2.0891481l-.17292815-.1384231L0 16.5683609l.15750264.1288215c1.93468445 1.5746624 4.51561684 2.5164193 6.90332435 2.5164193 4.74456401 0 6.86841401-2.7900649 6.86841401-5.5545256 0-3.5365893-3.0136587-4.64077332-5.67090685-5.61293531"/>
<path id="v" d="M8.16509216 0C5.80335595 0 3.35366542.79216499.88524388 2.3540903l-.17183667.10882266 1.45613254 2.4717148.19138207-.12802667c1.88124505-1.26426331 3.61997154-1.87959147 5.31634965-1.87959147 2.2933273 0 3.48152493 1.37788698 3.53364603 4.09525294C3.3552942 7.90804704 0 9.97567768 0 13.9180988c0 3.1678598 2.24120623 5.2955029 5.57776942 5.2955029 1.88694579 0 3.78040672-.7769618 5.93854498-2.4429088l.2459463 2.0004166h2.9554279V7.57917855C14.7176886 2.62054579 12.4520506 0 8.16509216 0m3.04826854 9.44036619v4.63936621c-1.88205949 1.6403417-3.22580595 2.280475-4.77315037 2.280475-1.11001602 0-2.97334445-.3464721-2.97334445-2.6637548 0-2.2956781 2.32020223-3.5735443 7.74649482-4.25608641"/>
<path id="w" d="M4.81468515 24.2495602c-.31737066.068422-.44940341.068422-.63310116.068422-.41496009 0-.65278307-.4105319-.65278307-1.1229257V0H0v22.9720813c0 2.8874083 1.14565068 4.2904617 3.50173831 4.2904617.79875717 0 1.37363271-.0965958 1.86404008-.3147412l.15335482-.068422-.48466682-2.6789224-.21978124.0491028z"/>
<path id="x" d="M10.8228313 16.6323815h5.2968883v6.1156078c-.9661197.8319678-2.6087687 1.3463044-4.3193159 1.3463044-5.06701564 0-8.09217285-3.697097-8.09217285-9.889291 0-6.00677483 3.10123607-9.73934329 8.09217285-9.73934329 2.0835791 0 3.6689643.68524475 5.1406403 2.22422384l.1603383.16768342 2.1220275-2.3120964-.141523-.14188597c-2.0402223-2.06137744-4.5025596-3.10536797-7.3191135-3.10536797C4.7267059 1.29821633 0 6.51575047 0 14.2799766 0 22.1651282 4.49765127 27.262543 11.4576398 27.262543c3.0668779 0 6.0298631-1.0899423 7.9252902-2.915918l.0654442-.0628813V13.6148861h-8.6255429v3.0174954z"/><path id="y" d="M37.217752 47.6586532H65.0485997c.1270592 0 .250046-.0233558.3673314-.0563762 1.5352984-.1103361 3.9176581-.4332909 5.7363962-1.3900746 1.9172905-1.0075223 4.6531353-2.8542438 6.2853571-7.2419187.6890517-1.8531644 1.5719502-4.8853957 2.322088-7.5922561l.001629.0016107c.001629-.0072483.0130317-.0515439.0309503-.1200006.7574682-2.7406861 1.4994612-5.6593597 2.1372006-8.2655484.7900475-3.0137077 1.6191901-6.1103688 2.1469744-7.9192378 1.6118597-5.51197629-1.015659-6.61372726-4.9911453-8.28407193l-.3412679-.14174573c-.9692336-.40832438-2.3041694-.85289056-3.790599-1.29504062l-.0040724-.00644298c-.0863351-.02416121-.1734846-.04832241-.2590052-.07167825-.8861564-.26255176-1.8203672-.52188203-2.7627228-.77396394-2.8572026-.78282306-5.7160342-1.48994101-8.5911554-2.10283025-.4007251-.09181258-.6621738-.14979947-.7387351-.16751769l-.0114028.00805373C57.6987147 1.22806471 52.7572528.51047691 47.6781435.29463681c-9.2891665-.39463302-18.6369756.56134534-27.63863 2.86712971-1.7429913.4469823-3.4729509.92859566-5.1890644 1.47544428-3.3629959 1.0703414-6.65350291 2.36940888-9.87233551 3.81424896-.83158606.37449868-1.69819484.76107797-2.52815193 1.17020772-.43982025.21825622-.87556808.44295542-1.3031711.68215132-.33393759.1868467-.89918805.3841632-1.04009343.7634941-.07248889.1940951-.05538477.413962.04886892.5919496l.0586427.1006717c.28018178.4791972.7713144.3511428 1.17366847.1433564.59212836-.3068473 1.19321603-.601614 1.79756163-.8867162C5.4285221 9.95831361 7.74653768 9.02891257 10.0694402 8.15427693c1.8521319-.69745346 3.7286983-1.33450391 5.6256267-1.90148686 2.2838073-.68215137 4.596936-1.26604717 6.9296123-1.75007665 2.7195552-.56537221 5.4668027-.99222017 8.228711-1.29101374 3.1601899-.33906225 6.3407418-.50657994 9.5188503-.51543905 3.6105985-.00805374 7.2187534.1884574 10.8081753.5685937 4.0626359.43248558 8.0983939 1.09852947 12.0877264 1.96591675 4.5179313.98336106 8.9780344 2.22363627 13.3648341 3.67411397.2133942.07167824.6768345.24000131 1.0661568.38255242l.2663356.11275229c3.9412781 1.65343184 4.2646274 1.79034534 3.358109 4.88781184-.1979191.6789299-.5017208 1.8040367-.8519481 3.1345137l-.0162896.012886c-.0024435.006443-.0407241.1731553-.1083261.461479-1.1720395 4.476266-2.7708675 10.8507974-2.8075192 10.9981807-.860093 3.1039096-1.9221774 6.7562785-2.7920441 9.0958885-1.2779222 3.4405557-3.3108691 4.8628453-4.9390185 5.7197627-2.2137619 1.1629594-5.8895188 1.2491343-5.925356 1.2491343H37.217752v2.6988067z"/><path id="A" d="M.06254643.20846184H84.5582553V47.6586532H.06254643z"/></defs><g fill="none" fill-rule="evenodd"><g transform="translate(119.11032 41.238655)"><mask id="b" fill="#fff"><use xlink:href="#a"/></mask><use fill="#050302" xlink:href="#a"/><g fill="#0A2240" stroke="#979797" stroke-width="1.0176" mask="url(#b)"><path d="M-71.970396-2.089179h87.9599158v85.9604211H-71.970396z"/></g></g><g transform="translate(112.303578 41.238655)"><mask id="d" fill="#fff"><use xlink:href="#c"/></mask><use fill="#050302" xlink:href="#c"/><g fill="#0A2240" stroke="#979797" stroke-width="1.0176" mask="url(#d)"><path d="M-40.48635-1.078403h85.9604211v87.9599158H-40.48635z"/></g></g><g transform="translate(107.009445 41.238655)"><mask id="f" fill="#fff"><use xlink:href="#e"/></mask><use fill="#050302" xlink:href="#e"/><g fill="#0A2240" stroke="#979797" stroke-width="1.0176" mask="url(#f)"><path d="M-17.243351-1.60747h90.959158v87.9599158h-90.959158z"/></g></g><g transform="translate(104.362379 45.720169)"><mask id="h" fill="#fff"><use xlink:href="#g"/></mask><use fill="#050302" xlink:href="#g"/><g fill="#0A2240" stroke="#979797" stroke-width="1.0176" mask="url(#h)"><path d="M-39.467303-5.093092h89.9594106v9.97962106H-39.467303z"/></g></g><g transform="translate(144.824678 11.735355)"><mask id="j" fill="#fff"><use xlink:href="#i"/></mask><use xlink:href="#i"/><g fill="#3CB4E5" stroke="#979797" stroke-width="1.0176" mask="url(#j)">
<path d="M-48.986074-20.766598h86.9601685v85.9604211H-48.986074z"/></g>
</g>
<g transform="translate(127.051519 11.361895)">
<mask id="l" fill="#fff">
<use xlink:href="#k"/></mask>
<use xlink:href="#k"/>
<g fill="#3CB4E5" stroke="#979797" stroke-width="1.0176" mask="url(#l)">
<path d="M-31.382046-28.643674h87.9599158v85.9604211H-31.382046z"/></g></g>
<g transform="translate(107.76575 11.735355)">
<mask id="n" fill="#fff"><use xlink:href="#m"/></mask><use xlink:href="#m"/><g fill="#3CB4E5" stroke="#979797" stroke-width="1.0176" mask="url(#n)">
<path d="M-15.011887-13.936767h86.9601685v85.9604211H-15.011887z"/></g></g><g transform="translate(91.189443 17.543539)">
<mask id="p" fill="#fff"><use xlink:href="#o"/></mask><use xlink:href="#o"/><g fill="#0A2240" stroke="#979797" stroke-width="1.0176" mask="url(#p)">
<path d="M-57.047875-7.280498h86.9601685v85.9604211H-57.047875z"/></g></g><g transform="translate(-.007663 9.494598)"><g transform="translate(22.86498)">
<g transform="translate(7.096028 8.048941)"><g transform="translate(15.768952)"><g transform="translate(14.192057)">
<mask id="r" fill="#fff"><use xlink:href="#q"/></mask><use xlink:href="#q"/><g fill="#0A2240" stroke="#979797" stroke-width="1.0176" mask="url(#r)"><path d="M-67.823325-10.136574H59.126738v74.9632H-67.823325z"/></g><use fill="#0A2240" xlink:href="#s"/></g><use fill="#1C2742" xlink:href="#u"/></g><use fill="#1C2742" xlink:href="#v"/></g><use fill="#1C2742" xlink:href="#w"/></g><use fill="#1C2742" xlink:href="#x"/></g><g transform="translate(94.530419 -.215349)"><mask id="z" fill="#fff"><use xlink:href="#y"/></mask><use xlink:href="#y"/><g fill="#EA6852" stroke="#979797" stroke-width="1.0176" mask="url(#z)"><path d="M-15.011887-10.922308h118.952084v116.95259H-15.011887z"/></g></g><path fill="#C5C5C5" d="M181.127302 2.67015961V1.65194846h3.781523v1.01821115h-1.335216v3.83676226h-1.124602V2.67015961zM186.876901 1.65194846l.58066 2.12474086c.022558.07727874.048458.17833556.076865.30232124.029242.12483489.059319.2454237.091067.36346486.034255.1401208.070181.28788455.106107.44159282h.013367c.030913-.15370827.064332-.30147202.100258-.44159282.026736-.11804116.055978-.23862997.08689-.36346486.031749-.12398568.057649-.2250425.080207-.30232124l.58818-2.12474086h1.602455v4.85497341h-1.081114V3.82849155c0-.10615212.001671-.21400268.005848-.32270245.004178-.12653333.00919-.26495569.013368-.41441788h-.013368c-.035926.1401208-.066838.26920178-.093574.38724294-.021722.10360447-.045951.20466129-.07018.30147202-.024229.09765995-.043446.16899418-.055978.21400268l-.689273 2.51283301h-.975008l-.680919-2.50519006c-.013367-.04585771-.033419-.11804116-.060155-.21739954-.025899-.1002076-.050964-.20211364-.073522-.30571811-.0259-.11804116-.055977-.24712214-.08689-.38724294h-.013368c0 .14946219.002507.28788455.007519.41441788.003342.10869977.006684.21655033.009191.3252501.002506.10869977.003342.18852617.003342.23778075v2.43810192h-1.061899V1.65194846h1.589924z"/></g></svg>