<?xml version="1.0" encoding="UTF-8"?>
<svg width="39px" height="74px" viewBox="0 0 39 74" version="1.1" xmlns="http://www.w3.org/2000/svg" xmlns:xlink="http://www.w3.org/1999/xlink">
    <g id="desktop-" stroke="none" stroke-width="1" fill="none" fill-rule="evenodd">
        <g id="main_pagez" transform="translate(-281.000000, -4011.000000)">
            <g id="benefits-&amp;-perks-comp" transform="translate(252.000000, 3563.000000)">
                <g id="learning-&amp;-grow-card-4" transform="translate(28.000000, 449.000000)">
                    <g id="learning-&amp;-grow-icon" transform="translate(2.000000, 0.000000)">
                        <g id="Group-5" transform="translate(0.000000, 42.317384)" fill="#BFDEEE">
                            <path d="M34.8211142,0.109450951 C35.0944724,0.109450951 35.3070843,0.344888213 35.2794724,0.613177186 L34.5449948,7.59142814 C34.520144,7.82412776 34.3240993,7.99933688 34.0893978,7.99933688 L1.19253209,7.99933688 C0.957830597,7.99933688 0.759024627,7.82412776 0.734173881,7.59142814 L0.00245746269,0.613177186 C-0.0251544776,0.344888213 0.187457463,0.109450951 0.460815672,0.109450951 L34.8211142,0.109450951 Z" id="Fill-1"></path>
                            <path d="M31.8417858,8.12255817 L29.1330545,28.8957901 C29.1026813,29.1230144 28.9066366,29.2927483 28.6746963,29.2927483 L6.60447239,29.2927483 C6.37529328,29.2927483 6.17924851,29.1230144 6.14887537,28.8957901 L3.44014403,8.12255817 L31.8417858,8.12255817 Z" id="Fill-3"></path>
                        </g>
                        <path d="M34.0892873,50.3168304 L1.19242164,50.3168304 C0.957720149,50.3168304 0.758914179,50.1416213 0.734063433,49.9089217 L0.00234701493,42.9306707 C-0.0252649254,42.6623817 0.187347015,42.4269445 0.460705224,42.4269445 L34.8210037,42.4269445 C35.0943619,42.4269445 35.3069739,42.6623817 35.2793619,42.9306707 L34.5448843,49.9089217 C34.5200336,50.1416213 34.3239888,50.3168304 34.0892873,50.3168304 Z" id="Stroke-6" stroke="#008BFF" stroke-width="1.09560002"></path>
                        <path d="M28.6746134,71.6101323 L6.60438955,71.6101323 C6.37521045,71.6101323 6.17916567,71.4403985 6.14879254,71.2131741 L3.44006119,50.4399422 L31.841703,50.4399422 L29.1329716,71.2131741 C29.1025985,71.4403985 28.9065537,71.6101323 28.6746134,71.6101323 Z" id="Stroke-8" stroke="#008BFF" stroke-width="1.09560002"></path>
                        <path d="M17.8240045,42.4280395 C17.8240045,42.4280395 15.2530567,16.9375757 28.4753104,6.13429049" id="Stroke-10" stroke="#008BFF" stroke-width="1.09560002" stroke-linecap="round"></path>
                        <path d="M17.806747,31.0014753 C15.984359,25.029308 12.9086649,19.0727452 7.73115,15.3008213" id="Stroke-12" stroke="#008BFF" stroke-width="1.09560002" stroke-linecap="round"></path>
                        <path d="M12.6049612,13.1334023 C15.5834612,16.2450068 16.5222672,20.1959726 14.6051701,22.051273 C12.687797,23.9062996 8.68378955,22.9212958 5.66193881,19.8515772 C2.64008806,16.7815848 3.37318507,12.1708471 0.703386567,10.5512578 C-2.37782985,8.6822692 8.68765522,9.04117414 12.6049612,13.1334023 Z" id="Stroke-14" stroke="#008BFF" stroke-width="1.09560002"></path>
                        <path d="M24.363506,3.49991179 C21.3355806,6.56388137 20.3332672,10.4997901 22.2205433,12.3849308 C24.1078194,14.2700715 28.1270134,13.348581 31.1977373,10.3264973 C34.2684612,7.30468745 33.6093642,2.68299924 36.3051179,1.10584335 C39.4158791,-0.714415209 28.3459761,-0.530171863 24.363506,3.49991179 Z" id="Stroke-16" stroke="#008BFF" stroke-width="1.09560002"></path>
                    </g>
                </g>
            </g>
        </g>
    </g>
</svg>