<svg xmlns="http://www.w3.org/2000/svg" width="36" height="37"><g fill="none" fill-rule="evenodd"><path d="M-2.5-1.75h40.9897507v40.9897507H-2.5z"/><path fill="#3A4850" d="M17.9949107.8945c4.8478355 0 5.4557192.02054858 7.3596515.10741948 1.8999643.08665833 3.1975718.38843904 4.3329872.82973753 1.17382.45610765 2.1692925 1.06647137 3.1617181 2.05882612.9923547.99242561 1.6027184 1.98789808 2.0588969 3.16171807.4412277 1.13541539.7430084 2.43302286.8296667 4.3329872.0868709 1.9039323.1074195 2.511816.1074195 7.3597223 0 4.8478355-.0205486 5.4557192-.1074195 7.3596515-.0866583 1.8999643-.388439 3.1975718-.8296667 4.3329872-.4561785 1.17382-1.0665422 2.1692925-2.0588969 3.1617181-.9924256.9923547-1.9878981 1.6027184-3.1617181 2.0588969-1.1354154.4412277-2.4330229.7430084-4.3329872.8296667-1.9039323.0868709-2.511816.1074195-7.3596515.1074195-4.8479063 0-5.45579-.0205486-7.3597223-.1074195-1.89996434-.0866583-3.19757181-.388439-4.3329872-.8296667-1.17381999-.4561785-2.16929246-1.0665422-3.16171807-2.0588969-.99235475-.9924256-1.60271847-1.9878981-2.05882611-3.1617181-.4412985-1.1354154-.74307921-2.4330229-.82973754-4.3329872C.16504858 24.2006299.1445 23.5927462.1445 18.7449107c0-4.8479063.02054858-5.45579.10741948-7.3597223.08665833-1.89996434.38843904-3.19757181.82973754-4.3329872.45610764-1.17381999 1.06647136-2.16929246 2.05882611-3.16171807.99242561-.99235475 1.98789808-1.60271847 3.16171807-2.05882611 1.13541539-.4412985 2.43302286-.74307921 4.3329872-.82973754C12.5391207.91504858 13.1470044.8945 17.9949107.8945zm0 3.21627809c-4.7662788 0-5.3308688.0182103-7.2131188.10408919-1.74039398.07936004-2.68555785.37015789-3.31455701.61461515-.83320954.3238173-1.42784296.71062662-2.05244897 1.33530349-.62467687.62460601-1.01148619 1.21923943-1.33530349 2.05244897-.24445726.62899916-.53525511 1.57416303-.61461515 3.31455701-.08587889 1.88225-.10408919 2.44684-.10408919 7.2131188 0 4.766208.0182103 5.330798.10408919 7.213048.07936004 1.740394.37015789 2.6855578.61461515 3.314557.3238173.8332095.71069748 1.427843 1.33530349 2.052449.62460601.6246768 1.21923943 1.0114862 2.05244897 1.3353035.62899916.2444572 1.57416303.5352551 3.31455701.6146151 1.8820374.0858789 2.4464857.1040892 7.2131188.1040892 4.7665623 0 5.3310814-.0182103 7.213048-.1040892 1.740394-.07936 2.6855578-.3701579 3.314557-.6146151.8332095-.3238173 1.427843-.7106267 2.052449-1.3353035.6246768-.624606 1.0114862-1.2192395 1.3353035-2.052449.2444572-.6289992.5352551-1.574163.6146151-3.314557.0858789-1.88225.1040892-2.44684.1040892-7.213048 0-4.7662788-.0182103-5.3308688-.1040892-7.2131188-.07936-1.74039398-.3701579-2.68555785-.6146151-3.31455701-.3238173-.83320954-.7106267-1.42784296-1.3353035-2.05244897-.624606-.62467687-1.2192395-1.01148619-2.052449-1.33530349-.6289992-.24445726-1.574163-.53525511-3.314557-.61461515-1.88225-.08587889-2.44684-.10408919-7.213048-.10408919zm0 5.46769402c5.0624618 0 9.1663678 4.10390589 9.1663678 9.16643859 0 5.0624618-4.103906 9.1663678-9.1663678 9.1663678-5.0625327 0-9.16643859-4.103906-9.16643859-9.1663678 0-5.0625327 4.10390589-9.16643859 9.16643859-9.16643859zm0 15.11652829c3.2861433 0 5.9500897-2.6639464 5.9500897-5.9500897 0-3.2862141-2.6639464-5.9501605-5.9500897-5.9501605-3.2862141 0-5.9501605 2.6639464-5.9501605 5.9501605 0 3.2861433 2.6639464 5.9500897 5.9501605 5.9500897zM29.6655128 9.21632108c0 1.18303141-.9590519 2.14201242-2.1420833 2.14201242-1.1829605 0-2.1420124-.95898101-2.1420124-2.14201242 0-1.18303142.9590519-2.1420833 2.1420124-2.1420833 1.1830314 0 2.1420833.95905188 2.1420833 2.1420833z"/></g></svg>