<svg xmlns="http://www.w3.org/2000/svg" width="24" height="24"><g fill="none" fill-rule="evenodd"><path fill="#E8E8E8" d="M-1021-18H419v58h-1440z"/><path d="M-1-1h26.6600004v26.6600004H-1z"/><path fill="#B1BDC5" d="M12.3300232.72c3.1530637 0 3.5484353.01336493 4.7867652.06986633 1.2357492.05636314 2.0797215.25264328 2.8182031.53966669.7634601.29665538 1.4109219.69363991 2.056402 1.33907389.645434.64548008 1.0424185 1.29294185 1.33912 2.056402.2869773.73848156.4832574 1.58245389.5396206 2.81820305.0565014 1.23832997.0698663 1.63370149.0698663 4.78681124 0 3.1530637-.0133649 3.5484353-.0698663 4.7867652-.0563632 1.2357492-.2526433 2.0797215-.5396206 2.8182031-.2967015.7634601-.693686 1.4109219-1.33912 2.056402-.6454801.645434-1.2929419 1.0424185-2.056402 1.33912-.7384816.2869773-1.5824539.4832574-2.8182031.5396206-1.2383299.0565014-1.6337015.0698663-4.7867652.0698663-3.15310975 0-3.54848127-.0133649-4.78681124-.0698663-1.23574916-.0563632-2.07972149-.2526433-2.81820305-.5396206-.76346015-.2967015-1.41092192-.693686-2.056402-1.33912-.64543398-.6454801-1.04241851-1.2929419-1.3390739-2.056402-.2870234-.7384816-.48330354-1.5824539-.53966668-2.8182031C.73336493 15.8784585.72 15.4830869.72 12.3300232c0-3.15310975.01336493-3.54848127.06986633-4.78681124.05636314-1.23574916.25264328-2.07972149.53966669-2.81820305.29665538-.76346015.69363991-1.41092192 1.33907389-2.056402.64548008-.64543398 1.29294185-1.04241851 2.056402-1.3390739.73848156-.2870234 1.58245389-.48330354 2.81820305-.53966668C8.78154193.73336493 9.17691345.72 12.3300232.72zm0 2.09188819c-3.10001871 0-3.46723171.01184409-4.69145937.06770029-1.13196356.05161628-1.74670429.2407531-2.15580943.39974969-.5419249.21061287-.92867835.46219617-1.33492616.86849007-.4062939.40624781-.6578772.79300126-.86849007 1.33492616-.15899659.40910514-.34813341 1.02384587-.39974969 2.15580943-.0558562 1.22422766-.06770029 1.59144066-.06770029 4.69145937 0 3.0999727.01184409 3.4671857.06770029 4.6914134.05161628 1.1319635.2407531 1.7467042.39974969 2.1558094.21061287.5419249.46224226.9286783.86849007 1.3349261.40624781.4062939.79300126.6578772 1.33492616.8684901.40910514.1589966 1.02384587.3481334 2.15580943.3997497 1.2240894.0558562 1.59121023.0677003 4.69145937.0677003 3.1002031 0 3.46737-.0118441 4.6914134-.0677003 1.1319635-.0516163 1.7467042-.2407531 2.1558094-.3997497.5419249-.2106129.9286783-.4621962 1.3349261-.8684901.4062939-.4062478.6578772-.7930012.8684901-1.3349261.1589966-.4091052.3481334-1.0238459.3997497-2.1558094.0558562-1.2242277.0677003-1.5914407.0677003-4.6914134 0-3.10001871-.0118441-3.46723171-.0677003-4.69145937-.0516163-1.13196356-.2407531-1.74670429-.3997497-2.15580943-.2106129-.5419249-.4621962-.92867835-.8684901-1.33492616-.4062478-.4062939-.7930012-.6578772-1.3349261-.86849007-.4091052-.15899659-1.0238459-.34813341-2.1558094-.39974969-1.2242277-.0558562-1.5914407-.06770029-4.6914134-.06770029zm0 3.55622375c3.2926581 0 5.9618652 2.66920711 5.9618652 5.96191126 0 3.2926581-2.6692071 5.9618652-5.9618652 5.9618652-3.29270415 0-5.96191126-2.6692071-5.96191126-5.9618652 0-3.29270415 2.66920711-5.96191126 5.96191126-5.96191126zm0 9.83188836c2.137329 0 3.8699771-1.7326481 3.8699771-3.8699771 0-2.137375-1.7326481-3.87002307-3.8699771-3.87002307-2.137375 0-3.87002307 1.73264807-3.87002307 3.87002307 0 2.137329 1.73264807 3.8699771 3.87002307 3.8699771zm7.5906355-10.06743375c0 .76945133-.6237735 1.39317883-1.3932249 1.39317883-.7694052 0-1.3931788-.6237275-1.3931788-1.39317883 0-.76945132.6237736-1.39322491 1.3931788-1.39322491.7694514 0 1.3932249.62377359 1.3932249 1.39322491z"/></g></svg>
