<svg xmlns="http://www.w3.org/2000/svg" viewBox="0 0 28 25">
    <defs>
        <polygon id="path-1" points="0 0.984 15.9996 0.984 15.9996 16.9825 0 16.9825"/>
        <polygon id="path-3" points="0.9588 0.2501 16.9578 0.2501 16.9578 19 0.9588 19"/>
    </defs>
    <g id="symbol" stroke-width="1" fill="none" fill-rule="evenodd">
        <g id="Group-15-Copy" transform="translate(0.000000, -1.000000)">
            <g id="Group-3" transform="translate(0.000000, 0.016500)">
                <mask id="mask-2" fill="white">
                    <use xmlns:xlink="http://www.w3.org/1999/xlink" xlink:href="#path-1"/>
                </mask>
                <g id="Clip-2"/>
                <path d="M10.6216,16.0755 L2.5336,16.0755 C1.6366,16.0755 0.9076,15.3465 0.9076,14.4495 L0.9076,3.5165 C0.9076,2.6205 1.6366,1.8905 2.5336,1.8905 L13.4666,1.8905 C14.3626,1.8905 15.0926,2.6205 15.0926,3.5165 L15.0926,5.9305 C15.0926,6.1815 15.2956,6.3855 15.5456,6.3855 C15.7966,6.3855 15.9996,6.1815 15.9996,5.9305 L15.9996,3.5165 C15.9996,2.1195 14.8636,0.9835 13.4666,0.9835 L2.5336,0.9835 C1.1366,0.9835 -0.0004,2.1195 -0.0004,3.5165 L-0.0004,14.4495 C-0.0004,15.8465 1.1366,16.9825 2.5336,16.9825 L10.6216,16.9825 C10.8716,16.9825 11.0756,16.7795 11.0756,16.5295 C11.0756,16.2785 10.8716,16.0755 10.6216,16.0755" id="Fill-1" mask="url(#mask-2)"/>
            </g>
            <g id="Group-6" transform="translate(11.000000, 7.016500)">
                <mask id="mask-4" fill="white">
                    <use xmlns:xlink="http://www.w3.org/1999/xlink" xlink:href="#path-3"/>
                </mask>
                <g id="Clip-5"/>
                <path d="M16.0508,13.7171 C16.0508,14.6131 15.3218,15.3431 14.4248,15.3431 L7.9988,15.3431 C7.8888,15.3431 7.7828,15.3831 7.6998,15.4551 L5.3198,17.5441 L5.3198,15.7961 C5.3198,15.5461 5.1158,15.3431 4.8658,15.3431 L3.4918,15.3431 C2.5948,15.3431 1.8658,14.6131 1.8658,13.7171 L1.8658,2.7831 C1.8658,1.8871 2.5948,1.1571 3.4918,1.1571 L14.4248,1.1571 C15.3218,1.1571 16.0508,1.8871 16.0508,2.7831 L16.0508,13.7171 Z M14.4248,0.2501 L3.4918,0.2501 C2.0948,0.2501 0.9588,1.3871 0.9588,2.7831 L0.9588,13.7171 C0.9588,15.1131 2.0948,16.2501 3.4918,16.2501 L4.4118,16.2501 L4.4118,18.5461 C4.4118,18.7241 4.5158,18.8861 4.6778,18.9591 C4.7378,18.9871 4.8018,19.0001 4.8658,19.0001 C4.9738,19.0001 5.0808,18.9611 5.1648,18.8871 L8.1698,16.2501 L14.4248,16.2501 C15.8218,16.2501 16.9578,15.1131 16.9578,13.7171 L16.9578,2.7831 C16.9578,1.3871 15.8218,0.2501 14.4248,0.2501 L14.4248,0.2501 Z" id="Fill-4" mask="url(#mask-4)"/>
            </g>
            <path d="M5.5899,8.9583 C6.2399,8.9583 6.5659,8.6763 6.5659,8.1113 C6.5659,7.8363 6.4849,7.6253 6.3239,7.4793 C6.1619,7.3323 5.9179,7.2593 5.5899,7.2593 L4.4589,7.2593 L4.4589,8.9583 L5.5899,8.9583 Z M3.8839,11.2173 C3.8579,11.1883 3.8449,11.1533 3.8449,11.1103 L3.8449,6.8913 C3.8449,6.8433 3.8579,6.8063 3.8839,6.7773 C3.9099,6.7493 3.9439,6.7353 3.9869,6.7353 L5.6219,6.7353 C6.1089,6.7353 6.4919,6.8533 6.7689,7.0873 C7.0479,7.3223 7.1859,7.6643 7.1859,8.1113 C7.1859,8.5603 7.0479,8.9003 6.7689,9.1333 C6.4919,9.3653 6.1089,9.4813 5.6219,9.4813 L4.4589,9.4813 L4.4589,11.1103 C4.4589,11.1533 4.4449,11.1883 4.4169,11.2173 C4.3889,11.2453 4.3539,11.2593 4.3109,11.2593 L3.9869,11.2593 C3.9439,11.2593 3.9099,11.2453 3.8839,11.2173 L3.8839,11.2173 Z" id="Fill-7"/>
            <path d="M11.167,6.7737 C11.193,6.7997 11.206,6.8307 11.206,6.8647 C11.206,6.8907 11.199,6.9197 11.187,6.9557 L9.868,9.9407 C9.717,10.2817 9.584,10.5407 9.471,10.7187 C9.356,10.8987 9.218,11.0327 9.057,11.1237 C8.896,11.2137 8.689,11.2587 8.44,11.2587 L8.181,11.2587 C8.138,11.2587 8.104,11.2457 8.078,11.2167 C8.052,11.1887 8.039,11.1537 8.039,11.1107 L8.039,10.8587 C8.039,10.8107 8.052,10.7737 8.078,10.7457 C8.104,10.7167 8.138,10.7037 8.181,10.7037 L8.414,10.7037 C8.582,10.7037 8.724,10.6497 8.84,10.5417 C8.957,10.4337 9.078,10.2527 9.202,9.9997 L7.522,6.9427 C7.509,6.9167 7.502,6.8927 7.502,6.8717 C7.502,6.8327 7.517,6.7997 7.545,6.7737 C7.573,6.7487 7.604,6.7357 7.639,6.7357 L7.981,6.7357 C8.041,6.7357 8.093,6.7697 8.136,6.8387 L9.506,9.3267 L10.592,6.8387 C10.618,6.7697 10.671,6.7357 10.753,6.7357 L11.077,6.7357 C11.111,6.7357 11.141,6.7487 11.167,6.7737" id="Fill-9"/>
            <path d="M18.6055,15.8704 C18.8055,15.5994 18.9145,15.2414 18.9325,14.7994 C18.9385,14.7384 18.9415,14.6514 18.9415,14.5364 C18.9415,13.3744 18.5115,12.7934 17.6525,12.7934 C17.2295,12.7934 16.9095,12.9334 16.6945,13.2154 C16.4805,13.4964 16.3665,13.8284 16.3545,14.2094 C16.3485,14.2754 16.3455,14.3934 16.3455,14.5634 C16.3455,14.7324 16.3485,14.8504 16.3545,14.9174 C16.3665,15.2864 16.4825,15.6054 16.7035,15.8754 C16.9245,16.1444 17.2405,16.2794 17.6525,16.2794 C18.0885,16.2794 18.4055,16.1424 18.6055,15.8704 M15.5875,18.5664 C15.5475,18.5304 15.5285,18.4784 15.5285,18.4124 L15.5285,12.3854 C15.5285,12.3184 15.5475,12.2664 15.5875,12.2304 C15.6265,12.1944 15.6765,12.1764 15.7365,12.1764 L16.1185,12.1764 C16.1845,12.1764 16.2365,12.1944 16.2725,12.2304 C16.3095,12.2664 16.3275,12.3184 16.3275,12.3854 L16.3275,12.7844 C16.6775,12.3184 17.1775,12.0854 17.8255,12.0854 C18.4605,12.0854 18.9375,12.2864 19.2545,12.6884 C19.5725,13.0914 19.7405,13.6034 19.7585,14.2274 C19.7645,14.2944 19.7675,14.3974 19.7675,14.5364 C19.7675,14.6754 19.7645,14.7784 19.7585,14.8454 C19.7405,15.4624 19.5725,15.9744 19.2545,16.3794 C18.9375,16.7844 18.4605,16.9874 17.8255,16.9874 C17.1775,16.9874 16.6875,16.7574 16.3545,16.2974 L16.3545,18.4124 C16.3545,18.4734 16.3345,18.5224 16.2955,18.5624 C16.2555,18.6014 16.2065,18.6214 16.1455,18.6214 L15.7365,18.6214 C15.6765,18.6214 15.6265,18.6024 15.5875,18.5664" id="Fill-11"/>
            <path d="M24.7017,12.2307 C24.7417,12.2667 24.7607,12.3087 24.7607,12.3577 C24.7607,12.3817 24.7427,12.4357 24.7057,12.5207 L22.9817,16.6057 L22.8997,16.7967 C22.7357,17.1837 22.5897,17.4987 22.4597,17.7407 C22.3287,17.9827 22.1657,18.1897 21.9697,18.3627 C21.7727,18.5357 21.5407,18.6217 21.2747,18.6217 L20.9297,18.6217 C20.8687,18.6217 20.8197,18.6017 20.7797,18.5627 C20.7407,18.5227 20.7217,18.4727 20.7217,18.4127 L20.7217,18.1307 C20.7217,18.0707 20.7407,18.0207 20.7797,17.9817 C20.8197,17.9417 20.8687,17.9217 20.9297,17.9217 L21.1657,17.9217 C21.2987,17.9217 21.4077,17.8947 21.4927,17.8407 C21.5767,17.7867 21.6547,17.6987 21.7237,17.5777 C21.7937,17.4567 21.8827,17.2687 21.9917,17.0137 L22.1457,16.6427 L20.3757,12.5207 C20.3457,12.4427 20.3307,12.3907 20.3307,12.3667 C20.3307,12.3117 20.3487,12.2667 20.3847,12.2307 C20.4217,12.1947 20.4667,12.1757 20.5207,12.1757 L20.9207,12.1757 C21.0167,12.1757 21.0897,12.2247 21.1387,12.3217 L22.5547,15.6797 L23.9617,12.3217 C24.0037,12.2247 24.0797,12.1757 24.1887,12.1757 L24.5697,12.1757 C24.6187,12.1757 24.6617,12.1947 24.7017,12.2307" id="Fill-13"/>
        </g>
    </g>
</svg>