<svg xmlns="http://www.w3.org/2000/svg" width="25" height="25"><g fill="none" fill-rule="evenodd"><path fill="#E8E8E8" d="M-1147-19H293v58h-1440z"/><path d="M-1-1h27v27H-1z"/><path fill="#B1BDC5" d="M22.5174294.74193548c.9592355 0 1.7406351.75904839 1.7406351 1.69446775V22.5614738c0 .9363992-.7813996 1.6965907-1.7406351 1.6965907H2.47767154c-.95760243 0-1.73573606-.7601915-1.73573606-1.6965907V2.43640323c0-.93541936.77813363-1.69446775 1.73573606-1.69446775H22.5174294zM6.42565607 3.56378931c-1.0473585 0-1.89506716.91322519-1.89506716 2.03743517 0 1.12519744.84770866 2.03842262 1.89506716 2.03842262 1.04460472 0 1.89353728-.91322518 1.89353728-2.03842262 0-1.12420998-.84893256-2.03743517-1.89353728-2.03743517zM4.79097515 20.4954022h3.26767898V9.1856621H4.79097515v11.3097401zM10.2134956 9.4814035v11.0139987h3.6417293V15.046982c0-1.436511.2911336-2.8278254 2.1875974-2.8278254 1.8689887 0 1.8940747 1.6429403 1.8940747 2.9201416v5.356104h3.6424119v-6.0412634c0-2.9651779-.681587-5.2464785-4.3724643-5.2464785-1.7730819 0-2.9620195.9127446-3.4487211 1.77869h-.0488067V9.4814035h-3.4958212z"/></g></svg>
