<svg xmlns="http://www.w3.org/2000/svg" width="36" height="36"><g fill="none" fill-rule="evenodd"><path d="M-2-2h40.5638298v40.5638298H-2z"/><path fill="#3A4850" d="M33.3317409.61702128c1.4411208 0 2.6150676 1.14036702 2.6150676 2.54570744V33.3979116c0 1.4068125-1.1739468 2.5488969-2.6150676 2.5488969H3.22472876c-1.43866748 0-2.60770748-1.1420844-2.60770748-2.5488969V3.16272872c0-1.40534042 1.16904-2.54570744 2.60770748-2.54570744H33.3317409zM9.1560389 4.85647307c-1.57351383 0-2.84708085 1.3719967-2.84708085 3.06096939 0 1.69045624 1.27356702 3.06245294 2.84708085 3.06245294 1.5693765 0 2.8447823-1.3719967 2.8447823-3.06245294 0-1.68897269-1.2754058-3.06096939-2.8447823-3.06096939zM6.70015297 30.2939199h4.90924343V13.3025728H6.70015297v16.9913471zM14.8467528 13.746884v16.5470359h5.4712033v-8.1855108c0-2.1581624.4373886-4.2484233 3.2865677-4.2484233 2.8079015 0 2.8455897 2.4682945 2.8455897 4.3871159v8.0468182h5.4722288v-9.0761772c0-4.4547767-1.0239918-7.8821207-6.5690333-7.8821207-2.6638145 0-4.4500316 1.3712747-5.1812346 2.67224h-.0733254v-2.260978h-5.2519962z"/></g></svg>