<?xml version="1.0" encoding="UTF-8"?>
<svg width="24px" height="24px" viewBox="0 0 24 24" version="1.1" xmlns="http://www.w3.org/2000/svg" xmlns:xlink="http://www.w3.org/1999/xlink">
    <!-- Generator: Sketch 55 (78076) - https://sketchapp.com -->
    <title>Group 4</title>
    <desc>Created with Sketch.</desc>
    <g id="symbol" stroke="none" stroke-width="1" fill="none" fill-rule="evenodd">
        <g id="Group-4" transform="translate(-15.000000, -16.000000)">
            <rect id="Rectangle-Copy" x="0" y="0" width="55" height="55"></rect>
            <g id="locattion-icon" transform="translate(16.000000, 17.000000)" stroke="#B1BDC5" stroke-linecap="round" stroke-linejoin="round" stroke-width="0.959087913">
                <path d="M14.7620571,6.6672619 C14.7620571,8.50835714 13.2692476,10.0000714 11.4292476,10.0000714 C9.58705714,10.0000714 8.09534286,8.50835714 8.09534286,6.6672619 C8.09534286,4.82616667 9.58705714,3.33335714 11.4292476,3.33335714 C13.2692476,3.33335714 14.7620571,4.82616667 14.7620571,6.6672619 Z" id="Stroke-1"></path>
                <path d="M17.9573048,7.00525238 C17.9573048,10.6118714 11.4285905,20.4985857 11.4285905,20.4985857 C11.4285905,20.4985857 4.89987619,10.6118714 4.89987619,7.00525238 C4.89987619,3.39972857 7.82197143,0.476538095 11.4285905,0.476538095 C15.0341143,0.476538095 17.9573048,3.39972857 17.9573048,7.00525238 Z" id="Stroke-3"></path>
                <path d="M16.1904667,18.760881 C19.8551333,19.0697381 22.3807524,19.7214048 22.3807524,20.4760238 C22.3807524,21.5285476 17.4773714,22.3817381 11.4283714,22.3817381 C5.38046667,22.3817381 0.475990476,21.5285476 0.475990476,20.4760238 C0.475990476,19.7235952 2.98518095,19.0730238 6.62684762,18.7641667" id="Stroke-5"></path>
            </g>
        </g>
    </g>
</svg>