<?xml version="1.0" encoding="UTF-8"?>
<svg width="10px" height="14px" viewBox="0 0 10 14" version="1.1" xmlns="http://www.w3.org/2000/svg" xmlns:xlink="http://www.w3.org/1999/xlink">
    <!-- Generator: Sketch 56.2 (81672) - https://sketch.com -->
    <title>location_destop</title>
    <desc>Created with Sketch.</desc>
    <g id="location_destop" stroke="none" stroke-width="1" fill="none" fill-rule="evenodd">
        <path d="M3,4.72825422 C3,3.62563725 3.89727729,2.72857143 5,2.72857143 C6.10272271,2.72857143 7,3.62563725 7,4.72825422 C7,5.83129414 6.10272271,6.72857143 5,6.72857143 C3.89727729,6.72857143 3,5.83129414 3,4.72825422 Z M1,4.72820408 C1,5.24885714 1.11533662,5.74440816 1.32275862,6.19502041 C1.3281445,6.21118367 1.33195402,6.22771429 1.3398358,6.24326531 L4.66935961,12.8060408 C4.72939245,12.9242041 4.8573399,13 4.99776683,13 C5.13845649,13 5.26679803,12.9242041 5.32669951,12.8060408 L8.65622332,6.24326531 C8.65950739,6.23702041 8.6601642,6.23040816 8.66305419,6.22367347 C8.87888342,5.76571429 9,5.26012245 9,4.72820408 C9,2.67265306 7.20558292,1 5,1 C2.79441708,1 1,2.67265306 1,4.72820408 Z" id="location" fill="#FFFFFF"></path>
    </g>
</svg>