<svg xmlns="http://www.w3.org/2000/svg" width="8" height="12"><path fill="#FFF" fill-rule="evenodd" d="M2 3.72825422c0-1.10261697.89727729-1.99968279 2-1.99968279s2 .89706582 2 1.99968279c0 1.10303992-.89727729 2.00031721-2 2.00031721s-2-.89727729-2-2.00031721zm-2-.00005014c0 .52065306.11533662 1.01620408.32275862 1.46681633.00538588.01616326.0091954.03269388.01707718.0482449L3.6693596 11.8060408C3.72939245 11.9242041 3.8573399 12 3.99776683 12c.14068966 0 .2690312-.0757959.32893268-.1939592l3.32952381-6.56277549c.00328407-.0062449.00394088-.01285715.00683087-.01959184C7.87888342 4.76571429 8 4.26012245 8 3.72820408 8 1.67265306 6.20558292 0 4 0S0 1.67265306 0 3.72820408z"/></svg>