<?xml version="1.0" encoding="UTF-8"?>
<svg width="152px" height="152px" viewBox="0 0 152 152" version="1.1" xmlns="http://www.w3.org/2000/svg" xmlns:xlink="http://www.w3.org/1999/xlink">
    <!-- Generator: sketchtool 56.2 (101010) - https://sketch.com -->
    <title>E6A5D810-EFAB-47D6-AEF0-964A8780C21A</title>
    <desc>Created with sketchtool.</desc>
    <defs>
        <circle id="path-1" cx="67" cy="67" r="67"></circle>
        <filter x="-10.8%" y="-9.3%" width="121.6%" height="121.6%" filterUnits="objectBoundingBox" id="filter-2">
            <feMorphology radius="0.5" operator="dilate" in="SourceAlpha" result="shadowSpreadOuter1"></feMorphology>
            <feOffset dx="0" dy="2" in="shadowSpreadOuter1" result="shadowOffsetOuter1"></feOffset>
            <feGaussianBlur stdDeviation="4" in="shadowOffsetOuter1" result="shadowBlurOuter1"></feGaussianBlur>
            <feColorMatrix values="0 0 0 0 0   0 0 0 0 0   0 0 0 0 0  0 0 0 0.1 0" type="matrix" in="shadowBlurOuter1"></feColorMatrix>
        </filter>
        <polygon id="path-3" points="0 0.765479 19.259955 0.765479 19.259955 32.950489 0 32.950489"></polygon>
    </defs>
    <g id="career_pahe" stroke="none" stroke-width="1" fill="none" fill-rule="evenodd">
        <g id="about_us_glassesusa_h1" transform="translate(-269.000000, -1102.000000)">
            <g id="logo" transform="translate(110.000000, 1109.000000)">
                <g id="muse" transform="translate(168.000000, 0.000000)">
                    <g>
                        <g id="Oval-Copy">
                            <use fill="black" fill-opacity="1" filter="url(#filter-2)" xlink:href="#path-1"></use>
                            <use fill="#FFFFFF" fill-rule="evenodd" xlink:href="#path-1"></use>
                        </g>
                        <g id="Group-14" transform="translate(43.000000, 50.000000)">
                            <g id="Group-3" transform="translate(0.000000, 0.047190)">
                                <mask id="mask-4" fill="white">
                                    <use xlink:href="#path-3"></use>
                                </mask>
                                <g id="Clip-2"></g>
                                <path d="M9.581715,32.950489 C8.669375,32.950489 7.924345,32.236919 7.924345,31.363189 L7.924345,6.106529 C7.924345,4.985409 6.920485,4.074499 5.689255,4.074499 C4.456595,4.074499 3.451305,4.985409 3.451305,6.106529 L3.451305,31.363189 C3.451305,32.236919 2.710565,32.950489 1.798225,32.950489 C0.762905,32.950489 -0.000715,32.236919 -0.000715,31.363189 L-0.000715,6.106529 C-0.000715,3.162159 2.553265,0.765479 5.689255,0.765479 C7.180745,0.765479 8.590725,1.321749 9.628905,2.275559 C10.667085,1.321749 12.075635,0.765479 13.568555,0.765479 C16.704545,0.765479 19.259955,3.162159 19.259955,6.106529 L19.259955,27.344889 C19.259955,28.250079 18.524935,28.932189 17.556825,28.932189 C16.532945,28.932189 15.805075,28.234349 15.805075,27.344889 L15.805075,6.106529 C15.805075,4.985409 14.802645,4.074499 13.568555,4.074499 C12.335895,4.074499 11.333465,4.985409 11.333465,6.106529 L11.333465,31.363189 C11.333465,32.236919 10.589865,32.950489 9.674665,32.950489 L9.581715,32.950489 Z" id="Fill-1" fill="#4A4A4A" mask="url(#mask-4)"></path>
                            </g>
                            <path d="M21.492328,32.997679 C18.353478,32.997679 15.799498,30.621019 15.799498,27.700959 L19.254378,27.700959 C19.254378,28.822079 20.259668,29.734419 21.492328,29.734419 C22.723558,29.734419 23.727418,28.822079 23.727418,27.700959 L23.727418,2.444299 C23.727418,1.544829 24.471018,0.812669 25.383358,0.812669 C26.390078,0.812669 27.133678,1.544829 27.133678,2.444299 L27.133678,27.700959 C27.133678,30.671069 24.654058,32.997679 21.492328,32.997679" id="Fill-4" fill="#4A4A4A"></path>
                            <path d="M34.591414,32.997679 C31.905874,32.997679 29.717974,30.621019 29.717974,27.700959 L29.717974,26.861549 C29.717974,25.946349 30.421534,25.229919 31.321004,25.229919 C32.263374,25.229919 32.965504,25.962079 32.965504,26.861549 L32.965504,27.700959 C32.965504,28.803489 33.710534,29.734419 34.591414,29.734419 C35.472294,29.734419 36.217324,28.803489 36.217324,27.700959 L36.217324,24.344749 C36.217324,23.828519 36.214464,23.824229 36.122944,23.634039 L30.301414,12.042459 C30.045444,11.509069 29.872414,11.148709 29.812354,10.732579 C29.763734,10.535239 29.717974,10.206339 29.717974,9.552829 L29.717974,6.153719 C29.717974,3.209349 31.905874,0.812669 34.591414,0.812669 C37.279814,0.812669 39.464854,3.209349 39.464854,6.153719 L39.464854,6.991699 C39.464854,7.906899 38.762724,8.623329 37.861824,8.623329 C36.919454,8.623329 36.217324,7.891169 36.217324,6.991699 L36.217324,6.153719 C36.217324,5.052619 35.472294,4.121689 34.591414,4.121689 C33.710534,4.121689 32.965504,5.052619 32.965504,6.153719 L32.965504,9.552829 C32.965504,10.051899 32.965504,10.051899 33.079904,10.312159 L38.917164,21.928049 C39.111644,22.331309 39.256074,22.630179 39.333294,22.931909 C39.464854,23.286549 39.464854,23.651199 39.464854,24.344749 L39.464854,27.700959 C39.464854,30.621019 37.279814,32.997679 34.591414,32.997679" id="Fill-6" fill="#4A4A4A"></path>
                            <path d="M47.382478,32.997679 L43.335578,32.997679 C42.436108,32.997679 41.729688,32.281249 41.729688,31.366049 L41.729688,2.490059 C41.729688,1.564849 42.450408,0.812669 43.335578,0.812669 L47.382478,0.812669 C48.247628,0.812669 48.949758,1.544829 48.949758,2.444299 C48.949758,3.409549 48.247628,4.121689 47.382478,4.121689 L44.980078,4.121689 L44.980078,15.251379 L47.382478,15.251379 C48.247628,15.251379 48.949758,15.963519 48.949758,16.840109 C48.949758,17.846829 48.247628,18.558969 47.382478,18.558969 L44.980078,18.558969 L44.980078,29.734419 L47.382478,29.734419 C48.247628,29.734419 48.949758,30.446559 48.949758,31.323149 C48.949758,32.301269 48.260498,32.997679 47.382478,32.997679" id="Fill-8" fill="#4A4A4A"></path>
                        </g>
                    </g>
                </g>
            </g>
        </g>
    </g>
</svg>