<svg xmlns="http://www.w3.org/2000/svg" viewBox="1 2 195 90"><path d="M60.29 24.26a8.9 8.9 0 0 0-6.49-2.7h-8.2a1.9 1.9 0 0 0-1.37.57 1.87 1.87 0 0 0-.57 1.37v27a1.91 1.91 0 0 0 .56 1.38 1.94 1.94 0 0 0 1.38.57 2 2 0 0 0 1.4-.56 1.87 1.87 0 0 0 .61-1.4V40.05L53.8 40a9.22 9.22 0 0 0 9.2-9.23 8.91 8.91 0 0 0-2.71-6.51zm-12.7 1.23h6.21a5.36 5.36 0 0 1 5.3 5.3 5 5 0 0 1-1.57 3.73 5.15 5.15 0 0 1-3.73 1.61h-6.21zM88.33 22.13a1.87 1.87 0 0 0-1.33-.57H67.5a1.95 1.95 0 0 0-2 1.94 2 2 0 0 0 .55 1.38 1.87 1.87 0 0 0 1.4.61h7.78v25a1.95 1.95 0 1 0 3.89 0v-25H87a1.89 1.89 0 0 0 1.4-.61 2 2 0 0 0 .54-1.38 1.87 1.87 0 0 0-.61-1.37zM98.22 22.1a2 2 0 0 0-2.75 0 1.91 1.91 0 0 0-.57 1.37v27a1.95 1.95 0 0 0 1.95 1.95 2 2 0 0 0 1.37-.55 1.84 1.84 0 0 0 .62-1.4v-27a1.86 1.86 0 0 0-.62-1.37zM132.75 22.13l-.17-.14a2.08 2.08 0 0 0-1.4-.28 1.77 1.77 0 0 0-1.29.78L120.4 35.7l-9.54-13.22a1.87 1.87 0 0 0-2.69-.48l-.19.16a1.86 1.86 0 0 0-.74 1.51v26.82a1.87 1.87 0 0 0 .61 1.4 2 2 0 0 0 2.75 0 1.92 1.92 0 0 0 .57-1.38V29.64L118.69 40a1.94 1.94 0 0 0 1.75.9 1.84 1.84 0 0 0 1.6-.85l7.55-10.48v20.92a1.95 1.95 0 1 0 3.89 0V23.67a2.16 2.16 0 0 0-.73-1.54zM164.3 49.79L154.25 23a1.83 1.83 0 0 0-1.85-1.27 2 2 0 0 0-1.93 1.24l-10 26.81a1.85 1.85 0 0 0 0 1.56 2.11 2.11 0 0 0 1 1l.77.12a1.89 1.89 0 0 0 1.84-1.28l2.36-6.18h11.88l2.33 6.21a1.92 1.92 0 0 0 1.94 1.27h.38l.28-.07a2 2 0 0 0 1-1.06 1.83 1.83 0 0 0 .05-1.56zm-16.4-8.62l4.5-12 4.47 12zM190.88 49.31l-8.95-12.23 8.9-12.16a1.83 1.83 0 0 0 .42-1.57 1.91 1.91 0 0 0-.78-1.24 1.86 1.86 0 0 0-2.75.38l-8.21 11.28-8.17-11.23a1.81 1.81 0 0 0-1.31-.83 1.87 1.87 0 0 0-1.48.41 1.83 1.83 0 0 0-.77 1.28 1.8 1.8 0 0 0 .41 1.45l8.9 12.23-8.86 12.18a1.79 1.79 0 0 0 .32 2.78l.06.05a2.39 2.39 0 0 0 1.26.35 1.66 1.66 0 0 0 1.46-.89l8.18-11.2 8.21 11.24a1.8 1.8 0 0 0 1.48.85 2.17 2.17 0 0 0 1.24-.39 1.94 1.94 0 0 0 .81-1.25 1.76 1.76 0 0 0-.37-1.49zM117.25 66.48v.08a.42.42 0 0 1-.14.33.52.52 0 0 1-.36.13h-8.38a4.09 4.09 0 0 0 1.23 2.79 3.86 3.86 0 0 0 4.63.63 4 4 0 0 0 1.4-1.36.43.43 0 0 1 .66-.17.48.48 0 0 1 .17.71 4.83 4.83 0 0 1-1.76 1.69 4.67 4.67 0 0 1-2.37.63 4.74 4.74 0 0 1-3.51-1.49 5.23 5.23 0 0 1 0-7.23 4.65 4.65 0 0 1 3.46-1.5 4.7 4.7 0 0 1 3.41 1.37 5.17 5.17 0 0 1 1.56 3.39zm-2.42-2.82a3.87 3.87 0 0 0-5 0 4.11 4.11 0 0 0-1.39 2.34h7.73a4 4 0 0 0-1.34-2.34z" class="cls-1"/><path d="M112.33 72.09a4.86 4.86 0 0 1-3.61-1.54 5.11 5.11 0 0 1-1.5-3.71 5.16 5.16 0 0 1 1.5-3.72 4.79 4.79 0 0 1 3.56-1.55 4.85 4.85 0 0 1 3.51 1.43 5.3 5.3 0 0 1 1.61 3.48v.1a.58.58 0 0 1-.2.45.69.69 0 0 1-.45.16h-8.22a3.9 3.9 0 0 0 1.18 2.53 3.71 3.71 0 0 0 4.45.61A3.66 3.66 0 0 0 115.5 69a.57.57 0 0 1 .87-.21.62.62 0 0 1 .22.91 5.06 5.06 0 0 1-1.82 1.74 4.82 4.82 0 0 1-2.44.65zm0-10.22a4.5 4.5 0 0 0-3.35 1.46 4.92 4.92 0 0 0-1.41 3.51 4.86 4.86 0 0 0 1.41 3.5 4.68 4.68 0 0 0 5.7.84 4.77 4.77 0 0 0 1.7-1.64c.13-.2.09-.35-.12-.5a.28.28 0 0 0-.45.12 4 4 0 0 1-1.46 1.41 4 4 0 0 1-4.8-.65 4.25 4.25 0 0 1-1.33-2.92v-.16h8.53a.37.37 0 0 0 .26-.09.28.28 0 0 0 .09-.22v-.08a5.06 5.06 0 0 0-1.51-3.28 4.57 4.57 0 0 0-3.31-1.3zm4.07 4.32h-8.1v-.18a4.3 4.3 0 0 1 1.42-2.47 3.93 3.93 0 0 1 2.61-1 3.85 3.85 0 0 1 2.61 1 4.11 4.11 0 0 1 1.38 2.46zm-7.73-.3H116a3.88 3.88 0 0 0-1.25-2.11 3.71 3.71 0 0 0-4.83 0 4 4 0 0 0-1.3 2.11zM127.28 61.72c.29.07.44.23.44.48v8.92a4.61 4.61 0 0 1-1.42 3.4 4.73 4.73 0 0 1-3.44 1.4 5.09 5.09 0 0 1-2.11-.48.46.46 0 0 1-.21-.66.51.51 0 0 1 .65-.26 3.64 3.64 0 0 0 1.67.4 3.86 3.86 0 0 0 3.86-3.8v-.66a4 4 0 0 1-3.09 1.45 4.13 4.13 0 0 1-3-1.23 4 4 0 0 1-1.21-2.93V62.2a.43.43 0 0 1 .15-.34.51.51 0 0 1 .7 0 .43.43 0 0 1 .15.34v5.55a3.14 3.14 0 0 0 5.36 2.25 3.15 3.15 0 0 0 .94-2.23V62.2 62l.08-.11s.07-.1.21-.14h.06z" class="cls-1"/><path d="M122.86 76.07a5.41 5.41 0 0 1-2.17-.49.62.62 0 0 1-.29-.87.66.66 0 0 1 .83-.33 3.65 3.65 0 0 0 1.63.39 3.7 3.7 0 0 0 3.71-3.65v-.29a4 4 0 0 1-2.92 1.23 4.27 4.27 0 0 1-3.11-1.28 4.18 4.18 0 0 1-1.25-3V62.2a.62.62 0 0 1 .19-.45.7.7 0 0 1 .92 0 .58.58 0 0 1 .19.45v5.55a3 3 0 0 0 5.1 2.12 3 3 0 0 0 .9-2.13V62.2a.41.41 0 0 1 .08-.31v-.06c0-.15.24-.21.31-.23a.16.16 0 0 1 .09 0h.16a.62.62 0 0 1 .56.62v8.92a4.78 4.78 0 0 1-1.47 3.51 4.9 4.9 0 0 1-3.46 1.42zM121 74.64a.33.33 0 0 0-.31.21c-.07.14-.1.29.17.46a4.91 4.91 0 0 0 2 .46 4.58 4.58 0 0 0 3.33-1.36 4.46 4.46 0 0 0 1.38-3.29V62.2c0-.11 0-.25-.31-.33h-.27a1.25 1.25 0 0 1-.09.12v5.65a3.27 3.27 0 0 1-1 2.33 3.29 3.29 0 0 1-5.61-2.33V62.2a.29.29 0 0 0-.1-.23.37.37 0 0 0-.5 0 .29.29 0 0 0-.1.23v5.55a3.86 3.86 0 0 0 1.17 2.82 4 4 0 0 0 2.89 1.19 3.82 3.82 0 0 0 2.95-1.4l.27-.3v1.06a4 4 0 0 1-5.74 3.54.41.41 0 0 0-.13-.02zM141.16 66.48v.08a.4.4 0 0 1-.15.33.48.48 0 0 1-.35.13h-8.38a4.09 4.09 0 0 0 1.23 2.79 3.75 3.75 0 0 0 2.73 1.13 3.82 3.82 0 0 0 3.29-1.86.44.44 0 0 1 .67-.17.48.48 0 0 1 .17.71 4.91 4.91 0 0 1-1.76 1.69 4.84 4.84 0 0 1-5.88-.86 5.23 5.23 0 0 1 0-7.23 4.64 4.64 0 0 1 3.46-1.5 4.72 4.72 0 0 1 3.41 1.37 5.17 5.17 0 0 1 1.56 3.39zm-2.42-2.82a3.87 3.87 0 0 0-5 0 4.18 4.18 0 0 0-1.4 2.34h7.74a4 4 0 0 0-1.34-2.34z" class="cls-1"/><path d="M136.24 72.09a4.88 4.88 0 0 1-3.62-1.54 5.14 5.14 0 0 1-1.49-3.71 5.2 5.2 0 0 1 1.49-3.72 4.8 4.8 0 0 1 3.57-1.55A4.89 4.89 0 0 1 139.7 63a5.4 5.4 0 0 1 1.61 3.48v.1a.58.58 0 0 1-.2.45.73.73 0 0 1-.45.16h-8.22a3.86 3.86 0 0 0 1.18 2.53 3.69 3.69 0 0 0 4.44.61 3.77 3.77 0 0 0 1.35-1.33.57.57 0 0 1 .87-.21.63.63 0 0 1 .22.91 5.06 5.06 0 0 1-1.82 1.74 4.84 4.84 0 0 1-2.44.65zm-.05-10.22a4.49 4.49 0 0 0-3.35 1.46 5.06 5.06 0 0 0 0 7 4.67 4.67 0 0 0 5.69.84 4.8 4.8 0 0 0 1.71-1.64c.12-.2.09-.35-.13-.5s-.32-.09-.45.12a4.08 4.08 0 0 1-1.45 1.41 4 4 0 0 1-4.81-.65 4.28 4.28 0 0 1-1.27-2.91v-.16h8.54a.41.41 0 0 0 .26-.09.28.28 0 0 0 .09-.22v-.08a5 5 0 0 0-1.52-3.28 4.57 4.57 0 0 0-3.31-1.3zm4.06 4.32h-8.09v-.18a4.3 4.3 0 0 1 1.42-2.47 4 4 0 0 1 5.22 0 4 4 0 0 1 1.42 2.46zm-7.72-.3h7.36a3.77 3.77 0 0 0-1.25-2.11 3.69 3.69 0 0 0-4.82 0 3.92 3.92 0 0 0-1.29 2.11zM153.58 71.94h-.1a.4.4 0 0 1-.4-.32l-2.4-5.62-2.35 5.62a.43.43 0 0 1-.44.32.35.35 0 0 1-.27-.09.35.35 0 0 1-.21-.23l-3.83-9.12a.42.42 0 0 1 0-.38.43.43 0 0 1 .64-.27.44.44 0 0 1 .25.27l3.4 8.05 2.35-5.61a.55.55 0 0 1 1 0l2.35 5.61 3.38-8.05a.53.53 0 0 1 .28-.27.4.4 0 0 1 .37 0 .53.53 0 0 1 .26.27.42.42 0 0 1 0 .38L154 71.58a.6.6 0 0 1-.2.25.42.42 0 0 1-.22.11z" class="cls-1"/><path d="M153.58 72.09h-.1a.56.56 0 0 1-.53-.39l-2.24-5.32-2.23 5.33a.58.58 0 0 1-.58.42.57.57 0 0 1-.36-.11.52.52 0 0 1-.26-.3l-3.83-9.13a.6.6 0 0 1 0-.49.62.62 0 0 1 1.17 0l3.26 7.71 2.22-5.28a.69.69 0 0 1 1.25 0l2.22 5.28 3.24-7.72a.65.65 0 0 1 .36-.35.62.62 0 0 1 .5 0 .7.7 0 0 1 .33.35.62.62 0 0 1 0 .5l-3.81 9.08a.75.75 0 0 1-.25.31.53.53 0 0 1-.36.11zm-.39-.57v.06c0 .08.06.17.27.2h.08s.06 0 .15-.08a.43.43 0 0 0 .15-.18l3.81-9.09a.34.34 0 0 0 0-.26.39.39 0 0 0-.19-.19.28.28 0 0 0-.25 0 .36.36 0 0 0-.21.19l-3.51 8.37-2.49-5.93a.35.35 0 0 0-.36-.22.35.35 0 0 0-.35.22l-2.49 5.93-.14-.33-3.4-8a.27.27 0 0 0-.17-.19c-.22-.09-.34 0-.45.19a.3.3 0 0 0 0 .26l3.84 9.13a.25.25 0 0 0 .13.15h.05a.26.26 0 0 0 .16 0 .27.27 0 0 0 .29-.2.36.36 0 0 1 0-.09l2.48-5.93zM170.76 66.48v.08a.4.4 0 0 1-.15.33.51.51 0 0 1-.35.13h-8.38a4 4 0 0 0 1.23 2.79 3.85 3.85 0 0 0 4.62.63 3.88 3.88 0 0 0 1.4-1.36.44.44 0 0 1 .67-.17.48.48 0 0 1 .16.71 4.83 4.83 0 0 1-1.76 1.69 4.66 4.66 0 0 1-2.36.63 4.75 4.75 0 0 1-3.52-1.49 5.26 5.26 0 0 1 0-7.23 4.83 4.83 0 0 1 6.87-.13 5.23 5.23 0 0 1 1.57 3.39zm-2.42-2.82a3.88 3.88 0 0 0-5 0 4.11 4.11 0 0 0-1.4 2.34h7.73a4 4 0 0 0-1.33-2.34z" class="cls-1"/><path d="M165.84 72.09a4.88 4.88 0 0 1-3.62-1.54 5.14 5.14 0 0 1-1.49-3.71 5.2 5.2 0 0 1 1.49-3.72 4.79 4.79 0 0 1 3.56-1.55A4.89 4.89 0 0 1 169.3 63a5.36 5.36 0 0 1 1.6 3.48v.1a.58.58 0 0 1-.2.45.73.73 0 0 1-.45.16H162a3.85 3.85 0 0 0 1.17 2.53A3.69 3.69 0 0 0 169 69a.58.58 0 0 1 .87-.21.62.62 0 0 1 .22.91 5.11 5.11 0 0 1-1.81 1.74 4.84 4.84 0 0 1-2.44.65zm-.06-10.22a4.5 4.5 0 0 0-3.35 1.46 4.91 4.91 0 0 0-1.4 3.51 4.85 4.85 0 0 0 1.4 3.5 4.68 4.68 0 0 0 5.7.84 4.8 4.8 0 0 0 1.71-1.64c.12-.2.08-.35-.13-.5a.31.31 0 0 0-.25-.06.34.34 0 0 0-.2.18 4.08 4.08 0 0 1-1.45 1.41 4 4 0 0 1-4.81-.65 4.19 4.19 0 0 1-1.27-2.92v-.16h8.54a.37.37 0 0 0 .25-.09.24.24 0 0 0 .09-.22v-.08a5 5 0 0 0-1.51-3.28 4.57 4.57 0 0 0-3.32-1.3zm4.07 4.32h-8.09v-.18a4.26 4.26 0 0 1 1.43-2.47 4 4 0 0 1 5.22 0 4.15 4.15 0 0 1 1.41 2.46zm-7.72-.3h7.36a3.77 3.77 0 0 0-1.25-2.11 3.71 3.71 0 0 0-4.83 0 3.85 3.85 0 0 0-1.28 2.11zM181.49 61.87a.47.47 0 0 1 .35-.15.49.49 0 0 1 .36.15.52.52 0 0 1 .14.35v9.22a.5.5 0 0 1-.14.35.49.49 0 0 1-.36.15.51.51 0 0 1-.5-.5v-1.52a5 5 0 0 1-1.67 1.48 4.63 4.63 0 0 1-5.58-1 5.3 5.3 0 0 1 0-7.22 4.6 4.6 0 0 1 5.58-.95 4.79 4.79 0 0 1 1.67 1.46v-1.47a.49.49 0 0 1 .15-.35zm-7.82 5a4.07 4.07 0 0 0 1.14 2.91 3.61 3.61 0 0 0 2.71 1.2 3.57 3.57 0 0 0 2.7-1.2 4.35 4.35 0 0 0 0-5.83 3.58 3.58 0 0 0-2.7-1.21 3.62 3.62 0 0 0-2.71 1.21 4.11 4.11 0 0 0-1.14 2.88z" class="cls-1"/><path d="M181.84 72.09a.65.65 0 0 1-.65-.65v-1.09a4.89 4.89 0 0 1-1.45 1.18 4.77 4.77 0 0 1-5.76-1 5.44 5.44 0 0 1 0-7.42 4.77 4.77 0 0 1 5.76-1 5 5 0 0 1 1.45 1.17v-1.06a.65.65 0 0 1 1.11-.46.62.62 0 0 1 .19.46v9.22a.62.62 0 0 1-.19.46.64.64 0 0 1-.46.19zm-.35-2.64v2a.33.33 0 0 0 .1.24.36.36 0 0 0 .5 0 .33.33 0 0 0 .1-.25v-9.22a.33.33 0 0 0-.1-.24.35.35 0 0 0-.5 0 .37.37 0 0 0-.1.24v2l-.27-.38a4.73 4.73 0 0 0-1.63-1.41 4.43 4.43 0 0 0-5.39.93 5.13 5.13 0 0 0 0 7 4.39 4.39 0 0 0 3.31 1.46 4.32 4.32 0 0 0 2.08-.53 4.68 4.68 0 0 0 1.63-1.43zm-4 1.64a3.75 3.75 0 0 1-2.82-1.25 4.22 4.22 0 0 1-1.18-3 4.28 4.28 0 0 1 1.18-3 3.77 3.77 0 0 1 5.63 0 4.31 4.31 0 0 1 1.16 3 4.25 4.25 0 0 1-1.16 3 3.73 3.73 0 0 1-2.78 1.25zm0-8.24a3.43 3.43 0 0 0-2.6 1.17 4 4 0 0 0-1.1 2.81 3.9 3.9 0 0 0 1.1 2.8 3.49 3.49 0 0 0 5.19 0 4.2 4.2 0 0 0 0-5.62 3.41 3.41 0 0 0-2.56-1.16zM186.16 71.44v-9.19a.52.52 0 0 1 .14-.36.48.48 0 0 1 .36-.14.45.45 0 0 1 .35.14.49.49 0 0 1 .15.36v2.25a1.3 1.3 0 0 1 .14-.25 4.74 4.74 0 0 1 4.09-2.5.45.45 0 0 1 .35.14.49.49 0 0 1 .15.36.49.49 0 0 1-.15.35.45.45 0 0 1-.35.15 3.71 3.71 0 0 0-3 1.66 8.75 8.75 0 0 0-1.23 2.38.35.35 0 0 0 0 .17v4.48a.47.47 0 0 1-.15.35.45.45 0 0 1-.35.15.49.49 0 0 1-.36-.15.5.5 0 0 1-.14-.35z" class="cls-1"/><path d="M186.66 72.09a.64.64 0 0 1-.46-.19.62.62 0 0 1-.19-.46v-9.2a.6.6 0 0 1 .19-.45.65.65 0 0 1 .92 0 .63.63 0 0 1 .19.46V64a4.81 4.81 0 0 1 4.08-2.37.65.65 0 0 1 .46.18.63.63 0 0 1 .19.46.68.68 0 0 1-.19.47.66.66 0 0 1-.46.19 3.6 3.6 0 0 0-2.84 1.6 8.6 8.6 0 0 0-1.21 2.34.3.3 0 0 0 0 .12v4.48a.65.65 0 0 1-.65.65zm0-10.19a.33.33 0 0 0-.25.1.33.33 0 0 0-.1.24v9.2a.3.3 0 0 0 .1.24.36.36 0 0 0 .5 0 .33.33 0 0 0 .1-.25V67a.53.53 0 0 1 .06-.24 8.63 8.63 0 0 1 1.24-2.4 3.88 3.88 0 0 1 3.08-1.72.34.34 0 0 0 .25-.11.32.32 0 0 0 .1-.25.33.33 0 0 0-.1-.24.33.33 0 0 0-.25-.1 4.61 4.61 0 0 0-4 2.43 2 2 0 0 0-.14.23l-.28.57v-2.93a.37.37 0 0 0-.1-.24.33.33 0 0 0-.21-.1zM32.53 33.36a13.45 13.45 0 0 1 .47 3.42 11.77 11.77 0 0 1-3.26 8.32 10.07 10.07 0 0 1-7.67 3.41 10.15 10.15 0 0 1-7.69-3.39 11.55 11.55 0 0 1-3.24-8.35 11.4 11.4 0 0 1 3.24-8.3 10.22 10.22 0 0 1 7.71-3.35 10.52 10.52 0 0 1 3.17.46 6.24 6.24 0 0 1 2.37-3.37 14.23 14.23 0 0 0-5.5-1.07 14.06 14.06 0 0 0-10.56 4.59 15.69 15.69 0 0 0-4.38 11.06 15.72 15.72 0 0 0 4.36 11.06 14.05 14.05 0 0 0 10.56 4.58 13.9 13.9 0 0 0 10.53-4.59A15.82 15.82 0 0 0 37 36.79a16.84 16.84 0 0 0-1-5.53 6.23 6.23 0 0 1-3.47 2.1z" class="cls-1"/><path fill="#3b3be2" d="M31.23 31.42a4.15 4.15 0 1 1 4.15-4.15 4.16 4.16 0 0 1-4.15 4.15z"/></svg>