<?xml version="1.0" encoding="UTF-8"?>
<svg width="152px" height="152px" viewBox="0 0 152 152" version="1.1" xmlns="http://www.w3.org/2000/svg" xmlns:xlink="http://www.w3.org/1999/xlink">
    <!-- Generator: sketchtool 56.2 (101010) - https://sketch.com -->
    <title>E15DA016-4725-4B86-BF03-09F7A03AD5DA</title>
    <desc>Created with sketchtool.</desc>
    <defs>
        <circle id="path-1" cx="67" cy="67" r="67"></circle>
        <filter x="-10.8%" y="-9.3%" width="121.6%" height="121.6%" filterUnits="objectBoundingBox" id="filter-2">
            <feMorphology radius="0.5" operator="dilate" in="SourceAlpha" result="shadowSpreadOuter1"></feMorphology>
            <feOffset dx="0" dy="2" in="shadowSpreadOuter1" result="shadowOffsetOuter1"></feOffset>
            <feGaussianBlur stdDeviation="4" in="shadowOffsetOuter1" result="shadowBlurOuter1"></feGaussianBlur>
            <feColorMatrix values="0 0 0 0 0   0 0 0 0 0   0 0 0 0 0  0 0 0 0.1 0" type="matrix" in="shadowBlurOuter1"></feColorMatrix>
        </filter>
        <polygon id="path-3" points="0.0981 0.0459008197 17.84565 0.0459008197 17.84565 29 0.0981 29"></polygon>
        <polygon id="path-5" points="0.119139535 0.0458770492 9.88146512 0.0458770492 9.88146512 28.9999525 0.119139535 28.9999525"></polygon>
        <polygon id="path-7" points="0.0623724138 0.13694433 13.9283103 0.13694433 13.9283103 21.9999546 0.0623724138 21.9999546"></polygon>
    </defs>
    <g id="career_pahe" stroke="none" stroke-width="1" fill="none" fill-rule="evenodd">
        <g id="about_us_glassesusa_h1" transform="translate(-1078.000000, -1472.000000)">
            <g id="logo" transform="translate(110.000000, 1109.000000)">
                <g id="ottoto" transform="translate(977.000000, 370.000000)">
                    <g>
                        <g id="Oval-Copy-2">
                            <use fill="black" fill-opacity="1" filter="url(#filter-2)" xlink:href="#path-1"></use>
                            <use fill="#FFFFFF" fill-rule="evenodd" xlink:href="#path-1"></use>
                        </g>
                        <g id="Group-14" transform="translate(31.000000, 52.000000)">
                            <path d="M9.69302002,13.806133 C9.69302002,9.31876841 8.776745,7.504606 7,7.504606 C5.223255,7.504606 4.30844212,9.31876841 4.30844212,13.806133 L4.30844212,22.1915847 C4.30844212,26.679634 5.223255,28.4947093 7,28.4947093 C8.776745,28.4947093 9.69302002,26.679634 9.69302002,22.1915847 L9.69302002,13.806133 Z M0,13.806133 C0,9.01682642 3.44651001,7 7,7 C10.55349,7 14,9.01682642 14,13.806133 L14,22.1915847 C14,26.9831736 10.55349,29 7,29 C3.44651001,29 0,26.9831736 0,22.1915847 L0,13.806133 Z" id="Fill-1" fill="#4A4A4A"></path>
                            <g id="Group-5" transform="translate(15.000000, 0.000000)">
                                <mask id="mask-4" fill="white">
                                    <use xlink:href="#path-3"></use>
                                </mask>
                                <g id="Clip-4"></g>
                                <path d="M17.84565,6.87326148 L17.84565,6.34840902 L14.862375,6.34840902 L14.862375,0.0459008197 L10.885725,2.8291877 L10.885725,6.34840902 L9.5445,6.34840902 L8.39925,6.34840902 L6.561225,6.34840902 L6.561225,0.0459008197 L2.583225,2.8291877 L2.583225,6.34840902 L0.0981,6.34840902 L0.0981,6.87326148 L2.583225,6.87326148 L2.583225,25.5853926 C2.583225,27.4756221 4.02615,29.0000238 5.81535,29.0000238 C7.606125,29.0000238 9.0477,27.4756221 9.0477,25.5853926 L8.54955,25.5853926 C8.54955,26.5832779 8.102925,27.371032 7.556175,27.371032 C7.0092,27.371032 6.561225,26.5832779 6.561225,25.5853926 L6.561225,6.87326148 L8.39925,6.87326148 L9.5445,6.87326148 L10.885725,6.87326148 L10.885725,25.5853926 C10.885725,27.4756221 12.3273,29.0000238 14.116725,29.0000238 C15.9075,29.0000238 17.34885,27.4756221 17.34885,25.5853926 L16.8507,25.5853926 C16.8507,26.5832779 16.404075,27.371032 15.857325,27.371032 C15.310575,27.371032 14.862375,26.5832779 14.862375,25.5853926 L14.862375,6.87326148 L17.84565,6.87326148 Z" id="Fill-3" fill="#4A4A4A" mask="url(#mask-4)"></path>
                            </g>
                            <path d="M43.6925702,13.806133 C43.6925702,9.31876841 42.7776617,7.504606 41.0007311,7.504606 C39.2238006,7.504606 38.3074298,9.31876841 38.3074298,13.806133 L38.3074298,22.1915847 C38.3074298,26.679634 39.2238006,28.4947093 41.0007311,28.4947093 C42.7776617,28.4947093 43.6925702,26.679634 43.6925702,22.1915847 L43.6925702,13.806133 Z M34,13.806133 C34,9.01682642 37.44687,7 41.0007311,7 C44.5545923,7 48,9.01682642 48,13.806133 L48,22.1915847 C48,26.9831736 44.5545923,29 41.0007311,29 C37.44687,29 34,26.9831736 34,22.1915847 L34,13.806133 Z" id="Fill-6" fill="#4A4A4A"></path>
                            <g id="Group-10" transform="translate(48.000000, 0.000000)">
                                <mask id="mask-6" fill="white">
                                    <use xlink:href="#path-5"></use>
                                </mask>
                                <g id="Clip-9"></g>
                                <path d="M9.36797674,25.5853213 C9.36797674,27.4755508 7.87797674,28.9999525 6.02867442,28.9999525 C4.17913953,28.9999525 2.68913953,27.4755508 2.68913953,25.5853213 L2.68913953,6.87319016 L0.119139535,6.87319016 L0.119139535,6.3483377 L2.68913953,6.3483377 L2.68913953,2.8293541 L6.79937209,0.0458295082 L6.79937209,6.3483377 L9.88146512,6.3483377 L9.88146512,6.87319016 L6.79937209,6.87319016 L6.79937209,25.5853213 C6.79937209,26.5832066 7.261,27.3711984 7.82611628,27.3711984 C8.39146512,27.3711984 8.85448837,26.5832066 8.85448837,25.5853213 L9.36797674,25.5853213 Z" id="Fill-8" fill="#4A4A4A" mask="url(#mask-6)"></path>
                            </g>
                            <g id="Group-13" transform="translate(58.000000, 7.000000)">
                                <mask id="mask-8" fill="white">
                                    <use xlink:href="#path-7"></use>
                                </mask>
                                <g id="Clip-12"></g>
                                <path d="M9.66202759,6.90069691 C9.66202759,2.44127423 8.75444138,0.638408247 6.99454483,0.638408247 C5.23609655,0.638408247 4.32851034,2.44127423 4.32851034,6.90069691 L4.32851034,15.233934 C4.32851034,19.6940371 5.23609655,21.4978103 6.99454483,21.4978103 C8.75444138,21.4978103 9.66202759,19.6940371 9.66202759,15.233934 L9.66202759,6.90069691 Z M0.0623724138,6.90069691 C0.0623724138,2.14121237 3.4762,0.13694433 6.99454483,0.13694433 C10.5160276,0.13694433 13.9284069,2.14121237 13.9284069,6.90069691 L13.9284069,15.233934 C13.9284069,19.9956866 10.5160276,21.9999546 6.99454483,21.9999546 C3.4762,21.9999546 0.0623724138,19.9956866 0.0623724138,15.233934 L0.0623724138,6.90069691 Z" id="Fill-11" fill="#4A4A4A" mask="url(#mask-8)"></path>
                            </g>
                        </g>
                    </g>
                </g>
            </g>
        </g>
    </g>
</svg>