<?xml version="1.0" encoding="UTF-8"?>
<svg width="61px" height="71px" viewBox="0 0 61 71" version="1.1" xmlns="http://www.w3.org/2000/svg" xmlns:xlink="http://www.w3.org/1999/xlink">
    <defs>
        <polygon id="path-1" points="0.166219178 0.0807058824 11.3073151 0.0807058824 11.3073151 11.2432627 0.166219178 11.2432627"></polygon>
    </defs>
    <g id="desktop-" stroke="none" stroke-width="1" fill="none" fill-rule="evenodd">
        <g id="main_pagez" transform="translate(-920.000000, -4014.000000)">
            <g id="benefits-&amp;-perks-comp" transform="translate(252.000000, 3563.000000)">
                <g id="awsome-pepole-card-6" transform="translate(668.000000, 451.000000)">
                    <g id="awesome-pepole-icon">
                        <path d="M49.5663562,48.5211451 C48.8847123,48.1708706 48.0014247,48.3959686 47.1726575,49.0309098 C46.9707397,51.3543608 46.7504658,53.5644392 46.5619726,56.1077725 C47.7543014,56.4539294 48.8559452,55.2732627 49.8348493,53.361302 C50.887726,51.3057725 50.7674521,49.1385176 49.5663562,48.5211451 Z" id="Stroke-1" stroke="#008BFF" stroke-width="1.09560002"></path>
                        <path d="M14.8336438,48.7369647 C14.1887123,48.3133961 13.5207671,48.1692784 12.9547397,48.4092 C11.7111781,48.9357098 11.4311781,51.0878667 12.3289863,53.2158667 C13.1643288,55.1950824 14.7237808,56.4545333 15.9383014,56.1975922" id="Stroke-3" stroke="#008BFF" stroke-width="1.09560002"></path>
                        <path d="M46.6917808,51.6871216 C46.6917808,61.7566902 39.6287671,69.9192392 30.9161644,69.9192392 C22.2035616,69.9192392 15.1405479,61.7566902 15.1405479,51.6871216 C15.1405479,41.6178275 7.44630137,34.0921412 30.9161644,33.4550039 C55.0736986,32.7992 46.6917808,41.6178275 46.6917808,51.6871216 Z" id="Stroke-5" stroke="#008BFF" stroke-width="1.09560002"></path>
                        <path d="M53.8849041,38.4363961 C54.9690137,37.8055725 55.9591507,37.0188275 56.7287397,36.0270235 C56.7777808,35.9636118 56.826,35.9002 56.8742192,35.8365137 C58.326,33.9100039 59.2723014,31.8336118 59.6106575,29.8318863 L59.8123014,28.6630235 L58.7928493,29.2353765 C58.7870959,29.2386706 58.1775068,29.5601216 57.1092877,29.5601216 C56.1416164,29.5601216 55.1177808,29.3081216 54.0566849,28.8098863 C55.265726,27.5723961 56.0435342,25.9500431 56.3213425,24.0682784 C56.5629863,22.4302784 56.3443562,21.1741216 56.3344932,21.1214157 L56.1988767,20.3659647 L55.5273699,20.7181608 C55.5018904,20.7313373 53.1079178,21.9765137 51.2876438,22.1151412 C51.8268219,21.2622392 52.4123014,19.7820824 52.2339452,17.5014549 L52.1377808,16.2730235 L51.2802466,17.1445922 C50.8495616,17.5821608 49.5890137,18.624749 48.3306575,18.8973373 C48.3709315,18.8133373 48.4095616,18.7238471 48.4449041,18.6294157 C48.726274,17.8783569 48.8643562,16.6515725 47.9240822,15.0712196 L47.5996986,14.5254941 L47.1029863,14.915298 C47.0843562,14.9303961 45.2194247,16.3710235 42.5999726,16.4355333 C43.0421644,15.881298 43.4380548,15.0690235 43.4380548,13.9363961 L43.4380548,12.8778863 L42.5692877,13.4620431 C42.536411,13.4845529 39.2172329,15.6806314 34.4128493,15.6806314 C33.5936712,15.6806314 32.7673699,15.6163961 31.9566849,15.488749 C30.9947671,15.3374941 30.0503836,15.2611804 29.1495616,15.2611804 C26.9481918,15.2611804 24.8796986,15.7220824 23.0016164,16.6309843 C21.416411,17.3985137 19.9440822,18.4792588 18.5081918,19.9308667 C18.4333973,19.926749 18.3454521,19.9240039 18.2465479,19.9240039 C17.1953151,19.9240039 15.1366849,20.2210235 13.1586027,22.2106706 C12.9487397,22.4220431 12.7569589,22.6155725 12.5810685,22.7929059 C11.6432603,23.7402392 11.1728493,24.2156902 10.7980548,24.4591804 C10.4805205,24.6653373 10.2186027,24.7144745 9.50764384,24.825651 L8.97175342,24.9093765 L9.03723288,25.4564745 C9.06819178,25.7150627 9.35093151,27.753298 10.6276438,28.5254941 C10.3988767,29.0349843 9.8890137,29.8077294 8.87778082,29.9040824 L8.32024658,29.9573373 L8.37284932,30.523651 C8.37750685,30.5755333 8.49394521,31.8083569 8.8199726,33.085651 C9.20709589,34.6023176 9.72134247,35.5394941 10.3824384,35.9249059 C10.2024384,36.6597686 9.76326027,37.7915725 8.93312329,38.1616118 L8.71942466,38.2571412 C12.4602466,41.5932588 15.416411,52.1423961 15.416411,52.1423961 C15.2690137,46.1218471 15.8580548,40.9640824 16.1002466,39.1372196 C17.7479178,39.7798471 22.2925753,41.3895725 28.7076438,42.3679255 C31.3287397,42.7676118 34.1684658,42.970749 37.1473699,42.970749 L37.1481918,42.970749 C41.3602466,42.970749 44.7342192,42.5584353 45.9410685,42.3890627 C46.4323014,44.2461216 46.7870959,47.2036902 46.6736712,52.5692588 C46.6736712,52.5692588 48.2684658,41.7052588 53.8849041,38.4363961" id="Fill-7" fill="#BFDEEE"></path>
                        <path d="M53.8849041,38.4363961 C54.9690137,37.8055725 55.9591507,37.0188275 56.7287397,36.0270235 C56.7777808,35.9636118 56.826,35.9002 56.8742192,35.8365137 C58.326,33.9100039 59.2723014,31.8336118 59.6106575,29.8318863 L59.8123014,28.6630235 L58.7928493,29.2353765 C58.7870959,29.2386706 58.1775068,29.5601216 57.1092877,29.5601216 C56.1416164,29.5601216 55.1177808,29.3081216 54.0566849,28.8098863 C55.265726,27.5723961 56.0435342,25.9500431 56.3213425,24.0682784 C56.5629863,22.4302784 56.3443562,21.1741216 56.3344932,21.1214157 L56.1988767,20.3659647 L55.5273699,20.7181608 C55.5018904,20.7313373 53.1079178,21.9765137 51.2876438,22.1151412 C51.8268219,21.2622392 52.4123014,19.7820824 52.2339452,17.5014549 L52.1377808,16.2730235 L51.2802466,17.1445922 C50.8495616,17.5821608 49.5890137,18.624749 48.3306575,18.8973373 C48.3709315,18.8133373 48.4095616,18.7238471 48.4449041,18.6294157 C48.726274,17.8783569 48.8643562,16.6515725 47.9240822,15.0712196 L47.5996986,14.5254941 L47.1029863,14.915298 C47.0843562,14.9303961 45.2194247,16.3710235 42.5999726,16.4355333 C43.0421644,15.881298 43.4380548,15.0690235 43.4380548,13.9363961 L43.4380548,12.8778863 L42.5692877,13.4620431 C42.536411,13.4845529 39.2172329,15.6806314 34.4128493,15.6806314 C33.5936712,15.6806314 32.7673699,15.6163961 31.9566849,15.488749 C30.9947671,15.3374941 30.0503836,15.2611804 29.1495616,15.2611804 C26.9481918,15.2611804 24.8796986,15.7220824 23.0016164,16.6309843 C21.416411,17.3985137 19.9440822,18.4792588 18.5081918,19.9308667 C18.4333973,19.926749 18.3454521,19.9240039 18.2465479,19.9240039 C17.1953151,19.9240039 15.1366849,20.2210235 13.1586027,22.2106706 C12.9487397,22.4220431 12.7569589,22.6155725 12.5810685,22.7929059 C11.6432603,23.7402392 11.1728493,24.2156902 10.7980548,24.4591804 C10.4805205,24.6653373 10.2186027,24.7144745 9.50764384,24.825651 L8.97175342,24.9093765 L9.03723288,25.4564745 C9.06819178,25.7150627 9.35093151,27.753298 10.6276438,28.5254941 C10.3988767,29.0349843 9.8890137,29.8077294 8.87778082,29.9040824 L8.32024658,29.9573373 L8.37284932,30.523651 C8.37750685,30.5755333 8.49394521,31.8083569 8.8199726,33.085651 C9.20709589,34.6023176 9.72134247,35.5394941 10.3824384,35.9249059 C10.2024384,36.6597686 9.76326027,37.7915725 8.93312329,38.1616118 L8.71942466,38.2571412 C12.4602466,41.5932588 15.416411,52.1423961 15.416411,52.1423961 C15.2690137,46.1218471 15.8580548,40.9640824 16.1002466,39.1372196 C17.7479178,39.7798471 22.2925753,41.3895725 28.7076438,42.3679255 C31.3287397,42.7676118 34.1684658,42.970749 37.1473699,42.970749 L37.1481918,42.970749 C41.3602466,42.970749 44.7342192,42.5584353 45.9410685,42.3890627 C46.4323014,44.2461216 46.7870959,47.2036902 46.6736712,52.5692588 C46.6736712,52.5692588 48.2684658,41.7052588 53.8849041,38.4363961 Z" id="Stroke-9" stroke="#008BFF" stroke-width="1.09560002"></path>
                        <path d="M37.3989315,59.5476549 C37.3989315,63.1522431 34.4824932,66.0744 30.8846849,66.0744 C27.2871507,66.0744 24.3704384,63.1522431 24.3704384,59.5476549 L37.3989315,59.5476549 Z" id="Stroke-11" stroke="#008BFF" stroke-width="1.09560002"></path>
                        <path d="M26.8001644,51.352302 C26.8001644,52.024302 26.2563288,52.5694784 25.5850959,52.5694784 C24.914411,52.5694784 24.3705753,52.024302 24.3705753,51.352302 C24.3705753,50.6800275 24.914411,50.134851 25.5850959,50.134851 C26.2563288,50.134851 26.8001644,50.6800275 26.8001644,51.352302" id="Fill-13" fill="#008BFF"></path>
                        <path d="M37.3989315,51.352302 C37.3989315,52.024302 36.8550959,52.5694784 36.183863,52.5694784 C35.5131781,52.5694784 34.9693425,52.024302 34.9693425,51.352302 C34.9693425,50.6800275 35.5131781,50.134851 36.183863,50.134851 C36.8550959,50.134851 37.3989315,50.6800275 37.3989315,51.352302" id="Fill-15" fill="#008BFF"></path>
                        <g id="Group-19" transform="translate(0.000000, 0.193804)">
                            <mask id="mask-2" fill="white">
                                <use xlink:href="#path-1"></use>
                            </mask>
                            <g id="Clip-18"></g>
                            <path d="M11.3073151,5.4069098 L9.82128767,5.86753725 C8.04183562,6.41930196 6.69964384,7.89287059 6.31361644,9.71863529 L5.99142466,11.2432627 L5.4840274,9.69420392 C4.92265753,7.98016471 3.50676712,6.68557647 1.75224658,6.28204706 L0.166219178,5.91694902 L1.71252055,5.40883137 C3.42320548,4.84636078 4.7149863,3.42796863 5.118,1.66945882 L5.48210959,0.0805960784 L5.98950685,1.6296549 C6.55087671,3.34369412 7.96676712,4.63828235 9.72128767,5.04208627 L11.3073151,5.4069098 Z" id="Fill-17" fill="#008BFF" mask="url(#mask-2)"></path>
                        </g>
                        <path d="M16.7865205,13.9222039 L15.8788493,13.4423608 C14.791726,12.8680863 13.4793973,12.9279294 12.4489863,13.5996549 L11.5884384,14.1602039 L12.0733699,13.2005176 C12.6095342,12.1381647 12.551726,10.8724 11.9210411,9.86357647 L11.3509041,8.95220392 L12.3089863,9.43781176 C13.3689863,9.97502745 14.6325479,9.91710588 15.6393973,9.28518431 L16.5489863,8.71392941 L16.0643288,9.6738902 C15.5278904,10.7359686 15.5856986,12.0020078 16.2166575,13.0105569 L16.7865205,13.9222039 Z" id="Fill-20" fill="#008BFF"></path>
                        <path d="M4.70978082,15.4929765 L4.08156164,15.6876039 C3.32923288,15.9209373 2.76210959,16.5438 2.59882192,17.3157216 L2.46238356,17.9602706 L2.24813699,17.3055647 C2.01060274,16.5808588 1.41224658,16.0334863 0.670328767,15.8630157 L0.000191780822,15.7087412 L0.653342466,15.4938 C1.37663014,15.2560745 1.92293151,14.6562706 2.09334247,13.9131725 L2.24731507,13.2414471 L2.46156164,13.8961529 C2.69882192,14.6208588 3.29745205,15.1679569 4.03936986,15.338702 L4.70978082,15.4929765 Z" id="Fill-22" fill="#008BFF"></path>
                    </g>
                </g>
            </g>
        </g>
    </g>
</svg>