<?xml version="1.0" encoding="UTF-8"?>
<svg width="152px" height="152px" viewBox="0 0 152 152" version="1.1" xmlns="http://www.w3.org/2000/svg" xmlns:xlink="http://www.w3.org/1999/xlink">
    <!-- Generator: sketchtool 56.2 (101010) - https://sketch.com -->
    <title>C8D243C8-DE63-4529-BB10-CE7285F68363</title>
    <desc>Created with sketchtool.</desc>
    <defs>
        <circle id="path-1" cx="67" cy="67" r="67"></circle>
        <filter x="-10.8%" y="-9.3%" width="121.6%" height="121.6%" filterUnits="objectBoundingBox" id="filter-2">
            <feMorphology radius="0.5" operator="dilate" in="SourceAlpha" result="shadowSpreadOuter1"></feMorphology>
            <feOffset dx="0" dy="2" in="shadowSpreadOuter1" result="shadowOffsetOuter1"></feOffset>
            <feGaussianBlur stdDeviation="4" in="shadowOffsetOuter1" result="shadowBlurOuter1"></feGaussianBlur>
            <feColorMatrix values="0 0 0 0 0   0 0 0 0 0   0 0 0 0 0  0 0 0 0.1 0" type="matrix" in="shadowBlurOuter1"></feColorMatrix>
        </filter>
        <polygon id="path-3" points="0.260710136 0.2544 11.4 0.2544 11.4 29.269798 0.260710136 29.269798"></polygon>
        <polygon id="path-5" points="2.2438572e-05 0.127811717 18.1828885 0.127811717 18.1828885 35.52 2.2438572e-05 35.52"></polygon>
    </defs>
    <g id="career_pahe" stroke="none" stroke-width="1" fill="none" fill-rule="evenodd">
        <g id="about_us_glassesusa_h1" transform="translate(-1023.000000, -1127.000000)">
            <g id="logo" transform="translate(110.000000, 1109.000000)">
                <g id="revel" transform="translate(922.000000, 25.000000)">
                    <g>
                        <g id="Oval-Copy-3">
                            <use fill="black" fill-opacity="1" filter="url(#filter-2)" xlink:href="#path-1"></use>
                            <use fill="#FFFFFF" fill-rule="evenodd" xlink:href="#path-1"></use>
                        </g>
                        <g id="Group-17" transform="translate(35.000000, 48.000000)">
                            <g id="Group-3" transform="translate(51.840000, 0.705792)">
                                <mask id="mask-4" fill="white">
                                    <use xlink:href="#path-3"></use>
                                </mask>
                                <g id="Clip-2"></g>
                                <path d="M10.868544,3.08112 L11.391744,0.69168 C11.443584,0.4584 11.256384,0.24048 11.018304,0.25488 L7.634304,0.4584 C6.857664,0.50448 6.207744,1.06128 6.041664,1.82064 L5.697024,3.39216 L3.479424,13.51344 L3.429504,13.74096 L2.804544,16.59504 L0.636864,26.48976 L0.283584,28.09872 C0.146304,28.72368 0.645504,29.3064 1.283904,29.268 L5.182464,29.03376 L6.517824,28.95312 L9.270144,28.788 C9.443904,28.77744 9.587904,28.6536 9.625344,28.48368 L10.108224,26.27952 C10.148544,26.09712 10.003584,25.92624 9.816384,25.93776 L7.143744,26.09904 L5.808384,26.17872 L7.975104,16.284 L8.601024,13.42992 L8.649984,13.2024 L10.868544,3.08112 Z" id="Fill-1" fill="#4A4A4A" mask="url(#mask-4)"></path>
                            </g>
                            <g id="Group-6" transform="translate(0.000000, 3.585792)">
                                <mask id="mask-6" fill="white">
                                    <use xlink:href="#path-5"></use>
                                </mask>
                                <g id="Clip-5"></g>
                                <path d="M10.709184,12.170208 L7.970304,13.478688 L10.187904,3.357408 L12.672384,3.207648 L10.709184,12.170208 Z M17.011584,0.129888 L13.297344,0.352608 L11.196864,0.479328 L6.858624,0.739488 C6.366144,0.770208 5.952384,1.123488 5.846784,1.606368 L0.026304,28.170528 C-0.131136,28.886688 0.440064,29.553888 1.170624,29.509728 L4.501824,29.310048 L5.127744,26.455008 L7.345344,16.332768 L9.465024,17.845728 L7.611264,26.305248 L5.570304,35.520288 L9.910464,35.259168 C10.402944,35.229408 10.814784,34.877088 10.922304,34.395168 L12.782784,25.994208 L15.047424,16.048608 L13.675584,14.426208 L15.556224,13.339488 L15.626304,13.018848 L17.843904,2.896608 L18.156864,1.469088 C18.313344,0.752928 17.743104,0.085728 17.011584,0.129888 L17.011584,0.129888 Z" id="Fill-4" fill="#4A4A4A" mask="url(#mask-6)"></path>
                            </g>
                            <path d="M33.516672,20.843328 L37.213632,2.501568 L33.704832,2.712768 C33.226752,2.741568 32.812992,3.114048 32.728512,3.593088 L27.912192,30.730368 C27.846912,31.099008 28.120512,31.411968 28.488192,31.389888 L32.755392,31.137408 C33.001152,31.123008 33.224832,30.957888 33.318912,30.722688 L44.206272,3.414528 C44.467392,2.757888 44.010432,2.093568 43.324992,2.134848 L40.436352,2.307648 L33.516672,20.843328 Z" id="Fill-7" fill="#4A4A4A"></path>
                            <path d="M30.829824,2.885088 L28.098624,3.049248 L26.763264,3.129888 L22.903104,3.362208 C22.127424,3.408288 21.476544,3.965088 21.310464,4.724448 L20.966784,6.295008 L18.748224,16.416288 L18.698304,16.643808 L16.714944,17.987808 L18.073344,19.498848 L15.905664,29.392608 L15.553344,31.002528 C15.416064,31.626528 15.914304,32.209248 16.552704,32.170848 L20.451264,31.936608 L21.787584,31.856928 L24.652224,31.685088 C24.758784,31.678368 24.848064,31.602528 24.870144,31.497888 L25.390464,29.125728 C25.424064,28.972128 25.301184,28.828128 25.143744,28.837728 L22.412544,29.001888 L21.077184,29.082528 L23.244864,19.187808 L24.563904,19.108128 L27.429504,18.936288 C27.535104,18.929568 27.624384,18.853728 27.647424,18.750048 L28.167744,16.377888 C28.200384,16.224288 28.078464,16.080288 27.921024,16.089888 L25.189824,16.254048 L23.869824,16.332768 L23.872704,16.324128 L23.870784,16.301088 L24.153024,15.042528 L26.137344,5.984928 L27.473664,5.904288 L30.338304,5.731488 C30.444864,5.725728 30.533184,5.648928 30.556224,5.545248 L31.076544,3.173088 C31.110144,3.019488 30.987264,2.875488 30.829824,2.885088" id="Fill-13" fill="#4A4A4A"></path>
                            <path d="M55.500096,1.402944 L52.768896,1.567104 L51.434496,1.646784 L47.573376,1.879104 C46.798656,1.925184 46.147776,2.481984 45.980736,3.241344 L45.637056,4.812864 L43.419456,14.934144 L43.369536,15.161664 L42.070656,15.239424 L41.769216,16.506624 L41.391936,18.097344 L42.744576,18.015744 L40.575936,27.910464 L40.223616,29.519424 C40.086336,30.144384 40.585536,30.727104 41.223936,30.688704 L45.121536,30.454464 L46.457856,30.373824 L49.322496,30.201984 C49.429056,30.195264 49.518336,30.119424 49.541376,30.015744 L50.060736,27.643584 C50.094336,27.489024 49.971456,27.345984 49.814016,27.355584 L47.082816,27.519744 L45.747456,27.599424 L47.916096,17.704704 L49.235136,17.625984 L52.099776,17.454144 C52.205376,17.447424 52.294656,17.371584 52.318656,17.266944 L52.838016,14.895744 C52.871616,14.741184 52.748736,14.598144 52.591296,14.606784 L50.808576,14.714304 L49.860096,14.770944 L48.541056,14.850624 L48.544896,14.834304 L46.308096,14.952384 L48.741696,13.934784 L50.807616,4.501824 L52.143936,4.422144 L55.008576,4.249344 C55.116096,4.242624 55.204416,4.166784 55.227456,4.063104 L55.746816,1.690944 C55.780416,1.537344 55.657536,1.393344 55.500096,1.402944" id="Fill-15" fill="#4A4A4A"></path>
                        </g>
                    </g>
                </g>
            </g>
        </g>
    </g>
</svg>