<?xml version="1.0" encoding="UTF-8"?>
<svg width="65px" height="31px" viewBox="0 0 65 31" version="1.1" xmlns="http://www.w3.org/2000/svg" xmlns:xlink="http://www.w3.org/1999/xlink">
    <g id="desktop-" stroke="none" stroke-width="1" fill="none" fill-rule="evenodd">
        <g id="main_pagez" transform="translate(-600.000000, -3791.000000)">
            <g id="benefits-&amp;-perks-comp" transform="translate(252.000000, 3563.000000)">
                <g id="social-activities-card-2" transform="translate(348.000000, 229.000000)">
                    <g id="social-activities-icon" transform="translate(1.000000, 0.000000)">
                        <path d="M27.0735803,9.35673652 C18.5574189,0.242162609 4.51412362,-0.0725504348 0.880214173,0.0083973913 C0.389607874,0.0194930435 0.000198425197,0.427510435 0.000198425197,0.926562609 L0.000198425197,27.9429626 C0.000198425197,28.4417626 0.389607874,28.8500322 0.880214173,28.8608757 C4.51412362,28.9418235 18.5574189,28.6271104 27.0735803,19.5127887" id="Stroke-1" stroke="#008BFF" stroke-width="0.996996048"></path>
                        <path d="M35.8607657,19.5126374 C44.3771752,28.6272113 58.4202224,28.9419243 62.0541319,28.8609765 C62.5449862,28.8498809 62.9343957,28.4418635 62.9343957,27.9428113 L62.9343957,0.926411304 C62.9343957,0.427611304 62.5449862,0.0193417391 62.0541319,0.00849826087 C58.4202224,-0.0724495652 44.3771752,0.242263478 35.8607657,9.35658522" id="Stroke-3" stroke="#008BFF" stroke-width="0.996996048"></path>
                        <path d="M26.4939555,11.8628409 C22.5056091,8.84709304 17.4663531,7.45887565 13.3046327,6.83045826" id="Stroke-5" stroke="#008BFF" stroke-width="0.996996048" stroke-linecap="round"></path>
                        <path d="M48.8005441,6.96416087 C44.8191425,7.64654348 40.184426,9.03955217 36.4607291,11.8472565" id="Stroke-7" stroke="#008BFF" stroke-width="0.996996048" stroke-linecap="round"></path>
                        <path d="M36.4403906,17.2957765 C39.9850087,19.9758809 44.3595402,21.3706548 48.2102291,22.0885939" id="Stroke-9" stroke="#008BFF" stroke-width="0.996996048" stroke-linecap="round"></path>
                        <path d="M13.2046512,22.3429617 C17.3584346,21.7258922 22.4086039,20.3535617 26.4170409,17.3537009" id="Stroke-11" stroke="#008BFF" stroke-width="0.996996048" stroke-linecap="round"></path>
                        <path d="M26.4939555,10.8085774 L26.4939555,18.060847 C26.4939555,18.8625078 27.1333807,19.5128643 27.9221209,19.5128643 L35.0125972,19.5128643 C35.8010894,19.5128643 36.4407626,18.8625078 36.4407626,18.060847 L36.4407626,11.8195426 L36.4407626,10.8085774 C36.4407626,10.0066643 35.8010894,9.35681217 35.0125972,9.35681217 L27.9221209,9.35681217 C27.1333807,9.35681217 26.4939555,10.0066643 26.4939555,10.8085774" id="Fill-13" fill="#BFDEEE"></path>
                        <path d="M26.4939555,10.8085774 L26.4939555,18.060847 C26.4939555,18.8625078 27.1333807,19.5128643 27.9221209,19.5128643 L35.0125972,19.5128643 C35.8010894,19.5128643 36.4407626,18.8625078 36.4407626,18.060847 L36.4407626,11.8195426 L36.4407626,10.8085774 C36.4407626,10.0066643 35.8010894,9.35681217 35.0125972,9.35681217 L27.9221209,9.35681217 C27.1333807,9.35681217 26.4939555,10.0066643 26.4939555,10.8085774 Z" id="Stroke-15" stroke="#008BFF" stroke-width="0.996996048"></path>
                        <path d="M36.4406386,14.434687 L45.9893551,14.434687" id="Stroke-17" stroke="#008BFF" stroke-width="0.996996048" stroke-linecap="round"></path>
                        <path d="M16.9449661,14.434687 L26.4939307,14.434687" id="Stroke-19" stroke="#008BFF" stroke-width="0.996996048" stroke-linecap="round"></path>
                    </g>
                </g>
            </g>
        </g>
    </g>
</svg>