<?xml version="1.0" encoding="UTF-8"?>
<svg width="64px" height="55px" viewBox="0 0 64 55" version="1.1" xmlns="http://www.w3.org/2000/svg" xmlns:xlink="http://www.w3.org/1999/xlink">
    <g id="desktop-" stroke="none" stroke-width="1" fill="none" fill-rule="evenodd">
        <g id="main_pagez" transform="translate(-600.000000, -4030.000000)">
            <g id="benefits-&amp;-perks-comp" transform="translate(252.000000, 3563.000000)">
                <g id="sport-activities-card-5" transform="translate(348.000000, 468.000000)">
                    <g id="sport-activities-icon" transform="translate(1.000000, 0.000000)">
                        <path d="M54.5661177,14.0742187 C56.3240646,15.5387212 56.4933301,18.1840528 54.9345513,19.8624777 L45.3816133,30.1590321 C45.016746,30.5536487 44.6115513,30.9114674 44.1728876,31.2253482 L39.2713212,34.7299389 C38.3314451,35.4013637 37.5504097,36.264742 36.9789673,37.2678974 L34.572215,41.4848301 C34.0970646,42.3147057 20.4828522,52.7257731 15.3821177,52.7257731 L3.04686106,52.7257731 C1.74952478,52.7257731 0.607188496,51.8698093 0.238480531,50.622799 L0.223666372,50.574742 C-0.0599973451,49.6232135 -0.0671300885,48.6381824 0.164684071,47.7231772 L0.197878761,47.7305917 L13.1413389,47.7305917 C17.4939584,47.7305917 28.1080292,40.2636332 28.5724805,39.3340736 L31.159746,34.1543534 C31.623923,33.2283637 32.2614805,32.3984881 33.0427903,31.7158041 L39.4115071,26.1378974 C39.6990115,25.8869026 39.9678611,25.6139389 40.2147637,25.3261461 L51.6581531,11.9602601 L51.8131531,11.7795658 L54.5661177,14.0742187 Z" id="Fill-1" fill="#BFDEEE"></path>
                        <path d="M19.6903221,17.0145104 C19.5062425,16.6457073 15.9313664,9.21554663 13.8379062,12.1964534 C13.2815522,12.9859611 13.203915,14.0187746 13.5613752,14.9153808 L14.3391186,16.8631995 L15.1464903,18.8887332 C15.6438619,20.1244845 15.8575699,21.4563497 15.7728,22.7879404 L15.2200124,31.6199922 C15.0208442,34.8367902 13.2815522,37.7586554 10.5505345,39.4667383 L2.52345487,44.4915777 C1.31829558,45.244013 0.496384071,46.4135829 0.164711504,47.7232047 C-0.0673769912,48.6382098 -0.0599699115,49.6232409 0.223693805,50.5747694 L0.238507965,50.6228264 C0.606941593,51.8698368 1.74955221,52.7255259 3.0468885,52.7255259 L15.3821451,52.7255259 C20.4828796,52.7255259 34.097092,42.3147332 34.5722425,41.4848575 L36.9789947,37.2679249 C37.5504372,36.2647694 38.3314726,35.4013912 39.2713487,34.7299663 L44.172915,31.2253756 C44.6115788,30.9114948 45.0167735,30.5536762 45.3816407,30.1590596 L54.9345788,19.8625052 C56.4933575,18.1840803 56.324092,15.5387487 54.5661451,14.0742461 L51.8131805,11.7795933 L51.6581805,11.9602876 L40.2147912,25.3261736 C39.9678885,25.6139663 39.6990389,25.8869301 39.4115345,26.1379249 L33.0428177,31.7158316 C32.261508,32.3985155 31.6239504,33.2283912 31.1597735,34.1543808 L28.572508,39.334101 C28.1080566,40.2636606 17.4939858,47.7306192 13.1413664,47.7306192 L0.197906195,47.7306192" id="Stroke-3" stroke="#008BFF" stroke-width="1.09560002"></path>
                        <path d="M51.4444726,11.7795933 C49.5282336,4.47877461 41.9137558,0.977753886 39.551446,0.0517642487 C39.1607912,-0.0995466321 38.7259681,0.0921321244 38.5709681,0.479608808 L36.5773664,5.47479016 C36.4188,5.86968135 36.2086584,6.30109585 35.9617558,6.75118394 C32.6705434,12.7720389 26.4790478,16.6234637 19.6903221,17.0145104 C19.2958265,17.0367539 18.8980389,17.0477383 18.4961363,17.0477383 C16.6350389,17.0438938 15.1794106,16.8631995 14.3391186,16.8631995" id="Stroke-5" stroke="#008BFF" stroke-width="1.09560002"></path>
                        <path d="M15.161908,33.7494389 L18.8920584,35.7991383" id="Stroke-7" stroke="#008BFF" stroke-width="1.09560002" stroke-linecap="round"></path>
                        <path d="M15.8989124,28.7561523 L19.889408,30.8058518" id="Stroke-9" stroke="#008BFF" stroke-width="1.09560002" stroke-linecap="round"></path>
                        <path d="M15.7909336,23.7630031 L20.8870044,25.812428" id="Stroke-11" stroke="#008BFF" stroke-width="1.09560002" stroke-linecap="round"></path>
                        <path d="M50.8167637,34.7481181 L61.7907637,34.7481181" id="Stroke-13" stroke="#008BFF" stroke-width="1.09560002" stroke-linecap="round"></path>
                        <path d="M41.8378743,42.7373326 L52.8118743,42.7373326" id="Stroke-15" stroke="#008BFF" stroke-width="1.09560002" stroke-linecap="round"></path>
                        <path d="M46.8260487,50.7265472 L60.7930575,50.7265472" id="Stroke-17" stroke="#008BFF" stroke-width="1.09560002" stroke-linecap="round"></path>
                        <path d="M56.8026168,42.7373326 L57.8003779,42.7373326" id="Stroke-19" stroke="#008BFF" stroke-width="1.09560002" stroke-linecap="round"></path>
                        <path d="M3.91384602,43.6197689 C3.91384602,43.6197689 13.9899434,44.6152352 17.3851292,41.8787326 C17.6731823,41.646686 17.6605628,41.202914 17.3648283,40.9813026 L12.7899965,37.5536031" id="Stroke-21" stroke="#008BFF" stroke-width="1.09560002"></path>
                        <path d="M43.4777469,2.01465907 C43.4777469,2.01465907 36.5054903,15.1839233 44.8019681,19.9682031" id="Stroke-23" stroke="#008BFF" stroke-width="1.09560002"></path>
                        <path d="M52.1656752,17.6669596 L44.6249938,25.5356746" id="Stroke-25" stroke="#008BFF" stroke-width="1.09560002" stroke-linecap="round"></path>
                    </g>
                </g>
            </g>
        </g>
    </g>
</svg>