<svg xmlns="http://www.w3.org/2000/svg" width="24" height="20"><g fill="none" fill-rule="evenodd"><path fill="#E8E8E8" d="M-1063-21H377v58h-1440z"/><path d="M-1-3h26.6600004v26.6600004H-1z"/><path fill="#B1BDC5" d="M23.9400004 2.67978913c-.8531854.37990322-1.7717909.63681619-2.7353725.75160709.9840254-.5903532 1.7390809-1.52644567 2.094802-2.64155728-.9213313.54662334-1.9394296.94429181-3.0270365 1.15747492C19.4055788 1.01942074 18.1666881.44 16.7955946.44c-2.6290651 0-4.7620286 2.13866381-4.7620286 4.77612142 0 .37443699.0408874.73794151.1226624 1.08778045-3.95927106-.19951752-7.46877984-2.09903362-9.81980999-4.99203764-.41023772.70787722-.64465928 1.52917879-.64465928 2.40377613 0 1.65626871.84091919 3.11848615 2.11933442 3.97531823-.77958796-.02323149-1.51556262-.24051427-2.15885899-.59581944v.05876201c0 2.31494984 1.64231382 4.24589674 3.82297947 4.68319544-.3993344.1120578-.82047545.1680867-1.25524567.1680867-.3066561 0-.60649763-.0286977-.89679874-.0847266.60649763 1.896783 2.36465931 3.2783734 4.44992083 3.3152705-1.63004757 1.2818318-3.68532494 2.0457379-5.91641848 2.0457379-.38434232 0-.7645959-.021865-1.13667197-.0655948 2.1084311 1.3528927 4.61347076 2.14413 7.30250408 2.14413 8.76355002 0 13.55419992-7.2769232 13.55419992-13.58905619 0-.20771687-.0040888-.41543374-.0122663-.61905093.9308717-.67371326 1.7390809-1.51414665 2.3755627-2.47210405"/></g></svg>
