<svg xmlns="http://www.w3.org/2000/svg" width="36" height="30"><g fill="none" fill-rule="evenodd"><path d="M-2.5-4.480469h40.9897507v40.9897507H-2.5z"/><path fill="#3A4850" d="M35.8452506 4.25220679c-1.3117726.5841012-2.7241284.97910489-4.2056352 1.1555959 1.512939-.90766805 2.6738368-2.34691022 3.220758-4.06139433-1.4165468.84043339-2.9818729 1.45184868-4.6540686 1.77961769C28.8735773 1.69939039 26.9687829.808531 24.8607266.808531c-4.0421874 0-7.3216189 3.28819561-7.3216189 7.34328669 0 .57569687.0628645 1.13458507.1885935 1.67246243-6.0873793-.30675818-11.48324904-3.22726419-15.09795789-7.67525787-.63074051 1.08836123-.99116365 2.35111239-.99116365 3.6958058 0 2.54651315 1.29291325 4.79467245 3.25847668 6.11205175-1.1986165-.0357184-2.33017754-.3697907-3.3192457-.9160724v.0903466c0 3.5592354 2.52505749 6.5280663 5.87783092 7.200413-.61397663.1722889-1.261481.2584333-1.9299402.2584333-.47148377 0-.93249011-.0441227-1.37882808-.1302672.93249011 2.9163039 3.63566369 5.0404993 6.84175332 5.0972285-2.50619817 1.9708163-5.66618713 3.1453219-9.09649345 3.1453219-.59092632 0-1.17556618-.0336173-1.74763315-.100852 3.24171281 2.0800727 7.09321129 3.2966 11.2276 3.2966 13.4739583 0 20.8395824-11.1882694 20.8395824-20.89317393 0-.31936468-.0062865-.63872937-.0188594-.9517908 1.4312152-1.03583415 2.6738368-2.32800048 3.6524276-3.80085998"/></g></svg>