<svg width="141px" height="36px" viewBox="0 0 141 36" xmlns="http://www.w3.org/2000/svg">
    <defs>
        <polygon id="path-1" points="0.0998862852 0.121589006 43.9696886 0.121589006 43.9696886 11.401589 0.0998862852 11.401589"></polygon>
        <polygon id="path-3" points="0 0.115760066 129.509693 0.115760066 129.509693 34.9786887 0 34.9786887"></polygon>
    </defs>
    <g id="-mobile" stroke="none" stroke-width="1" fill="none" fill-rule="evenodd">
        <g id="uvp-logo-copy" transform="translate(0.000000, -1.000000)">
            <g id="uvp-logo">
                <g>
                    <g id="Group-2" transform="translate(101.059405, 0.000611)">
                        <mask id="mask-2" fill="white">
                            <use xlink:href="#path-1"></use>
                        </mask>
                        <g id="Clip-1"></g>
                        <text id="UNITED-" mask="url(#mask-2)" font-family="LucidaGrande, Lucida Grande" font-size="11.2424006" font-weight="normal" letter-spacing="0.00794299962" fill="#241D52">
                            <tspan x="-0.939999998" y="10.06">UNITE</tspan>
                            <tspan x="31.6357054" y="10.06" letter-spacing="-0.722813041">D</tspan>
                            <tspan x="39.3337139" y="10.06"> </tspan>
                        </text>
                    </g>
                    <text id="VISION" font-family="LucidaGrande, Lucida Grande" font-size="11.2424006" font-weight="normal" letter-spacing="0.00794299962" fill="#241D52">
                        <tspan x="101.159292" y="22.3692506">VISION</tspan>
                    </text>
                    <g id="Group-8" transform="translate(0.000000, 1.589211)">
                        <mask id="mask-4" fill="white">
                            <use xlink:href="#path-3"></use>
                        </mask>
                        <g id="Clip-3"></g>
                        <text id="PLAN" mask="url(#mask-4)" font-family="LucidaGrande, Lucida Grande" font-size="11.2424006" font-weight="normal" letter-spacing="0.00794299962" fill="#241D52">
                            <tspan x="101.159292" y="33.9776402">PLAN</tspan>
                        </text>
                        <path d="M27.0542993,0.153703168 L32.2233596,0.153703168 C32.779003,0.153703168 33.2316319,0.288734175 33.5808795,0.558796189 C33.9301271,0.828858204 34.1921239,1.17810582 34.3669921,1.60690564 C34.3669921,1.60690564 43.4303222,25.6530563 43.9427068,27.451596 C44.3077182,25.6255613 47.7665894,15.3617384 47.7665894,15.3617384 C47.9098078,14.9966047 48.1633728,14.6628765 48.5291175,14.3611647 C48.8942511,14.0596973 49.3468799,13.9085359 49.8867595,13.9085359 L55.0556976,13.9085359 L46.7534292,34.5974858 L40.9651815,34.5974858 L27.0542993,0.153703168 Z" id="Fill-4" fill="#1FA88A" mask="url(#mask-4)"></path>
                        <path d="M88.2711258,6.70441781 C87.7471321,5.35459654 86.9371905,4.19540728 85.8415452,3.22648343 C84.7456556,2.25817058 83.3561193,1.48488894 81.6729364,0.94464271 C79.9896313,0.405129681 77.9965492,0.115760066 75.6943011,0.115760066 L75.6859915,0.115760066 L64.2642013,0.115760066 L48.5029667,0.115760066 C48.3847993,0.115760066 48.0173438,0.140444467 47.686915,0.237715672 C46.9697232,0.448999484 46.432532,0.869123106 46.2234477,1.59156954 L44.8638505,5.00376032 L64.4751185,5.00376032 L70.8826758,5.00376032 L70.8829202,5.00376032 L75.6859915,5.00376032 L75.6943011,5.00376032 C76.8692542,5.00376032 77.8935346,5.19536993 78.7671425,5.47288615 C79.6400171,5.75101336 80.3628301,6.17785798 80.934604,6.70185161 C81.5062556,7.22596744 81.934811,7.87448287 82.220759,8.62051391 C82.5067071,9.36715595 82.6495589,10.2075254 82.6495589,11.1283024 C82.6495589,12.0972263 82.5067071,12.9775551 82.220759,13.7636678 C81.934811,14.5497804 81.5062556,15.2182145 80.934604,15.7661593 C80.3628301,16.3141041 79.6400171,16.7955721 78.7671425,17.0892188 C77.8935346,17.383232 76.8692542,17.590361 75.6943011,17.590361 L70.7537548,17.590361 L70.7537548,13.9243608 L66.648079,13.9243608 L66.6204618,13.9243608 C65.3277079,13.9243608 63.9105545,14.9634274 63.9105545,16.2549593 L63.9105545,34.5761619 L70.6315548,34.5761619 L70.6315548,22.4783612 L75.6943011,22.4783612 C77.9332496,22.4783612 79.8866167,22.1981566 81.5539136,21.6421466 C83.2214549,21.086381 84.6106246,20.3068671 85.7224002,19.3065379 C86.8336871,18.3059642 87.6677021,17.1104816 88.22359,15.7209453 C88.7793556,14.331409 89.0572384,12.8025647 89.0572384,11.1351456 C89.0572384,9.53139276 88.7951194,8.05423908 88.2711258,6.70441781" id="Fill-5" fill="#241D52" mask="url(#mask-4)"></path>
                        <path d="M24.6657902,13.8021608 C23.4313258,13.8021608 21.9959645,14.8255858 21.9959645,16.0277895 L21.9959645,16.5005813 L21.9959645,20.7819808 C21.9959645,22.1001522 22.0167385,23.2913579 21.6593035,24.3548645 C21.3021129,25.4191044 20.8854108,26.3241176 20.210989,27.0703931 C19.5357118,27.8170351 18.7601083,28.3966298 17.7834859,28.8092992 C16.8067412,29.2224574 15.7240492,29.4284866 14.4854299,29.4284866 C13.2468106,29.4284866 12.1517764,29.2224574 11.1750317,28.8092992 C10.1982871,28.3966298 9.38272423,27.8128803 8.7158788,27.0584175 C8.04903336,26.3044434 7.45343053,25.3952754 7.09611771,24.3310355 C6.73880489,23.2674067 6.47656368,22.076201 6.47656368,20.7580295 L6.47656368,2.46688819 L6.47656368,2.43927099 C6.47656368,1.14285112 5.66136744,0.115760066 4.36494757,0.115760066 L4.33733037,0.115760066 L-3.66600019e-05,0.115760066 L-3.66600019e-05,20.7819808 C-3.66600019e-05,22.8302973 0.450270364,24.724153 1.1096616,26.4629368 C1.76844183,28.2018429 2.77414789,29.7025812 4.00470195,30.9647851 C5.23525601,32.2273556 6.76238949,33.2121654 8.52512459,33.9187258 C10.2878597,34.6249197 12.2876628,34.9786887 14.4952059,34.9786887 C16.702138,34.9786887 18.6950979,34.6249197 20.4577108,33.9187258 C22.2204459,33.2121654 23.7249724,32.2273556 24.9637139,30.9647851 C26.2019665,29.7025812 27.171257,28.2018429 27.8302816,26.4629368 C28.4890618,24.724153 28.8391649,22.8302973 28.8391649,20.7819808 L28.8391649,13.8021608 L24.6657902,13.8021608 Z" id="Fill-6" fill="#241D52" mask="url(#mask-4)"></path>
                        <path d="M94.8994007,32.2764311 C94.8994007,33.5647857 93.8549573,34.6092292 92.5666026,34.6092292 C91.278248,34.6092292 90.2338045,33.5647857 90.2338045,32.2764311 C90.2338045,30.9880764 91.278248,29.943633 92.5666026,29.943633 C93.8549573,29.943633 94.8994007,30.9880764 94.8994007,32.2764311" id="Fill-7" fill="#1FA88A" mask="url(#mask-4)"></path>
                    </g>
                </g>
            </g>
        </g>
    </g>
</svg>