<?xml version="1.0" encoding="UTF-8"?>
<svg width="152px" height="152px" viewBox="0 0 152 152" version="1.1" xmlns="http://www.w3.org/2000/svg" xmlns:xlink="http://www.w3.org/1999/xlink">
    <!-- Generator: sketchtool 56.2 (101010) - https://sketch.com -->
    <title>48DB45B1-DBD8-4DE2-B80E-860955ED76B5</title>
    <desc>Created with sketchtool.</desc>
    <defs>
        <circle id="path-1" cx="67" cy="67" r="67"></circle>
        <filter x="-10.8%" y="-9.3%" width="121.6%" height="121.6%" filterUnits="objectBoundingBox" id="filter-2">
            <feMorphology radius="0.5" operator="dilate" in="SourceAlpha" result="shadowSpreadOuter1"></feMorphology>
            <feOffset dx="0" dy="2" in="shadowSpreadOuter1" result="shadowOffsetOuter1"></feOffset>
            <feGaussianBlur stdDeviation="4" in="shadowOffsetOuter1" result="shadowBlurOuter1"></feGaussianBlur>
            <feColorMatrix values="0 0 0 0 0   0 0 0 0 0   0 0 0 0 0  0 0 0 0.1 0" type="matrix" in="shadowBlurOuter1"></feColorMatrix>
        </filter>
    </defs>
    <g id="career_pahe" stroke="none" stroke-width="1" fill="none" fill-rule="evenodd">
        <g id="about_us_glassesusa_h1" transform="translate(-1186.000000, -1293.000000)">
            <g id="logo" transform="translate(110.000000, 1109.000000)">
                <g id="yoji" transform="translate(1085.000000, 191.000000)">
                    <g>
                        <g id="Oval-Copy-5">
                            <use fill="black" fill-opacity="1" filter="url(#filter-2)" xlink:href="#path-1"></use>
                            <use fill="#FFFFFF" fill-rule="evenodd" xlink:href="#path-1"></use>
                        </g>
                        <g id="Group-7" transform="translate(35.000000, 55.000000)" fill="#4A4A4A">
                            <polygon id="Fill-1" points="12.580875 4.756379 8.848615 11.231919 5.116355 4.756379 -0.000265000001 4.756379 6.574385 14.840689 6.574385 22.255389 10.801135 22.255389 10.801135 14.840689 17.523655 4.756379"></polygon>
                            <g id="Group-6" transform="translate(19.610000, 0.464969)">
                                <path d="M5.75368,2.19102 L14.05878,2.19102 L14.05878,0.06519 L5.75368,0.06519 L5.75368,2.19102 Z M14.97303,12.96698 C14.97303,12.20961 14.84954,11.50047 14.60256,10.84168 C14.35505,10.18289 14.01267,9.61791 13.57648,9.14833 C13.13976,8.67875 12.61241,8.30775 11.99443,8.03639 C11.37645,7.76397 10.69752,7.62829 9.95552,7.62829 C9.21405,7.62829 8.53777,7.76397 7.92933,8.03639 C7.3193,8.30775 6.79142,8.67875 6.34728,9.14833 C5.90261,9.61791 5.56023,10.18289 5.3212,10.84168 C5.08217,11.50047 4.96292,12.20961 4.96292,12.96698 C4.96292,13.75774 5.08694,14.48702 5.33392,15.15376 C5.58037,15.82156 5.92275,16.39396 6.36,16.87202 C6.79566,17.35008 7.3193,17.72479 7.92933,17.99721 C8.53777,18.26804 9.21405,18.40372 9.95552,18.40372 C10.69752,18.40372 11.37221,18.26804 11.98224,17.99721 C12.59174,17.72479 13.11909,17.35008 13.56429,16.87202 C14.00949,16.39396 14.35505,15.82156 14.60256,15.15376 C14.84954,14.48702 14.97303,13.75774 14.97303,12.96698 L14.97303,12.96698 Z M19.49605,12.96698 C19.49605,14.35081 19.25702,15.61592 18.77949,16.76125 C18.30143,17.90658 17.63787,18.88602 16.78987,19.70222 C15.94081,20.51789 14.93222,21.14806 13.76198,21.59273 C12.59174,22.03793 11.32292,22.26 9.95552,22.26 C8.58759,22.26 7.32301,22.03793 6.16178,21.59273 C5.00055,21.14806 3.99514,20.51789 3.14661,19.70222 C2.29755,18.88602 1.63452,17.90658 1.15646,16.76125 C0.6784,15.61592 0.44043,14.35081 0.44043,12.96698 C0.44043,11.56672 0.6784,10.30214 1.15646,9.17271 C1.63452,8.04434 2.29755,7.08451 3.14661,6.29375 C3.99514,5.50246 5.00055,4.89296 6.16178,4.46472 C7.32301,4.03595 8.58759,3.82236 9.95552,3.82236 C11.32292,3.82236 12.59174,4.03595 13.76198,4.46472 C14.93222,4.89296 15.94081,5.50246 16.78987,6.29375 C17.63787,7.08451 18.30143,8.04434 18.77949,9.17271 C19.25702,10.30214 19.49605,11.56672 19.49605,12.96698 L19.49605,12.96698 Z" id="Fill-2"></path>
                                <path d="M33.553028,17.984119 C33.396148,18.742019 33.107828,19.438439 32.688068,20.072319 C32.267778,20.707789 31.682658,21.230369 30.933238,21.641649 C30.183288,22.053989 29.214978,22.259629 28.028838,22.259629 C26.546428,22.259629 25.310468,21.876969 24.321488,21.111119 C23.333038,20.344739 22.673718,19.359999 22.344588,18.157429 L26.076318,16.896559 C26.191328,17.358189 26.401738,17.729189 26.707018,18.009029 C27.011238,18.289399 27.385948,18.428789 27.831148,18.428789 C28.523328,18.428789 28.980718,18.190819 29.203318,17.712229 C29.425388,17.234699 29.536688,16.608239 29.536688,15.833909 L29.536688,4.291569 L33.787818,4.291569 L33.787818,15.808999 C33.787818,16.501709 33.709378,17.226219 33.553028,17.984119" id="Fill-4"></path>
                                <polygon id="Fill-5" points="40.11994 21.79042 44.37107 21.79042 44.37107 4.29141 40.11994 4.29141"></polygon>
                            </g>
                        </g>
                    </g>
                </g>
            </g>
        </g>
    </g>
</svg>