<svg xmlns="http://www.w3.org/2000/svg" width="24" height="17"><g fill="none" fill-rule="evenodd"><path fill="#E8E8E8" d="M-1105-23H335v58h-1440z"/><path d="M-1-5h26.6600004v26.6600004H-1z"/><path fill="#B1BDC5" d="M9.93253515 11.3432481l-.00072562-6.52743339 6.27375387 3.27496962-6.27302825 3.25246377zM23.7078004 3.68471237s-.2271206-1.60082199-.922995-2.30576447c-.8830857-.92564537-1.8728382-.93000134-2.3263538-.98372508C17.2091028.16 12.3350796.16 12.3350796.16h-.0101588s-4.87402319 0-8.12337199.23522282c-.45424126.05372374-1.44326815.05807971-2.32707942.98372508C1.17859501 2.08389038.9522 3.68471237.9522 3.68471237S.72 5.56504297.72 7.44464756v1.76271919c0 1.88033055.2322 3.75993515.2322 3.75993515s.226395 1.600822.92226939 2.3057645c.88381127.9256454 2.04408566.8966055 2.56073067.993163 1.85760003.1785951 7.89480014.2337709 7.89480014.2337709s4.8791026-.00726 8.1284514-.2424828c.4535156-.0544497 1.4432681-.0588057 2.3263538-.9844511.6958744-.7049425.922995-2.3057645.922995-2.3057645s.2322-1.8796046.2322-3.75993515V7.44464756c0-1.87960459-.2322-3.75993519-.2322-3.75993519z"/></g></svg>
