<svg xmlns="http://www.w3.org/2000/svg" width="36" height="26"><g fill="none" fill-rule="evenodd"><path d="M-2.5-7.75h40.9897507v40.9897507H-2.5z"/><path fill="#3A4850" d="M14.3087728 17.3777439l-.0011157-10.03592878 9.6458966 5.03526578-9.6447809 5.000663zM35.4882431 5.60274527s-.349198-2.46126382-1.4191048-3.54511287C32.7113941.63445264 31.1896496.62775533 30.4923693.5451551 25.4964955.1835 18.0026848.1835 18.0026848.1835h-.015619s-7.4938107 0-12.48968451.3616551c-.69839593.08260023-2.21902478.08929754-3.5778846 1.5124773C.84958982 3.14148145.50150751 5.60274527.50150751 5.60274527S.1445 8.49375356.1445 11.3836456v2.7101808c0 2.8910083.3570075 5.7809003.3570075 5.7809003s.34808232 2.4612638 1.41798919 3.5451129c1.35885982 1.4231798 3.1427817 1.378531 3.93712341 1.5269882 2.85606004.2745899 12.1382552.3594226 12.1382552.3594226s7.5016202-.0111622 12.497494-.3728173c.6972803-.0837164 2.2190248-.0904137 3.576769-1.5135935 1.0699068-1.0838491 1.4191048-3.5451129 1.4191048-3.5451129s.3570075-2.889892.3570075-5.7809003v-2.7101808c0-2.88989204-.3570075-5.78090033-.3570075-5.78090033z"/></g></svg>